<svg width="121" height="120" viewBox="0 0 121 120" fill="none" xmlns="http://www.w3.org/2000/svg">
<path d="M116.927 68.9133C104.617 49.42 106.263 29.6533 100.33 20.26C94.3968 10.8667 76.5368 -5.45335 33.3201 21.8367C-9.89656 49.1267 0.520107 79.67 7.04677 90.0033C37.6001 138.39 138.727 103.44 116.927 68.9133Z" fill="#FFFBC5"/>
<path d="M92.3999 73.7666L85.6999 64.4L85.0999 62.7333C85.0666 62 85.2666 61.2333 85.6999 60.6L92.3999 51.2333C93.7999 49.3 92.6332 46.5333 90.2666 46.1333L79.1666 44.3L78.9333 44.2666C78.7999 44.2333 78.6999 44.2 78.5666 44.1666C77.3666 43.8333 76.4333 42.8 76.2332 41.5666L74.9999 34.0333L74.3666 30.2333C73.9666 27.8333 71.1999 26.7 69.2666 28.1L59.8999 34.8C59.6333 35 59.2999 35.1333 58.9999 35.2666C58.3332 35.4666 57.6666 35.4666 56.9999 35.2666C56.6999 35.1333 56.3666 35 56.0999 34.8L46.7332 28.1C44.7999 26.7 42.0332 27.8333 41.6332 30.2333L39.7666 41.5666C39.6666 42.0666 39.4666 42.5666 39.1666 42.9666C38.9999 43.2333 38.7332 43.5 38.4666 43.6666C38.0666 43.9666 37.5666 44.1666 37.0666 44.2666L25.7332 46.1333C24.8999 46.2666 24.2332 46.7 23.7332 47.3C23.4999 47.5666 23.3332 47.9 23.1999 48.2666C22.9999 48.8 22.9332 49.3333 23.0332 49.8666C23.0999 50.2 23.1999 50.5 23.3332 50.8C23.3999 50.9333 23.4999 51.1 23.5999 51.2333L25.9666 54.5333L30.2999 60.6C31.0999 61.7333 31.0999 63.2666 30.2999 64.4L23.5999 73.7666C22.1999 75.7 23.3332 78.4666 25.7332 78.8666L37.0666 80.7333H37.0999L38.7332 81.5333C39.2666 82 39.6332 82.6666 39.7666 83.4L41.6332 94.7666C42.0332 97.1666 44.7666 98.3 46.7666 96.9L56.0999 90.2C56.1999 90.1333 56.3333 90.0666 56.4333 90C57.5333 89.4 58.8666 89.4666 59.8999 90.2L66.0332 94.6L66.0999 94.6333L69.2666 96.9C69.3999 97 69.5666 97.1 69.6999 97.1666C69.9999 97.3 70.2999 97.4 70.6333 97.4666C71.1666 97.5666 71.6999 97.5 72.2333 97.3C72.5999 97.1666 72.9333 97 73.1999 96.7666C73.7999 96.2666 74.2332 95.6 74.3666 94.7666L76.2332 83.4333C76.4666 82.0333 77.5332 80.9666 78.9333 80.7333L90.2666 78.8666C92.6666 78.4666 93.7999 75.7 92.3999 73.7666Z" fill="#FFBF00"/>
<path d="M49.1332 94.7666L47.2666 83.4C47.1332 82.6666 46.7666 82 46.2332 81.5333L44.5999 80.7333H44.5666L33.2332 78.8666C30.8332 78.4666 29.6999 75.7 31.0999 73.7666L37.7999 64.4C38.5999 63.2666 38.5999 61.7333 37.7999 60.6L33.4666 54.5333L31.0999 51.2333C30.9999 51.1 30.8999 50.9333 30.8332 50.8C30.6999 50.5 30.5999 50.2 30.5332 49.8666C30.4332 49.3333 30.4999 48.8 30.6999 48.2666C30.8332 47.9 30.9999 47.5666 31.2332 47.3C31.7332 46.7 32.3999 46.2666 33.2332 46.1333L44.5666 44.2666C45.0666 44.1666 45.5666 43.9666 45.9666 43.6666C46.2332 43.5 46.4999 43.2333 46.6666 42.9666C46.9666 42.5666 47.1666 42.0666 47.2666 41.5666L49.1332 30.2333C49.1532 30.11 49.2032 30.0066 49.2366 29.89L46.7332 28.1C44.7999 26.7 42.0332 27.8333 41.6332 30.2333L39.7666 41.5666C39.6666 42.0666 39.4666 42.5666 39.1666 42.9666C38.9999 43.2333 38.7332 43.5 38.4666 43.6666C38.0666 43.9666 37.5666 44.1666 37.0666 44.2666L25.7332 46.1333C24.8999 46.2666 24.2332 46.7 23.7332 47.3C23.4999 47.5666 23.3332 47.9 23.1999 48.2666C22.9999 48.8 22.9332 49.3333 23.0332 49.8666C23.0999 50.2 23.1999 50.5 23.3332 50.8C23.3999 50.9333 23.4999 51.1 23.5999 51.2333L25.9666 54.5333L30.2999 60.6C31.0999 61.7333 31.0999 63.2666 30.2999 64.4L23.5999 73.7666C22.1999 75.7 23.3332 78.4666 25.7332 78.8666L37.0666 80.7333H37.0999L38.7332 81.5333C39.2666 82 39.6332 82.6666 39.7666 83.4L41.6332 94.7666C42.0332 97.1666 44.7666 98.3 46.7666 96.9L49.2399 95.1233C49.2066 95.0033 49.1532 94.8933 49.1332 94.7666Z" fill="#E29300"/>
<path d="M73.6 94.6333L73.5333 94.6L67.4 90.2C66.3667 89.4666 65.0333 89.4 63.9333 90C63.8333 90.0666 63.7 90.1333 63.6 90.2L61.75 91.5266L66.0333 94.6L66.1 94.6333L69.2667 96.9C69.4 97 69.5667 97.1 69.7 97.1666C70 97.3 70.3 97.4 70.6333 97.4666C71.1667 97.5666 71.7 97.5 72.2333 97.3C72.6 97.1666 72.9333 97 73.2 96.7666C73.7133 96.34 74.06 95.7666 74.2467 95.0966L73.6 94.6333Z" fill="#E29300"/>
<path d="M100.5 25C97.7433 25 95.5 22.7567 95.5 20C95.5 17.2433 97.7433 15 100.5 15C103.257 15 105.5 17.2433 105.5 20C105.5 22.7567 103.257 25 100.5 25ZM100.5 18.3333C99.58 18.3333 98.8333 19.0833 98.8333 20C98.8333 20.9167 99.58 21.6667 100.5 21.6667C101.42 21.6667 102.167 20.9167 102.167 20C102.167 19.0833 101.42 18.3333 100.5 18.3333Z" fill="#14B82C"/>
<path d="M71.1299 100.003C69.9499 100.003 68.7866 99.6367 67.7899 98.9234L58.4466 92.2167C58.2033 92.05 57.7966 92.0567 57.5099 92.2467L48.2099 98.9234C46.5433 100.093 44.4633 100.327 42.6199 99.55C40.7866 98.7834 39.4966 97.1467 39.1733 95.18L37.2866 83.8234C37.2333 83.51 36.9866 83.2634 36.6699 83.21L25.3099 81.3234C23.3466 81 21.7133 79.7134 20.9433 77.8767C20.1699 76.03 20.3999 73.95 21.5599 72.3067L28.2766 62.9434C28.4433 62.7 28.4433 62.2967 28.2466 62.0067L21.5733 52.71C20.4033 51.0834 20.1699 49.0034 20.9366 47.15C21.7033 45.2967 23.3399 44 25.3133 43.6734L36.6699 41.7867C36.9833 41.7334 37.2299 41.4867 37.2833 41.1734L39.1699 29.8134C39.4933 27.85 40.7799 26.2167 42.6166 25.4467C44.4599 24.6734 46.5433 24.9034 48.1866 26.0634L57.5466 32.7834C57.8133 32.9767 58.1766 32.9767 58.4433 32.78L67.7799 26.0767C69.4099 24.91 71.4899 24.67 73.3399 25.4434C75.1933 26.21 76.4899 27.8467 76.8166 29.8167L77.4499 33.6334L72.5199 34.4534L71.8866 30.6334C71.8333 30.2767 71.5799 30.12 71.4333 30.0634C71.2866 30.0067 70.9966 29.93 70.7033 30.14L61.3633 36.8467C59.3499 38.2867 56.6533 38.2834 54.6433 36.85L45.2966 30.14C44.9999 29.9267 44.7033 29.9967 44.5566 30.0634C44.3833 30.1334 44.1666 30.29 44.1099 30.63L42.2199 41.9934C41.8166 44.4167 39.9199 46.3167 37.4966 46.72L26.1333 48.61C25.7733 48.67 25.6199 48.92 25.5599 49.0667C25.4966 49.2134 25.4266 49.5034 25.6366 49.8L32.2099 58.9434C33.7333 61.1667 33.7333 63.8367 32.3733 65.8167L25.6366 75.2034C25.4266 75.5034 25.4966 75.7967 25.5566 75.9434C25.6299 76.1167 25.7866 76.3334 26.1266 76.39L37.4933 78.2767C39.9166 78.68 41.8133 80.58 42.2166 83.0034L44.1033 94.3634C44.1599 94.71 44.3799 94.8634 44.5499 94.9367C44.6933 94.9967 44.9866 95.07 45.3066 94.8467L54.6299 88.1534C56.6599 86.7634 59.3266 86.7634 61.3099 88.1234L70.6966 94.86C70.9866 95.07 71.2766 95 71.4266 94.9367C71.5699 94.8767 71.8266 94.7234 71.8833 94.3667L73.7733 83.0034C74.1766 80.58 76.0733 78.68 78.4966 78.2767L89.8599 76.39C90.2033 76.3334 90.3599 76.1167 90.4333 75.9434C90.4933 75.7967 90.5666 75.5034 90.3433 75.1834L83.6499 65.86L87.7133 62.9434L94.4199 72.2867C95.59 73.95 95.8199 76.03 95.0466 77.8767C94.2766 79.7134 92.6433 81.0034 90.6766 81.3234L79.3199 83.21C79.0066 83.2634 78.7599 83.51 78.7066 83.8234L76.8199 95.1834C76.4966 97.1534 75.1966 98.7867 73.3466 99.5567C72.6299 99.8567 71.8766 100.003 71.1299 100.003Z" fill="#482200"/>
<path d="M61.3333 71.6667C60.6933 71.6667 60.0533 71.4234 59.5666 70.9334L44.5667 55.9334L48.1033 52.3967L61.3366 65.6301L96.2333 30.7334L99.77 34.2701L63.1033 70.9367C62.6133 71.4234 61.9733 71.6667 61.3333 71.6667Z" fill="#482200"/>
</svg>
