<svg width="64" height="64" viewBox="0 0 64 64" fill="none" xmlns="http://www.w3.org/2000/svg">
<path d="M64 50.6667C64 56.56 59.2267 61.3334 53.3333 61.3334H10.6667C4.77333 61.3334 0 56.56 0 50.6667C0 49.2 1.2 48 2.66667 48C4.13333 48 5.33333 49.2 5.33333 50.6667C5.33333 53.6 7.73333 56 10.6667 56H53.3333C56.2667 56 58.6667 53.6 58.6667 50.6667C58.6667 49.2 59.8667 48 61.3333 48C62.8 48 64 49.2 64 50.6667ZM2.66667 18.6667C4.13333 18.6667 5.33333 17.4667 5.33333 16C5.33333 13.0667 7.73333 10.6667 10.6667 10.6667H53.3333C56.2667 10.6667 58.6667 13.0667 58.6667 16C58.6667 17.4667 59.8667 18.6667 61.3333 18.6667C62.8 18.6667 64 17.4667 64 16C64 10.1067 59.2267 5.33337 53.3333 5.33337H10.6667C4.77333 5.33337 0 10.1067 0 16C0 17.4667 1.2 18.6667 2.66667 18.6667ZM0 42.6667V28C0 24.32 2.98667 21.3334 6.66667 21.3334H10.6667C15.0667 21.3334 18.6667 24.9334 18.6667 29.3334C18.6667 33.7334 15.0667 37.3334 10.6667 37.3334H5.33333V42.6667C5.33333 44.1334 4.13333 45.3334 2.66667 45.3334C1.2 45.3334 0 44.1334 0 42.6667ZM5.33333 32H10.6667C12.1333 32 13.3333 30.8 13.3333 29.3334C13.3333 27.8667 12.1333 26.6667 10.6667 26.6667H6.66667C5.92 26.6667 5.33333 27.2534 5.33333 28V32ZM36.1867 36.1334L39.5467 41.1734C40.3733 42.4 40.0267 44.0534 38.8 44.88C38.3467 45.1734 37.84 45.3334 37.3333 45.3334C36.48 45.3334 35.6267 44.9067 35.12 44.1334L30.5867 37.3334H26.6933V42.6667C26.6933 44.1334 25.4933 45.3334 24.0267 45.3334C22.56 45.3334 21.36 44.1334 21.36 42.6667V28C21.36 24.32 24.3467 21.3334 28.0267 21.3334H32.0267C36.4267 21.3334 40.0267 24.9334 40.0267 29.3334C40.0267 32.2134 38.5067 34.7467 36.2133 36.1334H36.1867ZM26.6667 32H31.9467C31.9467 32 32 32 32.0533 32C33.52 32 34.6933 30.8 34.6933 29.3334C34.6933 27.8667 33.4933 26.6667 32.0267 26.6667H28.0267C27.28 26.6667 26.6933 27.2534 26.6933 28V32H26.6667ZM64 30.6667V36C64 41.1467 59.8133 45.3334 54.6667 45.3334C49.52 45.3334 45.3333 41.1467 45.3333 36V30.6667C45.3333 25.52 49.52 21.3334 54.6667 21.3334C59.8133 21.3334 64 25.52 64 30.6667ZM58.6667 30.6667C58.6667 28.4534 56.88 26.6667 54.6667 26.6667C52.4533 26.6667 50.6667 28.4534 50.6667 30.6667V36C50.6667 38.2134 52.4533 40 54.6667 40C56.88 40 58.6667 38.2134 58.6667 36V30.6667Z" fill="#14B82C"/>
</svg>
