<svg width="33" height="32" viewBox="0 0 33 32" fill="none" xmlns="http://www.w3.org/2000/svg">
<circle cx="16.5" cy="16" r="15.75" fill="white" stroke="#FFBF00" stroke-width="0.5"/>
<path d="M15.9168 14.5622C19.405 14.5622 21.3798 17.054 21.3798 21.4475C21.3798 25.841 19.405 28.3329 15.9168 28.3329C14.551 28.3329 13.4621 27.7755 12.7054 26.7263V28.005H7.5376V11.6113H12.7054V16.1688C13.4621 15.1196 14.551 14.5622 15.9168 14.5622ZM14.4587 23.4148C15.5845 23.4148 16.2121 22.6935 16.2121 21.4475C16.2121 20.2016 15.5845 19.4803 14.4587 19.4803C13.3329 19.4803 12.7054 20.2016 12.7054 21.4475C12.7054 22.6935 13.3329 23.4148 14.4587 23.4148Z" fill="#FFECB2"/>
<path d="M15.0645 13.4235C18.5528 13.4235 20.5276 15.9154 20.5276 20.3089C20.5276 24.7024 18.5528 27.1942 15.0645 27.1942C13.6988 27.1942 12.6098 26.6368 11.8531 25.5876V26.8663H6.68536V10.4727H11.8531V15.0301C12.6098 13.9809 13.6988 13.4235 15.0645 13.4235ZM13.6065 22.2761C14.7323 22.2761 15.3598 21.5548 15.3598 20.3089C15.3598 19.0629 14.7323 18.3416 13.6065 18.3416C12.4806 18.3416 11.8531 19.0629 11.8531 20.3089C11.8531 21.5548 12.4806 22.2761 13.6065 22.2761Z" fill="#FFD55B"/>
<path d="M14.2125 12.2839C17.7007 12.2839 19.6755 14.7757 19.6755 19.1692C19.6755 23.5627 17.7007 26.0546 14.2125 26.0546C12.8467 26.0546 11.7578 25.4972 11.0011 24.448V25.7267H5.83331V9.33301H11.0011V13.8905C11.7578 12.8413 12.8467 12.2839 14.2125 12.2839ZM12.7544 21.1365C13.8803 21.1365 14.5078 20.4151 14.5078 19.1692C14.5078 17.9233 13.8803 17.202 12.7544 17.202C11.6286 17.202 11.0011 17.9233 11.0011 19.1692C11.0011 20.4151 11.6286 21.1365 12.7544 21.1365Z" fill="#14B82C"/>
<path d="M21.3613 13.3333V9.80533H17.8333V7.528H21.3613V4H23.6386V7.528H27.1666V9.80533H23.6386V13.3333H21.3613Z" fill="#042F0C"/>
</svg>
