<svg width="159" height="24" viewBox="0 0 159 24" fill="none" xmlns="http://www.w3.org/2000/svg">
<path d="M158.182 7.01948V23.5857H151.654V20.5624C150.722 22.7574 149.136 23.9171 147.015 23.9999C142.982 23.9999 140.697 20.9351 140.697 15.5097V7.01948H147.225V12.2379C147.225 15.5097 147.971 17.3734 149.299 17.3734C150.419 17.3734 151.234 16.0895 151.654 13.7288V7.01948H158.182Z" fill="#FFECB2"/>
<path d="M138.596 7.01948V23.5857H132.068V20.5624C131.135 22.7574 129.55 23.9171 127.429 23.9999C123.395 23.9999 121.111 20.9351 121.111 15.5097V7.01948H127.638V12.2379C127.638 15.5097 128.384 17.3734 129.713 17.3734C130.832 17.3734 131.648 16.0895 132.068 13.7288V7.01948H138.596Z" fill="#FFECB2"/>
<path d="M112.469 6.60533C116.875 6.60533 119.37 9.75292 119.37 15.3026C119.37 20.8523 116.875 23.9999 112.469 23.9999C110.744 23.9999 109.369 23.2958 108.413 21.9705V23.5857H101.885V2.87793H108.413V8.6347C109.369 7.3094 110.744 6.60533 112.469 6.60533ZM110.627 17.7875C112.05 17.7875 112.842 16.8764 112.842 15.3026C112.842 13.7288 112.05 12.8177 110.627 12.8177C109.205 12.8177 108.413 13.7288 108.413 15.3026C108.413 16.8764 109.205 17.7875 110.627 17.7875Z" fill="#FFECB2"/>
<path d="M93.462 6.60533C97.4952 6.60533 99.7799 9.67009 99.7799 15.0955V23.5857H93.2522V18.3674C93.2522 15.0955 92.5061 13.2318 91.1773 13.2318C90.1748 13.2318 89.4055 14.2672 88.9625 16.1723V23.5857H82.4348V18.3674C82.4348 15.0955 81.6888 13.2318 80.36 13.2318C79.2409 13.2318 78.425 14.4743 78.0053 16.835V23.5857H71.4776V7.01949H78.0053V10.0428C78.9379 7.8478 80.5232 6.68817 82.6447 6.60533C85.5355 6.60533 87.5404 8.17913 88.4263 11.0782C89.2889 8.26196 91.0141 6.68817 93.462 6.60533Z" fill="#FFECB2"/>
<path d="M63.0546 6.60533C67.0878 6.60533 69.3725 9.67009 69.3725 15.0955V23.5857H62.8448V18.3674C62.8448 15.0955 62.0988 13.2318 60.7699 13.2318C59.7675 13.2318 58.9981 14.2672 58.5552 16.1723V23.5857H52.0275V18.3674C52.0275 15.0955 51.2815 13.2318 49.9526 13.2318C48.8336 13.2318 48.0176 14.4743 47.598 16.835V23.5857H41.0703V7.01949H47.598V10.0428C48.5305 7.8478 50.1158 6.68817 52.2373 6.60533C55.1281 6.60533 57.1331 8.17913 58.019 11.0782C58.8816 8.26196 60.6067 6.68817 63.0546 6.60533Z" fill="#FFECB2"/>
<path d="M38.7467 7.01949V23.5857H32.219V21.9705C31.2632 23.2958 29.8877 23.9999 28.1625 23.9999C23.7563 23.9999 21.2618 20.8523 21.2618 15.3026C21.2618 9.75292 23.7563 6.60533 28.1625 6.60533C29.8877 6.60533 31.2632 7.3094 32.219 8.6347V7.01949H38.7467ZM30.0043 17.7875C31.4264 17.7875 32.219 16.8764 32.219 15.3026C32.219 13.7288 31.4264 12.8177 30.0043 12.8177C28.5822 12.8177 27.7895 13.7288 27.7895 15.3026C27.7895 16.8764 28.5822 17.7875 30.0043 17.7875Z" fill="#FFECB2"/>
<path d="M12.7369 6.60533C17.1431 6.60533 19.6376 9.75292 19.6376 15.3026C19.6376 20.8523 17.1431 23.9999 12.7369 23.9999C11.0117 23.9999 9.63625 23.2958 8.68041 21.9705V23.5857H2.15271V2.87793H8.68041V8.6347C9.63625 7.3094 11.0117 6.60533 12.7369 6.60533ZM10.8952 17.7875C12.3173 17.7875 13.1099 16.8764 13.1099 15.3026C13.1099 13.7288 12.3173 12.8177 10.8952 12.8177C9.47306 12.8177 8.68041 13.7288 8.68041 15.3026C8.68041 16.8764 9.47306 17.7875 10.8952 17.7875Z" fill="#FFECB2"/>
<path d="M157.106 5.58003V22.1463H150.578V19.1229C149.645 21.318 148.06 22.4776 145.939 22.5604C141.905 22.5604 139.621 19.4957 139.621 14.0702V5.58003H146.148V10.7984C146.148 14.0702 146.894 15.9339 148.223 15.9339C149.342 15.9339 150.158 14.65 150.578 12.2894V5.58003H157.106Z" fill="#FFD55B"/>
<path d="M137.519 5.58003V22.1463H130.992V19.1229C130.059 21.318 128.474 22.4776 126.352 22.5604C122.319 22.5604 120.034 19.4957 120.034 14.0702V5.58003H126.562V10.7984C126.562 14.0702 127.308 15.9339 128.637 15.9339C129.756 15.9339 130.572 14.65 130.992 12.2894V5.58003H137.519Z" fill="#FFD55B"/>
<path d="M111.393 5.16588C115.799 5.16588 118.294 8.31347 118.294 13.8632C118.294 19.4129 115.799 22.5604 111.393 22.5604C109.668 22.5604 108.292 21.8564 107.336 20.5311V22.1463H100.809V1.43848H107.336V7.19525C108.292 5.86995 109.668 5.16588 111.393 5.16588ZM109.551 16.3481C110.973 16.3481 111.766 15.437 111.766 13.8632C111.766 12.2894 110.973 11.3782 109.551 11.3782C108.129 11.3782 107.336 12.2894 107.336 13.8632C107.336 15.437 108.129 16.3481 109.551 16.3481Z" fill="#FFD55B"/>
<path d="M92.3857 5.16588C96.4189 5.16588 98.7036 8.23064 98.7036 13.6561V22.1463H92.1759V16.9279C92.1759 13.6561 91.4299 11.7924 90.101 11.7924C89.0985 11.7924 88.3292 12.8278 87.8862 14.7329V22.1463H81.3585V16.9279C81.3585 13.6561 80.6125 11.7924 79.2837 11.7924C78.1646 11.7924 77.3487 13.0348 76.929 15.3955V22.1463H70.4013V5.58004H76.929V8.60338C77.8616 6.40835 79.4469 5.24871 81.5684 5.16588C84.4592 5.16588 86.4641 6.73967 87.35 9.63877C88.2126 6.82251 89.9378 5.24871 92.3857 5.16588Z" fill="#FFD55B"/>
<path d="M61.9783 5.16588C66.0115 5.16588 68.2962 8.23064 68.2962 13.6561V22.1463H61.7685V16.9279C61.7685 13.6561 61.0225 11.7924 59.6936 11.7924C58.6912 11.7924 57.9218 12.8278 57.4789 14.7329V22.1463H50.9512V16.9279C50.9512 13.6561 50.2052 11.7924 48.8763 11.7924C47.7573 11.7924 46.9413 13.0348 46.5217 15.3955V22.1463H39.994V5.58004H46.5217V8.60338C47.4542 6.40835 49.0395 5.24871 51.161 5.16588C54.0519 5.16588 56.0568 6.73967 56.9427 9.63877C57.8053 6.82251 59.5305 5.24871 61.9783 5.16588Z" fill="#FFD55B"/>
<path d="M37.6704 5.58004V22.1463H31.1427V20.5311C30.1869 21.8564 28.8114 22.5604 27.0862 22.5604C22.68 22.5604 20.1855 19.4128 20.1855 13.8632C20.1855 8.31347 22.68 5.16588 27.0862 5.16588C28.8114 5.16588 30.1869 5.86995 31.1427 7.19525V5.58004H37.6704ZM28.928 16.3481C30.3501 16.3481 31.1427 15.437 31.1427 13.8632C31.1427 12.2894 30.3501 11.3782 28.928 11.3782C27.5059 11.3782 26.7132 12.2894 26.7132 13.8632C26.7132 15.437 27.5059 16.3481 28.928 16.3481Z" fill="#FFD55B"/>
<path d="M11.6606 5.16588C16.0668 5.16588 18.5613 8.31347 18.5613 13.8632C18.5613 19.4129 16.0668 22.5604 11.6606 22.5604C9.93543 22.5604 8.55995 21.8564 7.60411 20.5311V22.1463H1.07642V1.43848H7.60411V7.19525C8.55995 5.86995 9.93543 5.16588 11.6606 5.16588ZM9.81887 16.3481C11.241 16.3481 12.0336 15.437 12.0336 13.8632C12.0336 12.2894 11.241 11.3782 9.81887 11.3782C8.39676 11.3782 7.60411 12.2894 7.60411 13.8632C7.60411 15.437 8.39676 16.3481 9.81887 16.3481Z" fill="#FFD55B"/>
<path d="M156.029 4.14155V20.7078H149.501V17.6845C148.569 19.8795 146.984 21.0391 144.862 21.122C140.829 21.122 138.544 18.0572 138.544 12.6318V4.14155H145.072V9.35992C145.072 12.6318 145.818 14.4955 147.147 14.4955C148.266 14.4955 149.082 13.2116 149.501 10.8509V4.14155H156.029Z" fill="#14B82C"/>
<path d="M136.443 4.14155V20.7078H129.915V17.6845C128.983 19.8795 127.397 21.0391 125.276 21.122C121.243 21.122 118.958 18.0572 118.958 12.6318V4.14155H125.486V9.35992C125.486 12.6318 126.232 14.4955 127.561 14.4955C128.68 14.4955 129.495 13.2116 129.915 10.8509V4.14155H136.443Z" fill="#14B82C"/>
<path d="M110.316 3.72741C114.723 3.72741 117.217 6.87499 117.217 12.4247C117.217 17.9744 114.723 21.122 110.316 21.122C108.591 21.122 107.216 20.4179 106.26 19.0926V20.7078H99.7323V0H106.26V5.75677C107.216 4.43147 108.591 3.72741 110.316 3.72741ZM108.475 14.9096C109.897 14.9096 110.689 13.9985 110.689 12.4247C110.689 10.8509 109.897 9.93975 108.475 9.93975C107.053 9.93975 106.26 10.8509 106.26 12.4247C106.26 13.9985 107.053 14.9096 108.475 14.9096Z" fill="#14B82C"/>
<path d="M91.3093 3.7274C95.3425 3.7274 97.6271 6.79216 97.6271 12.2176V20.7078H91.0995V15.4894C91.0995 12.2176 90.3534 10.3539 89.0246 10.3539C88.0221 10.3539 87.2528 11.3893 86.8098 13.2944V20.7078H80.2821V15.4894C80.2821 12.2176 79.5361 10.3539 78.2073 10.3539C77.0882 10.3539 76.2723 11.5964 75.8526 13.9571V20.7078H69.3249V4.14156H75.8526V7.1649C76.7851 4.96987 78.3705 3.81024 80.492 3.7274C83.3828 3.7274 85.3877 5.3012 86.2736 8.20029C87.1362 5.38403 88.8614 3.81024 91.3093 3.7274Z" fill="#14B82C"/>
<path d="M60.9019 3.7274C64.9351 3.7274 67.2198 6.79216 67.2198 12.2176V20.7078H60.6921V15.4894C60.6921 12.2176 59.9461 10.3539 58.6172 10.3539C57.6148 10.3539 56.8454 11.3893 56.4025 13.2944V20.7078H49.8748V15.4894C49.8748 12.2176 49.1288 10.3539 47.7999 10.3539C46.6809 10.3539 45.8649 11.5964 45.4453 13.9571V20.7078H38.9176V4.14156H45.4453V7.1649C46.3778 4.96987 47.9631 3.81024 50.0846 3.7274C52.9754 3.7274 54.9804 5.3012 55.8663 8.20029C56.7289 5.38403 58.454 3.81024 60.9019 3.7274Z" fill="#14B82C"/>
<path d="M36.594 4.14156V20.7078H30.0663V19.0926C29.1105 20.4179 27.735 21.122 26.0098 21.122C21.6036 21.122 19.1091 17.9744 19.1091 12.4247C19.1091 6.87499 21.6036 3.7274 26.0098 3.7274C27.735 3.7274 29.1105 4.43147 30.0663 5.75677V4.14156H36.594ZM27.8516 14.9096C29.2737 14.9096 30.0663 13.9985 30.0663 12.4247C30.0663 10.8509 29.2737 9.93974 27.8516 9.93974C26.4294 9.93974 25.6368 10.8509 25.6368 12.4247C25.6368 13.9985 26.4294 14.9096 27.8516 14.9096Z" fill="#14B82C"/>
<path d="M10.5842 3.72741C14.9904 3.72741 17.4849 6.87499 17.4849 12.4247C17.4849 17.9744 14.9904 21.122 10.5842 21.122C8.85902 21.122 7.48354 20.4179 6.5277 19.0926V20.7078H0V0H6.5277V5.75677C7.48354 4.43147 8.85902 3.72741 10.5842 3.72741ZM8.74245 14.9096C10.1646 14.9096 10.9572 13.9985 10.9572 12.4247C10.9572 10.8509 10.1646 9.93975 8.74245 9.93975C7.32035 9.93975 6.5277 10.8509 6.5277 12.4247C6.5277 13.9985 7.32035 14.9096 8.74245 14.9096Z" fill="#14B82C"/>
</svg>
