<svg width="16" height="17" viewBox="0 0 16 17" fill="none" xmlns="http://www.w3.org/2000/svg">
<path d="M10.5855 4.12871L10.5854 4.12875L10.5895 4.1365C10.8597 4.65772 11.4015 4.99967 12 4.99967C13.1591 4.99967 14.0756 5.97693 14.0011 7.12734L14.001 7.12826L13.6543 12.6349C13.6543 12.6349 13.6543 12.6349 13.6543 12.6349C13.6156 13.2482 13.4358 13.7477 13.1157 14.0897C12.8053 14.4215 12.3058 14.6663 11.4933 14.6663H4.50668C3.69402 14.6663 3.1927 14.4214 2.88145 14.0894C2.56099 13.7476 2.38145 13.2488 2.34584 12.6373L2.34569 12.6349L1.99902 7.12826L1.99896 7.12734C1.9244 5.97693 2.84087 4.99967 4.00001 4.99967C4.59849 4.99967 5.14029 4.65772 5.41055 4.1365L5.41062 4.13654L5.41451 4.12871L5.89363 3.1638C5.99671 2.96079 6.19982 2.74766 6.46417 2.58388C6.72914 2.41973 7.01063 2.33301 7.24001 2.33301H8.76668C8.99193 2.33301 9.27155 2.4192 9.53619 2.58358C9.80007 2.74748 10.0033 2.96076 10.1064 3.16389C10.1067 3.16434 10.1069 3.16479 10.1071 3.16524L10.5855 4.12871ZM9.00001 4.83301H7.00001C6.45053 4.83301 6.00001 5.28353 6.00001 5.83301C6.00001 6.38248 6.45054 6.83301 7.00001 6.83301H9.00001C9.54949 6.83301 10 6.38248 10 5.83301C10 5.28353 9.54949 4.83301 9.00001 4.83301ZM5.24668 10.3263C5.24668 11.8501 6.48483 13.0797 8.00001 13.0797C9.51519 13.0797 10.7533 11.8501 10.7533 10.3263C10.7533 8.80353 9.52282 7.57301 8.00001 7.57301C6.4772 7.57301 5.24668 8.80353 5.24668 10.3263Z" fill="white" stroke="white"/>
</svg>
