<svg width="64" height="64" viewBox="0 0 64 64" fill="none" xmlns="http://www.w3.org/2000/svg">
<path d="M64 18.6667V45.3334C64 48.584 62.816 51.7174 60.6667 54.152C59.688 55.2614 58.0027 55.36 56.904 54.3867C55.7973 53.4107 55.6933 51.7254 56.6667 50.6214C57.9547 49.16 58.6667 47.2827 58.6667 45.3307V18.6667C58.6667 14.256 55.0773 10.6667 50.6667 10.6667H13.3333C8.92267 10.6667 5.33333 14.256 5.33333 18.6667V45.3334C5.33333 49.744 8.92267 53.3334 13.3333 53.3334H29.3333C30.808 53.3334 32 54.528 32 56C32 57.472 30.808 58.6667 29.3333 58.6667H13.3333C5.98133 58.6667 0 52.6854 0 45.3334V18.6667C0 11.3147 5.98133 5.33337 13.3333 5.33337H50.6667C58.0187 5.33337 64 11.3147 64 18.6667ZM16 24H48C49.4747 24 50.6667 22.8054 50.6667 21.3334C50.6667 19.8614 49.4747 18.6667 48 18.6667H16C14.5253 18.6667 13.3333 19.8614 13.3333 21.3334C13.3333 22.8054 14.5253 24 16 24ZM54.6667 42.6667C54.6667 46.0134 53.0853 48.968 50.6667 50.9254V62.2587C50.6667 63.92 48.5573 64.632 47.5493 63.312L44 58.664L40.4507 63.312C39.4427 64.632 37.3333 63.92 37.3333 62.2587V50.9254C34.9147 48.968 33.3333 46.0134 33.3333 42.6667C33.3333 36.784 38.1173 32 44 32C49.8827 32 54.6667 36.784 54.6667 42.6667ZM38.6667 42.6667C38.6667 45.608 41.0587 48 44 48C46.9413 48 49.3333 45.608 49.3333 42.6667C49.3333 39.7254 46.9413 37.3334 44 37.3334C41.0587 37.3334 38.6667 39.7254 38.6667 42.6667ZM32 32C32 30.528 30.808 29.3334 29.3333 29.3334H16C14.5253 29.3334 13.3333 30.528 13.3333 32C13.3333 33.472 14.5253 34.6667 16 34.6667H29.3333C30.808 34.6667 32 33.472 32 32ZM16 40C14.5253 40 13.3333 41.1947 13.3333 42.6667C13.3333 44.1387 14.5253 45.3334 16 45.3334H24C25.4747 45.3334 26.6667 44.1387 26.6667 42.6667C26.6667 41.1947 25.4747 40 24 40H16Z" fill="#14B82C"/>
</svg>
