<svg width="24" height="24" viewBox="0 0 24 24" fill="none" xmlns="http://www.w3.org/2000/svg">
<path d="M16.2977 3.43457C18.2457 2.78525 19.5701 3.04978 20.2626 3.74316C20.9122 4.39375 21.1849 5.6009 20.6854 7.35449L20.5751 7.71289L17.5653 16.7314V16.7324C17.071 18.2176 16.5094 19.2928 15.9364 19.9863C15.3622 20.6813 14.8226 20.9423 14.3602 20.9424C13.8978 20.9424 13.3583 20.6812 12.7841 19.9863C12.2826 19.3793 11.7892 18.48 11.3427 17.2695L11.1542 16.7324L10.2645 14.0527L10.1854 13.8145L9.94714 13.7354L7.26746 12.8457C5.78216 12.3514 4.70714 11.7901 4.01355 11.2178C3.31837 10.6441 3.0575 10.1051 3.0575 9.64355C3.05758 9.18186 3.31914 8.64233 4.01453 8.06738C4.7083 7.49387 5.78329 6.93127 7.26843 6.43457L7.26746 6.43359L16.2977 3.43457ZM16.8134 6.92676C16.3584 6.4718 15.6296 6.44269 15.1405 6.84082L15.0468 6.92676L15.0458 6.92773L11.246 10.7461C10.7608 11.2313 10.7609 12.0284 11.246 12.5137C11.4946 12.7623 11.8144 12.8798 12.1298 12.8799C12.4058 12.8799 12.6848 12.7897 12.9169 12.6006L13.0135 12.5137L13.0145 12.5127L16.8143 8.69238L16.8134 8.69141C17.2976 8.20606 17.2982 7.41169 16.8134 6.92676Z" fill="black" stroke="black"/>
</svg>
