<svg width="24" height="24" viewBox="0 0 24 24" fill="none" xmlns="http://www.w3.org/2000/svg">
<path d="M17.55 7.26883C17.4668 7.26039 17.3833 7.26039 17.3001 7.26883C16.0378 7.20924 15.04 6.16893 15.04 4.89C15.04 3.57502 16.1073 2.5 17.43 2.5C18.7445 2.5 19.8192 3.56642 19.82 4.88843C19.811 6.16964 18.8112 7.20927 17.55 7.26883Z" fill="white" stroke="white"/>
<path d="M20.512 14.2843L20.5118 14.2845C19.6717 14.847 18.5183 15.1264 17.3658 15.0953C17.6062 14.3887 17.7318 13.6353 17.7399 12.8551L17.74 12.8551V12.8499C17.74 12.0323 17.6029 11.2409 17.3352 10.5103C18.5035 10.4745 19.6561 10.7541 20.5035 11.3165L20.5035 11.3165L20.5051 11.3176C21.1906 11.7688 21.4654 12.315 21.4662 12.7971C21.4671 13.2797 21.1938 13.8283 20.512 14.2843Z" fill="white" stroke="white"/>
<path d="M6.66998 7.26883C6.58677 7.26039 6.5033 7.26039 6.42009 7.26883C5.15778 7.20924 4.16003 6.16893 4.16003 4.89C4.16003 3.56501 5.2273 2.5 6.54003 2.5C7.86389 2.5 8.93003 3.56614 8.93003 4.89C8.93003 6.16893 7.93229 7.20924 6.66998 7.26883Z" fill="white" stroke="white"/>
<path d="M3.45674 11.3165L3.45674 11.3165L3.45913 11.3149C4.24936 10.7832 5.33857 10.5017 6.44635 10.5073C6.18615 11.2384 6.05 12.0276 6.05 12.8501C6.05 13.6389 6.17923 14.3979 6.41934 15.1078C5.32727 15.1066 4.25974 14.8212 3.4557 14.293C2.76965 13.8367 2.495 13.2881 2.495 12.8051C2.495 12.3218 2.76993 11.773 3.45674 11.3165Z" fill="white" stroke="white"/>
<path d="M12.1373 15.369C12.0409 15.3601 11.9417 15.3606 11.8449 15.3691C10.2899 15.3019 9.05074 14.0204 9.05005 12.4413C9.05931 10.8146 10.3681 9.5 12 9.5C13.6235 9.5 14.9393 10.8154 14.94 12.4386C14.9309 14.0207 13.6996 15.3009 12.1373 15.369Z" fill="white" stroke="white"/>
<path d="M8.87005 17.9401C7.36005 18.9501 7.36005 20.6101 8.87005 21.6101C10.59 22.7601 13.41 22.7601 15.13 21.6101C16.64 20.6001 16.64 18.9401 15.13 17.9401C13.42 16.7901 10.6 16.7901 8.87005 17.9401Z" fill="white"/>
</svg>
