<svg width="64" height="64" viewBox="0 0 64 64" fill="none" xmlns="http://www.w3.org/2000/svg">
<g clip-path="url(#clip0_4472_48361)">
<path d="M49.549 5.7067L32.8423 0.136032C32.2953 -0.0461577 31.704 -0.0461577 31.157 0.136032L14.4503 5.7067C11.7941 6.58905 9.48345 8.28605 7.84673 10.5566C6.21 12.8271 5.33044 15.5557 5.33301 18.3547V32C5.33301 52.168 29.8663 63.3067 30.917 63.7707C31.2579 63.9221 31.6267 64.0004 31.9997 64.0004C32.3727 64.0004 32.7415 63.9221 33.0823 63.7707C34.133 63.3067 58.6663 52.168 58.6663 32V18.3547C58.6689 15.5557 57.7894 12.8271 56.1526 10.5566C54.5159 8.28605 52.2053 6.58905 49.549 5.7067ZM53.333 32C53.333 46.5467 36.4823 56.088 31.9997 58.3707C27.5117 56.096 10.6663 46.584 10.6663 32V18.3547C10.6665 16.6754 11.1951 15.0388 12.1772 13.6767C13.1593 12.3146 14.5451 11.296 16.1383 10.7654L31.9997 5.47737L47.861 10.7654C49.4542 11.296 50.8401 12.3146 51.8222 13.6767C52.8043 15.0388 53.3329 16.6754 53.333 18.3547V32Z" fill="#14B82C"/>
<path d="M40.8001 22.1333L29.6321 33.3333L23.6481 27.0933C23.408 26.8307 23.1177 26.6189 22.7944 26.4702C22.4711 26.3216 22.1213 26.2391 21.7657 26.2277C21.41 26.2163 21.0557 26.2762 20.7236 26.4039C20.3914 26.5316 20.0882 26.7244 19.8318 26.9711C19.5753 27.2177 19.3708 27.5132 19.2303 27.8402C19.0898 28.1671 19.0162 28.5188 19.0137 28.8746C19.0113 29.2305 19.0801 29.5832 19.216 29.912C19.352 30.2408 19.5524 30.5391 19.8054 30.7893L25.9548 37.1893C26.4134 37.6846 26.9677 38.0818 27.5841 38.3568C28.2006 38.6318 28.8665 38.779 29.5414 38.7893H29.6294C30.2909 38.7915 30.9462 38.6622 31.5574 38.4091C32.1685 38.1559 32.7233 37.7839 33.1894 37.3146L44.5814 25.9226C44.8302 25.6743 45.0277 25.3795 45.1626 25.0549C45.2974 24.7303 45.367 24.3823 45.3674 24.0308C45.3678 23.6793 45.2989 23.3312 45.1647 23.0063C45.0306 22.6814 44.8337 22.3861 44.5854 22.1373C44.3371 21.8885 44.0423 21.691 43.7177 21.5561C43.3931 21.4213 43.0451 21.3517 42.6936 21.3513C42.3421 21.3509 41.994 21.4198 41.6691 21.554C41.3442 21.6882 41.0489 21.885 40.8001 22.1333Z" fill="#14B82C"/>
</g>
<defs>
<clipPath id="clip0_4472_48361">
<rect width="64" height="64" fill="white"/>
</clipPath>
</defs>
</svg>
