<svg width="20" height="20" viewBox="0 0 20 20" fill="none" xmlns="http://www.w3.org/2000/svg">
<path d="M13.9166 15.8168H6.08326C5.73326 15.8168 5.34159 15.5418 5.22492 15.2085L1.77492 5.55846C1.28326 4.17513 1.85826 3.75013 3.04159 4.60013L6.29159 6.92513C6.83326 7.30013 7.44992 7.10846 7.68326 6.50013L9.14992 2.5918C9.61659 1.3418 10.3916 1.3418 10.8583 2.5918L12.3249 6.50013C12.5583 7.10846 13.1749 7.30013 13.7083 6.92513L16.7583 4.75013C18.0583 3.8168 18.6833 4.2918 18.1499 5.80013L14.7833 15.2251C14.6583 15.5418 14.2666 15.8168 13.9166 15.8168Z" stroke="#454545" stroke-width="1.5" stroke-linecap="round" stroke-linejoin="round"/>
<path opacity="0.34" d="M5.41675 18.333H14.5834" stroke="#454545" stroke-width="1.5" stroke-linecap="round" stroke-linejoin="round"/>
<path opacity="0.34" d="M7.91675 11.667H12.0834" stroke="#454545" stroke-width="1.5" stroke-linecap="round" stroke-linejoin="round"/>
</svg>
