<svg width="120" height="121" viewBox="0 0 120 121" fill="none" xmlns="http://www.w3.org/2000/svg">
<path d="M27.9234 106.61C50.9801 106.61 66.8134 118.553 77.9234 118.553C89.0334 118.553 112.367 112.167 112.367 61.0567C112.367 9.94669 80.9767 2.44336 68.7567 2.44336C11.5334 2.44336 -12.9099 106.61 27.9234 106.61Z" fill="#E7E7E7"/>
<path d="M86.3545 7.56738L88.7115 5.21036L93.4256 9.92441L91.0685 12.2814L86.3545 7.56738Z" fill="#FFBF00"/>
<path d="M99.9055 21.124L102.263 18.767L106.977 23.481L104.62 25.8381L99.9055 21.124Z" fill="#FFBF00"/>
<path d="M99.3062 9.91113L104.02 5.19709L106.377 7.55411L101.663 12.2682L99.3062 9.91113Z" fill="#FFBF00"/>
<path d="M90.8333 94.6667H29.1667C25.4833 94.6667 22.5 91.6833 22.5 88V38H97.5V88C97.5 91.6833 94.5167 94.6667 90.8333 94.6667Z" fill="#14B82C"/>
<path d="M97.5 37.9997H22.5V32.9997C22.5 29.3163 25.4833 26.333 29.1667 26.333H90.8333C94.5167 26.333 97.5 29.3163 97.5 32.9997V37.9997Z" fill="#FFBF00"/>
<path d="M43.3334 61.3333C45.6346 61.3333 47.5001 59.4679 47.5001 57.1667C47.5001 54.8655 45.6346 53 43.3334 53C41.0322 53 39.1667 54.8655 39.1667 57.1667C39.1667 59.4679 41.0322 61.3333 43.3334 61.3333Z" fill="#FFBF00"/>
<path d="M76.6667 61.3333C78.9679 61.3333 80.8333 59.4679 80.8333 57.1667C80.8333 54.8655 78.9679 53 76.6667 53C74.3655 53 72.5 54.8655 72.5 57.1667C72.5 59.4679 74.3655 61.3333 76.6667 61.3333Z" fill="#FFBF00"/>
<path d="M36.6667 26.333H29.1667C25.4833 26.333 22.5 29.3163 22.5 32.9997V37.9997H30V32.9997C30 29.3163 32.9833 26.333 36.6667 26.333Z" fill="#E29300"/>
<path d="M46.6667 57.1667C46.6667 56.5333 46.8301 55.95 47.0834 55.4133C46.4167 53.9967 45.0001 53 43.3334 53C41.0334 53 39.1667 54.8667 39.1667 57.1667C39.1667 59.4667 41.0334 61.3333 43.3334 61.3333C45.0001 61.3333 46.4167 60.3367 47.0834 58.92C46.8301 58.3833 46.6667 57.8 46.6667 57.1667Z" fill="#E29300"/>
<path d="M80 57.1667C80 56.5333 80.1633 55.95 80.4167 55.4133C79.75 53.9967 78.3333 53 76.6667 53C74.3667 53 72.5 54.8667 72.5 57.1667C72.5 59.4667 74.3667 61.3333 76.6667 61.3333C78.3333 61.3333 79.75 60.3367 80.4167 58.92C80.1633 58.3833 80 57.8 80 57.1667Z" fill="#E29300"/>
<path d="M30 88V38H22.5V88C22.5 91.6833 25.4833 94.6667 29.1667 94.6667H36.6667C32.9833 94.6667 30 91.6833 30 88Z" fill="#128323"/>
<path d="M43.3334 63.8333C39.6567 63.8333 36.6667 60.8433 36.6667 57.1667C36.6667 53.49 39.6567 50.5 43.3334 50.5C47.0101 50.5 50.0001 53.49 50.0001 57.1667C50.0001 60.8433 47.0101 63.8333 43.3334 63.8333ZM43.3334 55.5C42.4134 55.5 41.6667 56.25 41.6667 57.1667C41.6667 58.0833 42.4134 58.8333 43.3334 58.8333C44.2534 58.8333 45.0001 58.0833 45.0001 57.1667C45.0001 56.25 44.2534 55.5 43.3334 55.5Z" fill="#042F0C"/>
<path d="M76.6667 63.8333C72.99 63.8333 70 60.8433 70 57.1667C70 53.49 72.99 50.5 76.6667 50.5C80.3433 50.5 83.3333 53.49 83.3333 57.1667C83.3333 60.8433 80.3433 63.8333 76.6667 63.8333ZM76.6667 55.5C75.7467 55.5 75 56.25 75 57.1667C75 58.0833 75.7467 58.8333 76.6667 58.8333C77.5867 58.8333 78.3333 58.0833 78.3333 57.1667C78.3333 56.25 77.5867 55.5 76.6667 55.5Z" fill="#042F0C"/>
<path d="M77.6766 87.3703L75.91 85.6036C67.1366 76.8336 52.8633 76.8336 44.09 85.6036L42.3233 87.3703L38.7866 83.8336L40.5533 82.0669C51.2766 71.3436 68.72 71.3436 79.4433 82.0669L81.21 83.8336L77.6766 87.3703Z" fill="#042F0C"/>
<path d="M90.8333 97.1663H29.1667C24.11 97.1663 20 93.0563 20 87.9997V32.9997C20 27.943 24.11 23.833 29.1667 23.833H90.8333C95.89 23.833 100 27.943 100 32.9997V87.9997C100 93.0563 95.89 97.1663 90.8333 97.1663ZM29.1667 28.833C26.87 28.833 25 30.703 25 32.9997V87.9997C25 90.2963 26.87 92.1663 29.1667 92.1663H90.8333C93.13 92.1663 95 90.2963 95 87.9997V32.9997C95 30.703 93.13 28.833 90.8333 28.833H29.1667Z" fill="#042F0C"/>
<path d="M22.5 35.5H97.5V40.5H22.5V35.5Z" fill="#042F0C"/>
<path d="M6.66675 92.167H113.333V97.167H6.66675V92.167Z" fill="#042F0C"/>
</svg>
