<svg width="120" height="120" viewBox="0 0 120 120" fill="none" xmlns="http://www.w3.org/2000/svg">
<path d="M13.89 92.0766C13.89 69.02 1.94666 53.1866 1.94666 42.0766C1.94666 30.9666 8.33332 7.6333 59.4433 7.6333C110.553 7.6333 118.053 39.0233 118.053 51.2433C118.057 108.467 13.89 132.91 13.89 92.0766Z" fill="#FFFBC5"/>
<path d="M23.3333 20.2766C20.5766 20.2766 18.3333 18.0333 18.3333 15.2766C18.3333 12.5199 20.5766 10.2766 23.3333 10.2766C26.09 10.2766 28.3333 12.5199 28.3333 15.2766C28.3333 18.0333 26.09 20.2766 23.3333 20.2766ZM23.3333 13.6099C22.4166 13.6099 21.6666 14.3566 21.6666 15.2766C21.6666 16.1966 22.4166 16.9433 23.3333 16.9433C24.25 16.9433 25 16.1966 25 15.2766C25 14.3566 24.25 13.6099 23.3333 13.6099Z" fill="#14B82C"/>
<path d="M101.015 102.773L103.372 100.416L108.086 105.13L105.729 107.487L101.015 102.773Z" fill="#14B82C"/>
<path d="M86.875 105.127L91.589 100.413L93.9461 102.77L89.232 107.484L86.875 105.127Z" fill="#14B82C"/>
<path d="M100.426 91.5782L105.14 86.8642L107.497 89.2212L102.783 93.9353L100.426 91.5782Z" fill="#14B82C"/>
<path d="M80.8334 51.9667V70.8333C80.8334 72.6667 79.3334 74.1667 77.5 74.1667H42.5C40.6667 74.1667 39.1667 72.6667 39.1667 70.8333V51.9667L57.7 61.6333C59.1334 62.3667 60.8667 62.3667 62.3 61.6333L80.8334 51.9667Z" fill="#FFBF00"/>
<path d="M80.8334 49.1667V51.9667L62.3 61.6334C60.8667 62.3667 59.1334 62.3667 57.7 61.6334L39.1667 51.9667V49.1667C39.1667 47.3334 40.6667 45.8334 42.5 45.8334H77.5C79.3334 45.8334 80.8334 47.3334 80.8334 49.1667Z" fill="#FFBF00"/>
<path d="M46.6667 70.8333V55.88L39.1667 51.9667V70.8333C39.1667 72.6667 40.6667 74.1667 42.5 74.1667H50C48.1667 74.1667 46.6667 72.6667 46.6667 70.8333Z" fill="#E29300"/>
<path d="M46.6667 51.1334V48.3334C46.6667 47.3234 47.1467 46.4467 47.8634 45.8334H42.5C40.6667 45.8334 39.1667 47.3334 39.1667 49.1667V51.9667L57.7 61.6334C59.1334 62.3667 60.8667 62.3667 62.3 61.6334L64.55 60.46L46.6667 51.1334Z" fill="#E29300"/>
<path d="M77.5 76.6667H42.5C39.2834 76.6667 36.6667 74.05 36.6667 70.8334V49.1667C36.6667 45.95 39.2834 43.3334 42.5 43.3334H77.5C80.7167 43.3334 83.3334 45.95 83.3334 49.1667V70.8334C83.3334 74.05 80.7167 76.6667 77.5 76.6667ZM42.5 48.3334C42.04 48.3334 41.6667 48.7067 41.6667 49.1667V70.8334C41.6667 71.2934 42.04 71.6667 42.5 71.6667H77.5C77.96 71.6667 78.3334 71.2934 78.3334 70.8334V49.1667C78.3334 48.7067 77.96 48.3334 77.5 48.3334H42.5Z" fill="#482200"/>
<path d="M60 65.4733C59.1367 65.4733 58.2767 65.28 57.4733 64.8966L38.0867 55.59L40.2467 51.08L59.6367 60.3866C59.87 60.4966 60.1267 60.4966 60.3567 60.3866L79.75 51.08L81.91 55.59L62.52 64.8966C61.7233 65.28 60.8633 65.4733 60 65.4733Z" fill="#482200"/>
<path d="M60 100C37.9433 100 20 82.0567 20 60C20 37.9433 37.9433 20 60 20C73.18 20 85.52 26.51 93.0067 37.41L88.8867 40.2433C82.33 30.6967 71.5333 25 60 25C40.7 25 25 40.7 25 60C25 79.3 40.7 95 60 95C79.3 95 95 79.3 95 60H100C100 82.0567 82.0567 100 60 100Z" fill="#482200"/>
<path d="M90.8334 41.6667H79.1667V36.6667H88.3334V27.5H93.3334V39.1667C93.3334 40.5467 92.2134 41.6667 90.8334 41.6667Z" fill="#482200"/>
</svg>
