<svg width="121" height="121" viewBox="0 0 121 121" fill="none" xmlns="http://www.w3.org/2000/svg">
<path d="M3.84338 48.203C14.6867 68.5497 11.59 88.1397 16.8134 97.9464C22.0367 107.753 38.6501 125.34 83.7567 101.306C128.863 77.273 120.723 46.043 114.973 35.2564C88.0667 -15.247 -15.36 12.1664 3.84338 48.203Z" fill="#FFFBC5"/>
<path d="M60.5 98C81.2107 98 98 81.2107 98 60.5C98 39.7893 81.2107 23 60.5 23C39.7893 23 23 39.7893 23 60.5C23 81.2107 39.7893 98 60.5 98Z" fill="#FFBF00"/>
<path d="M30.5 60.5C30.5 41.0567 45.3 25.07 64.25 23.19C63.0167 23.0667 61.7667 23 60.5 23C39.79 23 23 39.79 23 60.5C23 81.21 39.79 98 60.5 98C61.7667 98 63.0167 97.9333 64.25 97.81C45.3 95.93 30.5 79.9433 30.5 60.5Z" fill="#E29300"/>
<path d="M60.4998 43.8327C62.3408 43.8327 63.8332 42.3403 63.8332 40.4993C63.8332 38.6584 62.3408 37.166 60.4998 37.166C58.6589 37.166 57.1665 38.6584 57.1665 40.4993C57.1665 42.3403 58.6589 43.8327 60.4998 43.8327Z" fill="#FFFFEA"/>
<path d="M86.2993 16.707L88.6563 14.35L93.3704 19.0641L91.0134 21.4211L86.2993 16.707Z" fill="#14B82C"/>
<path d="M99.8447 30.2559L102.202 27.8988L106.916 32.6129L104.559 34.9699L99.8447 30.2559Z" fill="#14B82C"/>
<path d="M99.2651 19.0771L103.979 14.3631L106.336 16.7201L101.622 21.4342L99.2651 19.0771Z" fill="#14B82C"/>
<path d="M60.5 45.5C57.7433 45.5 55.5 43.2567 55.5 40.5C55.5 37.7433 57.7433 35.5 60.5 35.5C63.2567 35.5 65.5 37.7433 65.5 40.5C65.5 43.2567 63.2567 45.5 60.5 45.5ZM60.5 38.8333C59.5833 38.8333 58.8333 39.58 58.8333 40.5C58.8333 41.42 59.5833 42.1667 60.5 42.1667C61.4167 42.1667 62.1667 41.42 62.1667 40.5C62.1667 39.58 61.4167 38.8333 60.5 38.8333Z" fill="#482200"/>
<path d="M62.9998 81.3333H57.9998V55.5H54.6665V50.5H60.4998C61.8798 50.5 62.9998 51.62 62.9998 53V81.3333Z" fill="#482200"/>
<path d="M60.5 100.5C38.4433 100.5 20.5 82.5567 20.5 60.5C20.5 38.4433 38.4433 20.5 60.5 20.5C82.5567 20.5 100.5 38.4433 100.5 60.5C100.5 82.5567 82.5567 100.5 60.5 100.5ZM60.5 25.5C41.2 25.5 25.5 41.2 25.5 60.5C25.5 79.8 41.2 95.5 60.5 95.5C79.8 95.5 95.5 79.8 95.5 60.5C95.5 41.2 79.8 25.5 60.5 25.5Z" fill="#482200"/>
<path d="M53 78.833H68V83.833H53V78.833Z" fill="#482200"/>
</svg>
