<svg width="120" height="120" viewBox="0 0 120 120" fill="none" xmlns="http://www.w3.org/2000/svg">
<path d="M106.11 27.9233C106.11 50.98 118.053 66.8133 118.053 77.9233C118.053 89.0333 111.667 112.367 60.5567 112.367C9.44669 112.367 1.94336 80.9767 1.94336 68.7567C1.94336 11.5333 106.11 -12.91 106.11 27.9233Z" fill="#F0FDF1"/>
<path d="M105 13.778C106.171 13.778 107.111 12.8374 107.111 11.6667C107.111 10.496 106.171 9.55534 105 9.55534M105 13.778V13.3337M105 13.778V13.3337M105 13.778C103.829 13.778 102.889 12.8374 102.889 11.6667C102.889 10.496 103.829 9.55534 105 9.55534M105 13.3337C105.859 13.3337 106.572 12.6742 106.658 11.8366L106.667 11.6667C106.667 10.75 105.917 9.99967 105 9.99967M105 13.3337C104.083 13.3337 103.333 12.5833 103.333 11.6667C103.333 10.75 104.083 9.99967 105 9.99967M105 9.99967V9.55534M105 9.99967V9.55534" fill="#FFBF00" stroke="#FFBF00" stroke-width="14.2222"/>
<path d="M97 38V87.5C97 90.9072 94.2402 93.667 90.833 93.667H29.167C25.7598 93.667 23 90.9072 23 87.5V38H97Z" fill="#F6F6F6" stroke="black"/>
<path d="M97.5 37.5H22.5V32.5C22.5 28.8167 25.4833 25.8333 29.1667 25.8333H90.8333C94.5167 25.8333 97.5 28.8167 97.5 32.5V37.5Z" fill="#14B82C"/>
<path d="M30.8333 87.5V37.5H22.5V87.5C22.5 91.1833 25.4833 94.1667 29.1667 94.1667H37.5C33.8167 94.1667 30.8333 91.1833 30.8333 87.5Z" fill="#D5DBE1"/>
<path d="M36.6667 25.8333H29.1667C25.4833 25.8333 22.5 28.8167 22.5 32.5V37.5H30V32.5C30 28.8167 32.9833 25.8333 36.6667 25.8333Z" fill="#128323"/>
<path d="M46.6667 70H41.6667V55C41.6667 53.16 40.1733 51.6667 38.3333 51.6667C36.4933 51.6667 35 53.16 35 55V70H30V55C30 50.4033 33.7367 46.6667 38.3333 46.6667C42.93 46.6667 46.6667 50.4033 46.6667 55V70Z" fill="#042F0C"/>
<path d="M32.5 58.3333H44.1667V63.3333H32.5V58.3333Z" fill="#042F0C"/>
<path d="M70 66.68H90V71.68H70V66.68Z" fill="#042F0C"/>
<path d="M74.1667 86.6667H70V81.6667H74.1667C78.3 81.6667 81.6667 78.3 81.6667 74.1667V66.68H86.6667V74.1667C86.6667 81.0567 81.0567 86.6667 74.1667 86.6667Z" fill="#042F0C"/>
<path d="M90.0001 86.6667H87.5001C82.2501 86.6667 77.4034 83.5933 74.8468 78.65L73.6968 76.4267L78.1401 74.1333L79.2868 76.3533C80.9834 79.63 84.1268 81.67 87.5001 81.67H90.0001V86.6667Z" fill="#042F0C"/>
<path d="M77.5 62.5H82.5V70.8467H77.5V62.5Z" fill="#042F0C"/>
<path d="M40.7209 82.3974L75.7151 47.4033L79.2501 50.9383L44.2559 85.9324L40.7209 82.3974Z" fill="#042F0C"/>
<path d="M90.8333 96.6667H29.1667C24.11 96.6667 20 92.5567 20 87.5V32.5C20 27.4433 24.11 23.3333 29.1667 23.3333H90.8333C95.89 23.3333 100 27.4433 100 32.5V87.5C100 92.5567 95.89 96.6667 90.8333 96.6667ZM29.1667 28.3333C26.87 28.3333 25 30.2033 25 32.5V87.5C25 89.7967 26.87 91.6667 29.1667 91.6667H90.8333C93.13 91.6667 95 89.7967 95 87.5V32.5C95 30.2033 93.13 28.3333 90.8333 28.3333H29.1667Z" fill="#042F0C"/>
<path d="M22.5 35H97.5V40H22.5V35Z" fill="#042F0C"/>
<path d="M6.66675 91.6667H113.333V96.6667H6.66675V91.6667Z" fill="#042F0C"/>
</svg>
