<svg width="24" height="24" viewBox="0 0 24 24" fill="none" xmlns="http://www.w3.org/2000/svg">
<path d="M5.01953 2.5H8.92969C9.89301 2.5 10.5088 2.73344 10.8818 3.10645C11.2059 3.43079 11.4154 3.92972 11.4473 4.67383L11.4502 5.00781V8.94238C11.4734 9.9038 11.2496 10.5132 10.8818 10.8818C10.5603 11.2041 10.0561 11.415 9.29492 11.4473L8.95215 11.4502H5.00781C4.07555 11.4733 3.47619 11.2516 3.10547 10.8818C2.73282 10.5099 2.50007 9.89766 2.5 8.94043V5.01953C2.50008 4.08561 2.73147 3.48142 3.10645 3.10645C3.48142 2.73147 4.08561 2.50008 5.01953 2.5ZM6.96973 3.91992C6.47802 3.92003 6.07012 4.20144 5.86621 4.59961H4.94043C4.25442 4.59961 3.69064 5.16364 3.69043 5.84961C3.69043 6.53575 4.25429 7.09961 4.94043 7.09961H6.29102C5.95764 7.50867 5.47293 7.75963 4.94043 7.75977C4.25437 7.75977 3.69056 8.32373 3.69043 9.00977C3.69043 9.69591 4.25429 10.2598 4.94043 10.2598C5.73091 10.2597 6.46751 10.0324 7.10156 9.64941C7.66881 10.0363 8.32464 10.2597 9.00977 10.2598C9.69591 10.2598 10.2598 9.69591 10.2598 9.00977C10.2596 8.32373 9.69583 7.75977 9.00977 7.75977C8.94758 7.75974 8.88447 7.74841 8.81836 7.73047C8.91418 7.52754 8.99739 7.3164 9.0625 7.09668C9.73285 7.06403 10.25 6.51096 10.25 5.84961C10.2498 5.16364 9.68601 4.59961 9 4.59961H8.07324C7.86925 4.20148 7.46146 3.91992 6.96973 3.91992Z" fill="white" stroke="white"/>
<path d="M2 14.75C2.13386 14.75 2.25 14.8661 2.25 15C2.25 18.1981 4.47564 20.8755 7.46582 21.5771L8.61719 21.8467L8.00879 20.833L7.74121 20.3877H7.74219C7.67448 20.2715 7.70143 20.1427 7.7832 20.0693L7.82227 20.042L7.82715 20.0391C7.93099 19.9768 8.06428 20.0011 8.13965 20.083L8.16797 20.1221L8.1709 20.127L9.22168 21.877L9.22266 21.8799C9.26437 21.9484 9.26642 22.0399 9.22754 22.1152C9.17166 22.2024 9.08198 22.25 9 22.25C5.00614 22.25 1.75 18.9939 1.75 15C1.75 14.8661 1.86614 14.75 2 14.75Z" fill="white" stroke="white"/>
<path d="M15 1.75C18.9939 1.75 22.25 5.00614 22.25 9C22.25 9.13386 22.1339 9.25 22 9.25C21.8663 9.24975 21.75 9.13372 21.75 9C21.75 5.80193 19.5244 3.12452 16.5342 2.42285L15.3828 2.15332L15.9912 3.16699L16.2578 3.6123H16.2588C16.3264 3.72857 16.2987 3.85737 16.2168 3.93066L16.1787 3.95801L16.1729 3.96094C16.0689 4.02322 15.9357 3.99909 15.8604 3.91699L15.832 3.87793L15.8291 3.87305L14.7793 2.12305L14.7773 2.12012L14.7529 2.0625C14.7369 2.00438 14.7423 1.93879 14.7715 1.88281C14.8273 1.79628 14.9184 1.75016 15 1.75Z" fill="white" stroke="white"/>
<path d="M16.9199 12.3496C19.4537 12.3497 21.5 14.3959 21.5 16.9297C21.5 19.4628 19.4444 21.5097 16.9199 21.5098C14.3867 21.5098 12.3399 19.4542 12.3398 16.9297C12.3398 14.3965 14.3954 12.3496 16.9199 12.3496ZM16.9297 13.1396C16.5187 13.1397 16.1385 13.3436 15.9062 13.6709L15.8164 13.8193L15.8125 13.8252L13.6729 18.0957L13.6699 18.1006C13.3889 18.6783 13.5918 19.3687 14.1211 19.7109L14.2314 19.7744L14.2363 19.7764C14.4008 19.8586 14.5971 19.9092 14.79 19.9092C15.2363 19.9091 15.6869 19.6641 15.9072 19.2236L15.9395 19.1592H17.9102L17.9424 19.2236C18.2392 19.8169 18.9181 20.0551 19.5029 19.8389L19.6182 19.7891L19.6279 19.7842C20.2001 19.4904 20.4566 18.8182 20.2393 18.2275L20.1895 18.1113L20.1865 18.1055L18.0469 13.8359C17.8336 13.4095 17.4022 13.1396 16.9297 13.1396Z" fill="white" stroke="white"/>
<mask id="path-5-inside-1_4804_6992" fill="white">
<path d="M16.3809 17.1603H17.4709L16.9209 16.0703L16.3809 17.1603Z"/>
</mask>
<path d="M16.3809 17.1603H17.4709L16.9209 16.0703L16.3809 17.1603Z" fill="white"/>
<path d="M16.3809 17.1603L15.4848 16.7164L14.7695 18.1603H16.3809V17.1603ZM17.4709 17.1603V18.1603H19.0955L18.3636 16.7098L17.4709 17.1603ZM16.9209 16.0703L17.8136 15.6198L16.9127 13.8342L16.0248 15.6264L16.9209 16.0703ZM16.3809 17.1603V18.1603H17.4709V17.1603V16.1603H16.3809V17.1603ZM17.4709 17.1603L18.3636 16.7098L17.8136 15.6198L16.9209 16.0703L16.0281 16.5208L16.5781 17.6108L17.4709 17.1603ZM16.9209 16.0703L16.0248 15.6264L15.4848 16.7164L16.3809 17.1603L17.2769 17.6042L17.8169 16.5142L16.9209 16.0703Z" fill="white" mask="url(#path-5-inside-1_4804_6992)"/>
</svg>
