<svg width="16" height="17" viewBox="0 0 16 17" fill="none" xmlns="http://www.w3.org/2000/svg">
<g clip-path="url(#clip0_1353_15081)">
<path d="M11.6718 5.61926C11.3384 5.25523 10.82 4.76389 10.5995 5.87332C10.5245 6.25054 10.3493 6.54133 10.1991 6.77545C10.0373 5.95633 9.55032 5.10848 9.09151 4.53683C8.91982 4.32295 8.31064 3.47273 8.1936 2.05036C8.17614 1.83808 7.92398 1.73839 7.76626 1.88158C6.25901 3.24983 5.4317 5.13164 5.40098 7.25017C5.40098 7.25017 4.77336 6.72114 4.43239 5.73695C4.34057 5.47192 3.98526 5.42136 3.8311 5.6557C3.80151 5.7007 3.77407 5.74576 3.74932 5.78951C2.58642 7.84576 2.02701 10.3428 2.54417 12.6659C3.40885 16.5564 9.12867 17.6441 12.1568 15.1989C15.1194 12.8065 14.1777 8.3537 11.6718 5.61926Z" fill="#ED694A"/>
<path d="M3.34907 12.9102C2.83792 10.5622 3.37898 8.04087 4.51457 5.95243C4.48585 5.88315 4.45823 5.81149 4.43242 5.73699C4.3406 5.47196 3.98529 5.4214 3.83113 5.65574C3.80154 5.70074 3.77413 5.7458 3.74938 5.78955C2.58648 7.8458 2.02707 10.3428 2.54423 12.666C2.93863 14.4405 4.34326 15.6316 6.04173 16.1706C4.71673 15.5288 3.6791 14.4285 3.34907 12.9102Z" fill="#EC3B16"/>
<path d="M6.20985 7.21138C6.27263 5.28866 6.96806 3.5646 8.21275 2.24016C8.20419 2.16722 8.19784 2.102 8.19375 2.0525C8.17591 1.83841 7.93297 1.73103 7.77594 1.87297C6.32016 3.18916 5.43284 5.05194 5.401 7.25031L5.67347 7.46191C5.80766 7.56613 5.98947 7.5616 6.11763 7.46613C6.19409 7.40131 6.20506 7.3035 6.20985 7.21138Z" fill="#EC3B16"/>
<path d="M10.7576 8.46267C10.5113 8.1938 10.1284 7.83086 9.96553 8.65033C9.91015 8.92892 9.78069 9.14374 9.66984 9.31667C9.55031 8.71164 9.19062 8.08539 8.85175 7.66317C8.72494 7.5052 8.275 6.87724 8.18853 5.82658C8.17562 5.66977 7.9894 5.59617 7.8729 5.70192C6.75962 6.71252 6.14853 8.10252 6.12587 9.66727C6.12587 9.66727 5.66228 9.27652 5.41047 8.54958C5.34265 8.35383 5.08019 8.31649 4.96634 8.48958C4.9445 8.5228 4.92422 8.55611 4.90594 8.58842C4.04697 10.1072 3.63378 11.9515 4.01575 13.6675C4.65444 16.5411 8.87919 17.3445 11.1158 15.5384C13.3041 13.7713 12.6085 10.4824 10.7576 8.46267Z" fill="#F5970E"/>
<path d="M4.81234 13.8929C4.47416 12.2155 4.82444 10.4157 5.56709 8.91695C5.5105 8.80614 5.45687 8.68364 5.41044 8.54964C5.34262 8.35389 5.08016 8.31651 4.96631 8.4896C4.94447 8.52282 4.92419 8.55613 4.90591 8.58848C4.04697 10.1073 3.63381 11.9516 4.01572 13.6675C4.31278 15.004 5.38562 15.8924 6.67325 16.279C5.7584 15.8202 5.03809 15.0141 4.81234 13.8929Z" fill="#D67A00"/>
<path d="M9.92295 11.0597C9.75627 10.8777 9.49702 10.6319 9.38677 11.1867C9.3493 11.3753 9.26164 11.5207 9.18658 11.6377C9.10564 11.2282 8.8622 10.8042 8.63276 10.5184C8.54695 10.4115 8.24236 9.9864 8.1838 9.27518C8.17505 9.16903 8.04902 9.11918 7.97014 9.19081C7.21651 9.87493 6.80286 10.8159 6.78751 11.8751C6.78751 11.8751 6.47367 11.6106 6.30323 11.1185C6.25733 10.986 6.07967 10.9607 6.00261 11.0779C5.9878 11.1003 5.97411 11.1229 5.9617 11.1448C5.38026 12.1729 5.10055 13.4214 5.35911 14.583C5.79145 16.5283 8.65136 17.0721 10.1654 15.8495C10.6839 15.4308 11.0053 14.8408 11.0705 14.1882C11.1689 13.1998 10.7885 12.0042 9.92295 11.0597Z" fill="#F4D44E"/>
<path d="M9.14842 13.4691C9.05555 13.3677 8.91114 13.2308 8.84971 13.5398C8.82883 13.6449 8.78002 13.7259 8.73817 13.7911C8.69308 13.563 8.55746 13.3268 8.42964 13.1675C8.38183 13.108 8.21211 12.8711 8.17949 12.4749C8.17461 12.4157 8.10436 12.388 8.06046 12.4279C7.64061 12.809 7.41011 13.3332 7.40158 13.9234C7.40158 13.9234 7.22674 13.776 7.13177 13.5018C7.10617 13.428 7.00721 13.4139 6.9643 13.4792C6.95605 13.4917 6.94842 13.5043 6.94155 13.5165C6.61761 14.0893 6.46177 14.7849 6.60583 15.432C6.93389 16.908 9.62289 16.8632 9.78783 15.212C9.84258 14.6614 9.63064 13.9953 9.14842 13.4691Z" fill="#EAE9E8"/>
<path d="M7.23011 15.7249C7.08605 15.146 7.24189 14.5238 7.56583 14.0114C7.57271 14.0005 7.58036 13.9893 7.58858 13.978C7.63152 13.9196 7.73049 13.9322 7.75605 13.9983C7.85102 14.2435 8.02586 14.3754 8.02586 14.3754C8.03289 13.9416 8.19002 13.5479 8.47861 13.232C8.41408 13.1427 8.21664 12.9272 8.17943 12.4749C8.17455 12.4157 8.1043 12.388 8.0604 12.4279C7.64055 12.809 7.41005 13.3332 7.40152 13.9234C7.40152 13.9234 7.22668 13.776 7.13171 13.5019C7.10614 13.428 7.00714 13.4139 6.96424 13.4792C6.95599 13.4918 6.94836 13.5043 6.94149 13.5165C6.61755 14.0893 6.46171 14.7849 6.60577 15.432C6.73908 16.0319 7.28677 16.3924 7.89227 16.4794C7.56564 16.319 7.31461 16.065 7.23011 15.7249Z" fill="#F7E7A1"/>
<path d="M5.76868 2.62641C6.44446 2.07675 6.44296 1.04841 5.76868 0.5C5.09289 1.04962 5.09436 2.078 5.76868 2.62641Z" fill="#EC3B16"/>
<path d="M13.8685 7.03754C14.5443 6.48788 14.5428 5.45954 13.8685 4.91113C13.5596 5.16232 13.1942 6.48913 13.8685 7.03754Z" fill="#EC3B16"/>
<path d="M1.89952 7.45636C2.38655 7.0602 2.38549 6.31911 1.89952 5.92383C1.67693 6.10486 1.41355 7.06111 1.89952 7.45636Z" fill="#EC3B16"/>
<path d="M10.3347 4.15851C10.8217 3.76235 10.8206 3.02126 10.3347 2.62598C9.84762 3.0221 9.84871 3.76326 10.3347 4.15851Z" fill="#EC3B16"/>
<path d="M6.7472 9.41595C6.85904 8.09558 7.36326 6.92155 8.20989 6.02652C8.20132 5.96164 8.19411 5.89505 8.18848 5.82658C8.17558 5.66977 7.98936 5.59617 7.87286 5.70192C6.99067 6.50274 6.42448 7.54198 6.21592 8.71745L6.21561 8.71736C6.20014 8.80455 6.18095 8.93155 6.16882 9.03133C6.16886 9.03142 6.16889 9.03148 6.16895 9.03158C6.14361 9.23983 6.12892 9.45183 6.12579 9.6673C6.14936 9.67189 6.68273 9.94605 6.7472 9.41595Z" fill="#D67A00"/>
<path d="M6.13845 14.859C5.90861 13.7738 6.10436 12.6166 6.55911 11.614C6.47101 11.4904 6.37461 11.3245 6.30326 11.1185C6.25733 10.986 6.0797 10.9607 6.00261 11.0779C5.98783 11.1003 5.97408 11.1229 5.9617 11.1448C5.38026 12.1729 5.10055 13.4214 5.35911 14.583C5.56161 15.494 6.29651 16.0976 7.17623 16.3564C6.66417 16.0165 6.27683 15.5133 6.13845 14.859Z" fill="#FFD834"/>
<path d="M7.61725 11.4009C7.69344 10.8564 7.91616 10.2564 8.26675 9.75481C8.22857 9.61318 8.19853 9.45315 8.18388 9.27518C8.17513 9.16903 8.04907 9.11918 7.97022 9.19081C7.50066 9.61709 7.16363 10.1433 6.97216 10.7354L6.97166 10.7353C6.94153 10.8283 6.89894 10.9825 6.87313 11.1041C6.87335 11.1041 6.87357 11.1041 6.87378 11.104C6.82091 11.3522 6.7915 11.6098 6.78766 11.8751C7.20928 11.9277 7.55807 11.8233 7.61725 11.4009Z" fill="#FFD834"/>
</g>
<defs>
<clipPath id="clip0_1353_15081">
<rect width="16" height="16" fill="white" transform="translate(0 0.5)"/>
</clipPath>
</defs>
</svg>
