<svg width="120" height="120" viewBox="0 0 120 120" fill="none" xmlns="http://www.w3.org/2000/svg">
<path d="M44.7032 116.663C65.6965 107.133 85.0532 111.467 95.1699 106.877C105.287 102.283 123.893 86.8233 102.77 40.2833C81.6465 -6.25669 49.9665 -0.11669 38.8365 4.93331C-13.2701 28.5833 7.51987 133.54 44.7032 116.663Z" fill="#FFFBC5"/>
<path d="M82.5 97.5H37.5C34.74 97.5 32.5 95.26 32.5 92.5V57.5C32.5 54.74 34.74 52.5 37.5 52.5H82.5C85.26 52.5 87.5 54.74 87.5 57.5V92.5C87.5 95.26 85.26 97.5 82.5 97.5Z" fill="#FFBF00"/>
<path d="M40 92.5V57.5C40 54.74 42.24 52.5 45 52.5H37.5C34.74 52.5 32.5 54.74 32.5 57.5V92.5C32.5 95.26 34.74 97.5 37.5 97.5H45C42.24 97.5 40 95.26 40 92.5Z" fill="#E29300"/>
<path d="M101.667 45.8667C98.9103 45.8667 96.667 43.6234 96.667 40.8667C96.667 38.11 98.9103 35.8667 101.667 35.8667C104.424 35.8667 106.667 38.11 106.667 40.8667C106.667 43.6234 104.424 45.8667 101.667 45.8667ZM101.667 39.2C100.747 39.2 100 39.9467 100 40.8667C100 41.7867 100.747 42.5334 101.667 42.5334C102.587 42.5334 103.334 41.7867 103.334 40.8667C103.334 39.9467 102.587 39.2 101.667 39.2Z" fill="#14B82C"/>
<path d="M15.8081 45.3768L18.1651 43.0198L22.8792 47.7339L20.5222 50.0909L15.8081 45.3768Z" fill="#14B82C"/>
<path d="M15.2163 61.2861L19.9304 56.5721L22.2874 58.9291L17.5733 63.6432L15.2163 61.2861Z" fill="#14B82C"/>
<path d="M82.5 100H37.5C33.3633 100 30 96.6367 30 92.5V57.5C30 53.3633 33.3633 50 37.5 50H82.5C86.6367 50 90 53.3633 90 57.5V92.5C90 96.6367 86.6367 100 82.5 100ZM37.5 55C36.12 55 35 56.12 35 57.5V92.5C35 93.88 36.12 95 37.5 95H82.5C83.88 95 85 93.88 85 92.5V57.5C85 56.12 83.88 55 82.5 55H37.5Z" fill="#482200"/>
<path d="M80 52.5H75V40C75 31.73 68.27 25 60 25C51.73 25 45 31.73 45 40V52.5H40V40C40 28.97 48.97 20 60 20C71.03 20 80 28.97 80 40V52.5Z" fill="#482200"/>
</svg>
