<svg width="24" height="25" viewBox="0 0 24 25" fill="none" xmlns="http://www.w3.org/2000/svg">
<path d="M19.6654 11.0408L16.4138 9.16284L13.085 12.4916L16.4136 15.8202L19.6764 13.936C20.1852 13.6268 20.4888 13.0868 20.4888 12.4916C20.4888 11.8964 20.185 11.3564 19.6654 11.0408Z" fill="#FFCE00"/>
<path d="M13.085 12.4916L4.01808 3.35938C3.70272 3.67474 3.5112 4.10265 3.5112 4.57569V20.3797C3.5112 20.8527 3.70272 21.2807 4.01808 21.5963L13.085 12.4916Z" fill="url(#paint0_linear_757_22191)"/>
<path d="M13.085 12.4917L16.4138 9.16291L16.4191 9.15763L11.959 6.58963L6.07944 3.13411C5.55 2.80747 4.908 2.79619 4.36728 3.10027C4.24344 3.17899 4.13064 3.25795 4.01808 3.35923L13.085 12.4917Z" fill="#00F076"/>
<path d="M4.01808 21.5961C4.13064 21.6974 4.24344 21.7763 4.36728 21.8551C4.63752 22.0015 4.91928 22.0804 5.2008 22.0804C5.50488 22.0804 5.79768 21.9904 6.06816 21.8327L11.9587 18.3938L16.4189 15.8258L16.4136 15.8205L13.085 12.4917L4.01808 21.5961Z" fill="#F63448"/>
<defs>
<linearGradient id="paint0_linear_757_22191" x1="-0.54096" y1="17.037" x2="8.57736" y2="7.91842" gradientUnits="userSpaceOnUse">
<stop stop-color="#00E2FF"/>
<stop offset="1" stop-color="#00C5FF"/>
</linearGradient>
</defs>
</svg>
