<svg width="25" height="25" viewBox="0 0 25 25" fill="none" xmlns="http://www.w3.org/2000/svg">
<g clip-path="url(#clip0_757_22174)">
<path d="M17.1186 0.480469C17.1745 0.480469 17.2303 0.480469 17.2894 0.480469C17.4264 2.173 16.7803 3.43765 15.9952 4.35348C15.2248 5.26297 14.1699 6.14507 12.4636 6.01123C12.3498 4.34294 12.9969 3.17208 13.781 2.25836C14.5082 1.40683 15.8413 0.649089 17.1186 0.480469Z" fill="white"/>
<path d="M22.2837 18.0971C22.2837 18.114 22.2837 18.1287 22.2837 18.1445C21.8042 19.5968 21.1202 20.8414 20.2855 21.9965C19.5236 23.0451 18.5898 24.4562 16.9226 24.4562C15.482 24.4562 14.525 23.5298 13.0485 23.5046C11.4867 23.4793 10.6278 24.2792 9.19978 24.4804C9.03642 24.4804 8.87307 24.4804 8.71288 24.4804C7.66427 24.3287 6.81801 23.4982 6.20149 22.75C4.38354 20.5389 2.97872 17.6829 2.71736 14.0281C2.71736 13.6697 2.71736 13.3125 2.71736 12.9542C2.82802 10.3384 4.099 8.21171 5.78837 7.18101C6.67995 6.63299 7.90561 6.16613 9.27038 6.37479C9.85529 6.46543 10.4528 6.66566 10.9766 6.86379C11.473 7.05455 12.0937 7.39284 12.6818 7.37493C13.0802 7.36333 13.4764 7.15572 13.8779 7.00923C15.0541 6.58452 16.207 6.09762 17.7267 6.32631C19.5531 6.60243 20.8494 7.41392 21.6503 8.66593C20.1053 9.6492 18.8839 11.131 19.0925 13.6613C19.278 15.9598 20.6143 17.3046 22.2837 18.0971Z" fill="white"/>
</g>
<defs>
<clipPath id="clip0_757_22174">
<rect width="24" height="24" fill="white" transform="translate(0.5 0.480469)"/>
</clipPath>
</defs>
</svg>
