<svg width="22" height="22" viewBox="0 0 22 22" fill="none" xmlns="http://www.w3.org/2000/svg">
<g clip-path="url(#clip0_842_21288)">
<path d="M6.41667 12.8333C8.43883 12.8333 10.0833 11.1888 10.0833 9.16667C10.0833 7.1445 8.43883 5.5 6.41667 5.5C4.3945 5.5 2.75 7.1445 2.75 9.16667C2.75 11.1888 4.3945 12.8333 6.41667 12.8333ZM6.41667 7.33333C7.42775 7.33333 8.25 8.15558 8.25 9.16667C8.25 10.1778 7.42775 11 6.41667 11C5.40558 11 4.58333 10.1778 4.58333 9.16667C4.58333 8.15558 5.40558 7.33333 6.41667 7.33333ZM12.8333 21.0833C12.8333 21.5903 12.4227 22 11.9167 22C11.4107 22 11 21.5903 11 21.0833C11 18.5561 8.94392 16.5 6.41667 16.5C3.88942 16.5 1.83333 18.5561 1.83333 21.0833C1.83333 21.5903 1.42267 22 0.916667 22C0.410667 22 0 21.5903 0 21.0833C0 17.5459 2.87833 14.6667 6.41667 14.6667C9.955 14.6667 12.8333 17.5459 12.8333 21.0833ZM22 4.58333V11.9167C22 14.4439 19.9439 16.5 17.4167 16.5H13.75C13.244 16.5 12.8333 16.0903 12.8333 15.5833V13.75C12.8333 13.2431 13.244 12.8333 13.75 12.8333H16.5C17.006 12.8333 17.4167 13.2431 17.4167 13.75V14.6667C18.9328 14.6667 20.1667 13.4328 20.1667 11.9167V4.58333C20.1667 3.06717 18.9328 1.83333 17.4167 1.83333H8.67625C7.69725 1.83333 6.78425 2.36042 6.29383 3.20925C6.03992 3.64742 5.47983 3.79867 5.04167 3.54292C4.60258 3.28992 4.45317 2.72892 4.70708 2.29075C5.52475 0.878167 7.0455 0 8.67717 0H17.4176C19.9448 0 22 2.05608 22 4.58333Z" fill="#042F0C" stroke="#E6FDE9" stroke-width="0.25"/>
</g>
<defs>
<clipPath id="clip0_842_21288">
<rect width="22" height="22" fill="white"/>
</clipPath>
</defs>
</svg>
