<svg width="22" height="22" viewBox="0 0 22 22" fill="none" xmlns="http://www.w3.org/2000/svg">
<g clip-path="url(#clip0_3225_26223)">
<path d="M12.8333 21.0833C12.8333 21.5893 12.4227 22 11.9167 22H0.916667C0.410667 22 0 21.5893 0 21.0833C0 17.5395 2.87283 14.6667 6.41667 14.6667C9.9605 14.6667 12.8333 17.5395 12.8333 21.0833ZM6.41667 5.5C4.39175 5.5 2.75 7.14175 2.75 9.16667C2.75 11.1916 4.39175 12.8333 6.41667 12.8333C8.44158 12.8333 10.0833 11.1916 10.0833 9.16667C10.0833 7.14175 8.44158 5.5 6.41667 5.5ZM22 4.58333V11.9167C22 14.4476 19.9476 16.5 17.4167 16.5H13.2678C12.4016 15.2112 11.1824 14.1781 9.74875 13.5419C11.066 12.5373 11.9167 10.9514 11.9167 9.16667C11.9167 6.12883 9.4545 3.66667 6.41667 3.66667C5.423 3.66667 4.48983 3.93067 3.68592 4.39175C3.78858 1.95525 5.78875 0 8.25 0H17.4167C19.9476 0 22 2.05242 22 4.58333ZM18.3333 13.75C18.3333 13.2431 17.9227 12.8333 17.4167 12.8333H14.2083C13.7023 12.8333 13.2917 13.2431 13.2917 13.75C13.2917 14.2569 13.7023 14.6667 14.2083 14.6667H17.4167C17.9227 14.6667 18.3333 14.2569 18.3333 13.75Z" fill="white"/>
</g>
<defs>
<clipPath id="clip0_3225_26223">
<rect width="22" height="22" fill="white"/>
</clipPath>
</defs>
</svg>
