<svg width="265" height="40" viewBox="0 0 265 40" fill="none" xmlns="http://www.w3.org/2000/svg">
<path d="M264.318 11.6992V39.3096H253.439V34.2707C251.884 37.9291 249.242 39.8618 245.706 39.9999C238.984 39.9999 235.177 34.892 235.177 25.8496V11.6992H246.056V20.3965C246.056 25.8496 247.3 28.9557 249.514 28.9557C251.379 28.9557 252.739 26.8159 253.439 22.8814V11.6992H264.318Z" fill="#FFECB2"/>
<path d="M231.674 11.6992V39.3096H220.795V34.2707C219.241 37.9291 216.598 39.8618 213.063 39.9999C206.341 39.9999 202.533 34.892 202.533 25.8496V11.6992H213.412V20.3965C213.412 25.8496 214.656 28.9557 216.87 28.9557C218.736 28.9557 220.095 26.8159 220.795 22.8814V11.6992H231.674Z" fill="#FFECB2"/>
<path d="M188.13 11.009C195.474 11.009 199.632 16.2549 199.632 25.5044C199.632 34.7539 195.474 39.9999 188.13 39.9999C185.255 39.9999 182.963 38.8265 181.37 36.6176V39.3096H170.49V4.79663H181.37V14.3912C182.963 12.1824 185.255 11.009 188.13 11.009ZM185.061 29.646C187.431 29.646 188.752 28.1274 188.752 25.5044C188.752 22.8814 187.431 21.3629 185.061 21.3629C182.691 21.3629 181.37 22.8814 181.37 25.5044C181.37 28.1274 182.691 29.646 185.061 29.646Z" fill="#FFECB2"/>
<path d="M156.452 11.009C163.174 11.009 166.982 16.1169 166.982 25.1593V39.3096H156.102V30.6124C156.102 25.1593 154.859 22.0531 152.644 22.0531C150.973 22.0531 149.691 23.7788 148.953 26.954V39.3096H138.073V30.6124C138.073 25.1593 136.83 22.0531 134.615 22.0531C132.75 22.0531 131.39 24.1239 130.691 28.0584V39.3096H119.811V11.6992H130.691V16.7381C132.245 13.0798 134.887 11.147 138.423 11.009C143.241 11.009 146.583 13.632 148.059 18.4638C149.497 13.77 152.372 11.147 156.452 11.009Z" fill="#FFECB2"/>
<path d="M105.773 11.009C112.495 11.009 116.303 16.1169 116.303 25.1593V39.3096H105.423V30.6124C105.423 25.1593 104.18 22.0531 101.965 22.0531C100.294 22.0531 99.012 23.7788 98.2738 26.954V39.3096H87.3943V30.6124C87.3943 25.1593 86.1509 22.0531 83.9362 22.0531C82.0711 22.0531 80.7112 24.1239 80.0118 28.0584V39.3096H69.1323V11.6992H80.0118V16.7381C81.566 13.0798 84.2081 11.147 87.744 11.009C92.562 11.009 95.9036 13.632 97.3801 18.4638C98.8177 13.77 101.693 11.147 105.773 11.009Z" fill="#FFECB2"/>
<path d="M65.2597 11.6992V39.3096H54.3801V36.6176C52.7871 38.8265 50.4946 39.9999 47.6193 39.9999C40.2757 39.9999 36.1181 34.7539 36.1181 25.5044C36.1181 16.2549 40.2757 11.009 47.6193 11.009C50.4946 11.009 52.7871 12.1824 54.3801 14.3912V11.6992H65.2597ZM50.6889 29.646C53.0591 29.646 54.3801 28.1274 54.3801 25.5044C54.3801 22.8814 53.0591 21.3629 50.6889 21.3629C48.3187 21.3629 46.9976 22.8814 46.9976 25.5044C46.9976 28.1274 48.3187 29.646 50.6889 29.646Z" fill="#FFECB2"/>
<path d="M21.91 11.009C29.2536 11.009 33.4112 16.2549 33.4112 25.5044C33.4112 34.7539 29.2536 39.9999 21.91 39.9999C19.0347 39.9999 16.7422 38.8265 15.1491 36.6176V39.3096H4.26965V4.79663H15.1491V14.3912C16.7422 12.1824 19.0347 11.009 21.91 11.009ZM18.8404 29.646C21.2106 29.646 22.5317 28.1274 22.5317 25.5044C22.5317 22.8814 21.2106 21.3629 18.8404 21.3629C16.4702 21.3629 15.1491 22.8814 15.1491 25.5044C15.1491 28.1274 16.4702 29.646 18.8404 29.646Z" fill="#FFECB2"/>
<path d="M262.524 9.30103V36.9114H251.645V31.8725C250.091 35.5309 247.448 37.4636 243.913 37.6017C237.191 37.6017 233.383 32.4938 233.383 23.4514V9.30103H244.262V17.9983C244.262 23.4514 245.506 26.5575 247.72 26.5575C249.585 26.5575 250.945 24.4177 251.645 20.4832V9.30103H262.524Z" fill="#FFD55B"/>
<path d="M229.88 9.30103V36.9114H219.001V31.8725C217.447 35.5309 214.805 37.4636 211.269 37.6017C204.547 37.6017 200.739 32.4938 200.739 23.4514V9.30103H211.618V17.9983C211.618 23.4514 212.862 26.5575 215.077 26.5575C216.942 26.5575 218.302 24.4177 219.001 20.4832V9.30103H229.88Z" fill="#FFD55B"/>
<path d="M186.337 8.61078C193.68 8.61078 197.838 13.8568 197.838 23.1062C197.838 32.3557 193.68 37.6017 186.337 37.6017C183.461 37.6017 181.169 36.4283 179.576 34.2194V36.9114H168.696V2.39844H179.576V11.9931C181.169 9.78422 183.461 8.61078 186.337 8.61078ZM183.267 27.2478C185.637 27.2478 186.958 25.7292 186.958 23.1062C186.958 20.4833 185.637 18.9647 183.267 18.9647C180.897 18.9647 179.576 20.4833 179.576 23.1062C179.576 25.7292 180.897 27.2478 183.267 27.2478Z" fill="#FFD55B"/>
<path d="M154.658 8.61078C161.38 8.61078 165.188 13.7187 165.188 22.7611V36.9114H154.308V28.2142C154.308 22.7611 153.065 19.6549 150.85 19.6549C149.179 19.6549 147.897 21.3806 147.159 24.5558V36.9114H136.279V28.2142C136.279 22.7611 135.036 19.6549 132.821 19.6549C130.956 19.6549 129.596 21.7257 128.897 25.6602V36.9114H118.017V9.30104H128.897V14.3399C130.451 10.6816 133.093 8.74883 136.629 8.61078C141.447 8.61078 144.789 11.2338 146.265 16.0656C147.703 11.3718 150.578 8.74883 154.658 8.61078Z" fill="#FFD55B"/>
<path d="M103.979 8.61078C110.701 8.61078 114.509 13.7187 114.509 22.7611V36.9114H103.629V28.2142C103.629 22.7611 102.386 19.6549 100.171 19.6549C98.5003 19.6549 97.2181 21.3806 96.4798 24.5558V36.9114H85.6003V28.2142C85.6003 22.7611 84.357 19.6549 82.1422 19.6549C80.2772 19.6549 78.9172 21.7257 78.2178 25.6602V36.9114H67.3383V9.30104H78.2178V14.3399C79.772 10.6816 82.4142 8.74883 85.95 8.61078C90.7681 8.61078 94.1097 11.2338 95.5862 16.0656C97.0238 11.3718 99.8991 8.74883 103.979 8.61078Z" fill="#FFD55B"/>
<path d="M63.4657 9.30104V36.9114H52.5862V34.2194C50.9931 36.4283 48.7007 37.6017 45.8254 37.6017C38.4817 37.6017 34.3242 32.3557 34.3242 23.1062C34.3242 13.8568 38.4817 8.61078 45.8254 8.61078C48.7007 8.61078 50.9931 9.78422 52.5862 11.9931V9.30104H63.4657ZM48.895 27.2478C51.2651 27.2478 52.5862 25.7292 52.5862 23.1062C52.5862 20.4832 51.2651 18.9647 48.895 18.9647C46.5248 18.9647 45.2037 20.4832 45.2037 23.1062C45.2037 25.7292 46.5248 27.2478 48.895 27.2478Z" fill="#FFD55B"/>
<path d="M20.116 8.61078C27.4597 8.61078 31.6172 13.8568 31.6172 23.1062C31.6172 32.3557 27.4597 37.6017 20.116 37.6017C17.2407 37.6017 14.9483 36.4283 13.3552 34.2194V36.9114H2.47571V2.39844H13.3552V11.9931C14.9483 9.78422 17.2407 8.61078 20.116 8.61078ZM17.0465 27.2478C19.4166 27.2478 20.7377 25.7292 20.7377 23.1062C20.7377 20.4833 19.4166 18.9647 17.0465 18.9647C14.6763 18.9647 13.3552 20.4833 13.3552 23.1062C13.3552 25.7292 14.6763 27.2478 17.0465 27.2478Z" fill="#FFD55B"/>
<path d="M260.73 6.90259V34.513H249.851V29.4741C248.297 33.1325 245.654 35.0652 242.119 35.2033C235.397 35.2033 231.589 30.0953 231.589 21.0529V6.90259H242.468V15.5999C242.468 21.0529 243.712 24.1591 245.926 24.1591C247.792 24.1591 249.151 22.0193 249.851 18.0848V6.90259H260.73Z" fill="#14B82C"/>
<path d="M228.087 6.90259V34.513H217.207V29.4741C215.653 33.1325 213.011 35.0652 209.475 35.2033C202.753 35.2033 198.945 30.0953 198.945 21.0529V6.90259H209.825V15.5999C209.825 21.0529 211.068 24.1591 213.283 24.1591C215.148 24.1591 216.508 22.0193 217.207 18.0848V6.90259H228.087Z" fill="#14B82C"/>
<path d="M184.543 6.21234C191.886 6.21234 196.044 11.4583 196.044 20.7078C196.044 29.9573 191.886 35.2033 184.543 35.2033C181.667 35.2033 179.375 34.0298 177.782 31.821V34.513H166.902V0H177.782V9.59462C179.375 7.38579 181.667 6.21234 184.543 6.21234ZM181.473 24.8494C183.843 24.8494 185.164 23.3308 185.164 20.7078C185.164 18.0848 183.843 16.5662 181.473 16.5662C179.103 16.5662 177.782 18.0848 177.782 20.7078C177.782 23.3308 179.103 24.8494 181.473 24.8494Z" fill="#14B82C"/>
<path d="M152.864 6.21234C159.586 6.21234 163.394 11.3203 163.394 20.3627V34.513H152.514V25.8157C152.514 20.3627 151.271 17.2565 149.056 17.2565C147.385 17.2565 146.103 18.9822 145.365 22.1573V34.513H134.485V25.8157C134.485 20.3627 133.242 17.2565 131.027 17.2565C129.162 17.2565 127.802 19.3273 127.103 23.2618V34.513H116.223V6.9026H127.103V11.9415C128.657 8.28312 131.299 6.35039 134.835 6.21234C139.653 6.21234 142.995 8.83533 144.471 13.6671C145.909 8.97338 148.784 6.35039 152.864 6.21234Z" fill="#14B82C"/>
<path d="M102.185 6.21234C108.907 6.21234 112.715 11.3203 112.715 20.3627V34.513H101.835V25.8157C101.835 20.3627 100.592 17.2565 98.3772 17.2565C96.7064 17.2565 95.4242 18.9822 94.686 22.1573V34.513H83.8065V25.8157C83.8065 20.3627 82.5631 17.2565 80.3483 17.2565C78.4833 17.2565 77.1233 19.3273 76.424 23.2618V34.513H65.5444V6.9026H76.424V11.9415C77.9782 8.28312 80.6203 6.35039 84.1562 6.21234C88.9742 6.21234 92.3158 8.83533 93.7923 13.6671C95.2299 8.97338 98.1052 6.35039 102.185 6.21234Z" fill="#14B82C"/>
<path d="M61.6718 6.9026V34.513H50.7923V31.821C49.1993 34.0298 46.9068 35.2033 44.0315 35.2033C36.6878 35.2033 32.5303 29.9573 32.5303 20.7078C32.5303 11.4583 36.6878 6.21234 44.0315 6.21234C46.9068 6.21234 49.1993 7.38578 50.7923 9.59461V6.9026H61.6718ZM47.1011 24.8494C49.4713 24.8494 50.7923 23.3308 50.7923 20.7078C50.7923 18.0848 49.4713 16.5662 47.1011 16.5662C44.7309 16.5662 43.4098 18.0848 43.4098 20.7078C43.4098 23.3308 44.7309 24.8494 47.1011 24.8494Z" fill="#14B82C"/>
<path d="M18.3221 6.21234C25.6658 6.21234 29.8233 11.4583 29.8233 20.7078C29.8233 29.9573 25.6658 35.2033 18.3221 35.2033C15.4469 35.2033 13.1544 34.0298 11.5613 31.821V34.513H0.681824V0H11.5613V9.59462C13.1544 7.38579 15.4469 6.21234 18.3221 6.21234ZM15.2526 24.8494C17.6228 24.8494 18.9438 23.3308 18.9438 20.7078C18.9438 18.0848 17.6228 16.5662 15.2526 16.5662C12.8824 16.5662 11.5613 18.0848 11.5613 20.7078C11.5613 23.3308 12.8824 24.8494 15.2526 24.8494Z" fill="#14B82C"/>
</svg>
