<svg width="64" height="64" viewBox="0 0 64 64" fill="none" xmlns="http://www.w3.org/2000/svg">
<circle cx="32" cy="32" r="31.5" fill="white" stroke="#FFBF00"/>
<path d="M37.1668 23.4586C44.1432 23.4586 48.0929 28.4423 48.0929 37.2293C48.0929 46.0163 44.1432 51 37.1668 51C34.4352 51 32.2574 49.8852 30.744 47.7868V50.3442H20.4084V17.5569H30.744V26.6718C32.2574 24.5734 34.4352 23.4586 37.1668 23.4586ZM34.2507 41.1638C36.5023 41.1638 37.7574 39.7211 37.7574 37.2293C37.7574 34.7375 36.5023 33.2948 34.2507 33.2948C31.999 33.2948 30.744 34.7375 30.744 37.2293C30.744 39.7211 31.999 41.1638 34.2507 41.1638Z" fill="#FFECB2"/>
<path d="M35.4625 21.1802C42.439 21.1802 46.3887 26.1638 46.3887 34.9509C46.3887 43.7379 42.439 48.7215 35.4625 48.7215C32.731 48.7215 30.5532 47.6068 29.0397 45.5084V48.0658H18.7042V15.2784H29.0397V24.3933C30.5532 22.2949 32.731 21.1802 35.4625 21.1802ZM32.5464 38.8853C34.7981 38.8853 36.0531 37.4427 36.0531 34.9509C36.0531 32.459 34.7981 31.0164 32.5464 31.0164C30.2948 31.0164 29.0397 32.459 29.0397 34.9509C29.0397 37.4427 30.2948 38.8853 32.5464 38.8853Z" fill="#FFD55B"/>
<path d="M33.7583 18.9017C40.7348 18.9017 44.6844 23.8854 44.6844 32.6724C44.6844 41.4594 40.7348 46.4431 33.7583 46.4431C31.0268 46.4431 28.8489 45.3283 27.3355 43.2299V45.7874H17V13H27.3355V22.1149C28.8489 20.0165 31.0268 18.9017 33.7583 18.9017ZM30.8422 36.6069C33.0939 36.6069 34.3489 35.1643 34.3489 32.6724C34.3489 30.1806 33.0939 28.7379 30.8422 28.7379C28.5905 28.7379 27.3355 30.1806 27.3355 32.6724C27.3355 35.1643 28.5905 36.6069 30.8422 36.6069Z" fill="#14B82C"/>
</svg>
