<svg width="179" height="233" viewBox="0 0 179 233" fill="none" xmlns="http://www.w3.org/2000/svg">
<g clip-path="url(#clip0_1351_25724)">
<g opacity="0.2">
<path d="M80.504 233C117.48 233 147.455 228.735 147.455 223.473C147.455 218.211 117.48 213.946 80.504 213.946C43.5282 213.946 13.5533 218.211 13.5533 223.473C13.5533 228.735 43.5282 233 80.504 233Z" fill="#042F0C"/>
</g>
<path d="M120.906 183.408C120.906 183.408 122.71 193.764 123.838 203.984C124.8 212.67 125.273 221.255 123.742 223.295C120.903 227.07 100.402 228.374 92.6524 224.381C84.9034 220.384 94.6837 197.122 78.0543 197.041C61.4248 196.959 64.591 213.188 64.591 213.188C64.591 213.188 69.3698 217.446 68.5501 220.073C66.6417 226.195 38.5918 225.751 33.0475 218.169C31.8584 216.542 31.2316 214.437 30.9967 212.102C30.5117 207.288 31.6928 201.517 33.0475 197.041C33.0475 197.041 29.9269 175.04 34.0363 158.01V157.995C34.5329 155.936 35.1329 153.947 35.8601 152.083C35.8601 152.083 25.4907 156.742 17.4604 148.943C9.42653 141.139 13.382 118.637 33.0475 115.94C33.0475 115.94 35.6368 106.553 40.1503 106.845C44.6638 107.141 44.6638 119.1 44.6638 119.1C44.6638 119.1 56.2188 111.129 78.0543 111.585C95.6227 111.954 126.065 118.726 147.447 171.063C147.447 171.063 137.713 182.836 120.906 183.408Z" fill="white"/>
<path d="M35.2558 153.751C36.1442 161.551 42.1519 196.932 77.3986 196.82L77.4376 197.057C61.5043 197.366 64.5931 213.189 64.5931 213.189C64.5931 213.189 69.369 217.445 68.5486 220.075C66.6402 226.196 38.5911 225.752 33.0489 218.17C29.4078 213.189 31.0357 203.685 33.0489 197.041C33.0496 197.041 29.3731 171.105 35.2558 153.751Z" fill="#5F5F82"/>
<path d="M118.111 171.821C118.111 171.821 128.08 212.121 123.499 223.122C121.688 227.472 100.158 228.175 92.4088 224.202C84.6597 220.228 94.4415 197.098 77.8114 197.017C77.2461 197.015 76.7032 197.031 76.1835 197.068C76.4639 196.855 76.8015 196.744 77.1948 196.732C84.093 196.521 110.362 198.993 118.111 171.821Z" fill="#5F5F82"/>
<path d="M54.0733 225.859C45.3325 225.859 35.258 223.812 31.8063 219.089C27.5494 213.264 29.7151 202.837 31.4752 196.916C31.0401 193.644 28.1609 169.872 33.7949 153.249C34.0276 152.562 34.7042 152.128 35.4206 152.207C36.1384 152.284 36.7066 152.853 36.789 153.574C37.5827 160.544 43.2636 195.265 77.2345 195.267C77.2902 195.267 77.3545 195.267 77.3986 195.267C78.1525 195.267 78.7966 195.816 78.9202 196.565L78.9592 196.801C79.033 197.246 78.9108 197.702 78.6246 198.049C78.3383 198.396 77.9154 198.6 77.4673 198.609C73.2609 198.69 70.1599 199.94 68.2486 202.324C65.4417 205.825 65.8314 210.854 66.0352 212.411C67.4636 213.768 70.9716 217.494 70.0225 220.539C69.2946 222.873 66.4386 224.473 61.5332 225.295C59.3278 225.665 56.7631 225.859 54.0733 225.859ZM34.9659 161.006C31.8569 177.13 34.5459 196.598 34.577 196.822C34.6088 197.047 34.5915 197.276 34.5257 197.494C31.833 206.38 31.7463 213.765 34.2929 217.251C37.6116 221.791 51.7659 223.786 61.0258 222.233C65.102 221.551 66.8333 220.393 67.0769 219.611C67.3732 218.66 65.4692 216.05 63.5695 214.351C63.3173 214.125 63.1445 213.822 63.0794 213.489C63.018 213.172 61.6113 205.659 65.8465 200.376C66.7089 199.3 67.7332 198.401 68.9165 197.679C45.7929 193.633 37.7164 172.88 34.9659 161.006Z" fill="#042F0C"/>
<path d="M108.004 228.382C101.844 228.382 95.4376 227.498 91.7083 225.585C87.8071 223.585 87.4962 218.424 87.1673 212.96C86.6302 204.033 85.7317 198.609 77.8034 198.571C77.2663 198.57 76.7596 198.584 76.2926 198.618C75.6138 198.668 74.9784 198.258 74.7384 197.615C74.4977 196.971 74.7081 196.244 75.2531 195.83C75.7909 195.421 76.4278 195.202 77.147 195.18C77.739 195.162 78.4482 195.163 79.2737 195.164C88.4027 195.169 109.838 195.202 116.628 171.393C116.818 170.727 117.424 170.269 118.111 170.269C118.12 170.269 118.129 170.269 118.139 170.269C118.837 170.281 119.44 170.764 119.609 171.447C120.021 173.113 129.648 212.376 124.923 223.723C124.419 224.934 123.193 225.884 121.174 226.629C118.077 227.771 113.125 228.382 108.004 228.382ZM85.7361 198.102C86.7481 199 87.575 200.126 88.214 201.478C89.7667 204.768 90.0118 208.837 90.2482 212.772C90.5221 217.324 90.7809 221.624 93.11 222.818C99.0533 225.866 114.042 225.951 120.111 223.712C121.828 223.08 122.067 222.545 122.076 222.522C125.462 214.39 120.278 188.464 117.805 177.341C110.699 194.054 95.7462 197.427 85.7361 198.102Z" fill="#042F0C"/>
<path d="M147.447 171.063C147.447 171.063 145.512 173.402 141.88 176.049C137.471 179.252 130.568 182.906 121.583 183.369L121.461 183.283L117.986 171.822C119.671 157.026 116.762 140.7 116.762 140.7C86.0809 157.52 42.702 135.586 42.702 135.586C41.0437 138.602 38.9467 143.736 37.5075 147.449C36.5034 150.033 35.8182 151.924 35.8182 151.924L35.4061 152.267C33.3286 153.05 24.4938 155.778 17.4604 148.943C15.8405 147.371 14.7056 145.195 14.094 142.709C11.6623 132.867 17.3491 118.093 33.0474 115.94C33.0474 115.94 33.1667 115.505 33.4017 114.823C34.2517 112.344 36.6104 106.616 40.1503 106.845C44.6638 107.141 44.6638 119.101 44.6638 119.101C44.6638 119.101 56.2188 111.13 78.0542 111.585C88.0854 111.795 102.318 114.095 116.662 125.774C118.947 127.635 121.24 129.741 123.518 132.11C131.964 140.901 140.222 153.383 147.447 171.063Z" fill="#5F5F82"/>
<g opacity="0.6">
<path fill-rule="evenodd" clip-rule="evenodd" d="M147.447 171.063C147.447 171.063 147.76 171.635 144.128 174.282C130.22 139.961 116.658 125.774 116.658 125.774H116.662C118.947 127.634 121.24 129.74 123.518 132.11C131.964 140.901 140.222 153.383 147.447 171.063Z" fill="white"/>
</g>
<g opacity="0.2">
<path d="M123.519 132.11C114.15 135.231 103.003 137.041 91.0404 137.041C63.8218 137.041 40.824 127.674 33.4023 114.823C34.2524 112.344 36.6111 106.616 40.151 106.845C44.6645 107.141 44.6645 119.101 44.6645 119.101C44.6645 119.101 56.2195 111.13 78.0549 111.585C89.6858 111.83 106.966 114.881 123.519 132.11Z" fill="#042F0C"/>
</g>
<path d="M121.582 184.922C121.275 184.922 120.974 184.829 120.718 184.656L120.595 184.572C120.302 184.372 120.085 184.078 119.982 183.737L116.51 172.274C116.448 172.071 116.429 171.856 116.453 171.645C117.744 160.31 116.269 147.9 115.571 143.064C102.928 149.244 86.4994 150.253 67.8829 145.965C56.0308 143.235 46.7565 139.207 43.3779 137.632C40.7119 142.982 37.3058 152.352 37.2682 152.454C37.175 152.712 37.0152 152.94 36.8056 153.115L36.395 153.459C36.2613 153.571 36.1102 153.659 35.9476 153.72C34.0464 154.435 24.1678 157.614 16.3877 150.058C12.0686 145.863 10.7956 138.036 13.2194 130.581C16.0356 121.921 22.7987 116.125 31.8583 114.556C32.7251 111.912 35.3548 105.287 39.9385 105.287C40.0426 105.287 40.1459 105.291 40.2515 105.297C44.6523 105.584 45.811 112.391 46.1095 116.472C50.5624 114.145 61.3453 109.686 78.0875 110.035C108.941 110.684 132.757 131.018 148.874 170.474C149.091 171.006 148.999 171.615 148.634 172.057C148.229 172.547 138.535 184.046 121.663 184.92C121.636 184.921 121.609 184.922 121.582 184.922ZM119.555 171.676L122.605 181.743C135.194 180.689 143.407 173.071 145.644 170.742C130.046 133.134 107.298 113.754 78.0224 113.138C56.9358 112.689 45.6505 120.303 45.5385 120.38C45.0657 120.706 44.4535 120.742 43.9467 120.473C43.44 120.205 43.1227 119.676 43.122 119.1C43.1183 114.806 42.0232 108.523 40.0505 108.395C40.0158 108.393 39.9797 108.391 39.945 108.391C37.5285 108.391 35.2637 113.728 34.5351 116.357C34.3696 116.954 33.8672 117.395 33.2564 117.479C21.4181 119.102 17.3505 127.857 16.1513 131.545C14.1193 137.795 15.0974 144.489 18.5302 147.823C24.5365 153.657 31.9321 151.839 34.5351 150.93C35.3418 148.735 38.8029 139.462 41.351 134.833C41.7514 134.105 42.6535 133.824 43.393 134.198C43.5 134.253 54.2945 139.658 68.6382 142.953C81.7524 145.965 100.618 147.783 116.024 139.335C116.46 139.097 116.982 139.083 117.43 139.299C117.877 139.515 118.194 139.934 118.281 140.425C118.402 141.096 121.171 156.915 119.555 171.676Z" fill="#042F0C"/>
<path d="M107.024 228.375C100.696 228.375 95.199 227.438 91.9483 225.762C88.0499 223.752 87.7398 218.565 87.4109 213.073C86.8731 204.089 85.9746 198.632 78.047 198.594C73.6007 198.568 70.3326 199.793 68.3274 202.223C65.4511 205.709 65.835 210.837 66.0367 212.413C67.4658 213.772 70.9709 217.495 70.0218 220.539C69.2939 222.873 66.4378 224.473 61.5325 225.296C52.1613 226.866 36.3198 225.265 31.8063 219.089C27.5494 213.264 29.7151 202.838 31.4752 196.916C31.0495 193.715 28.2975 171.017 33.3937 154.488C29.4266 155.405 22.3672 155.865 16.3877 150.058C12.0686 145.862 10.7956 138.035 13.2194 130.58C16.0356 121.92 22.7987 116.125 31.8583 114.555C32.7251 111.911 35.3548 105.286 39.9385 105.286C40.0426 105.286 40.1459 105.29 40.2515 105.296C44.6523 105.584 45.811 112.39 46.1095 116.471C50.5624 114.144 61.3453 109.685 78.0875 110.034C108.941 110.683 132.757 131.017 148.874 170.473C149.091 171.005 148.999 171.615 148.634 172.057C148.232 172.542 138.931 183.573 122.716 184.86C123.219 187.908 124.282 194.588 125.109 201.502C127.171 218.747 126.12 222.708 124.974 224.232C122.529 227.483 112.979 228.17 110.111 228.303C109.064 228.351 108.033 228.374 107.024 228.375ZM77.9299 195.487C77.9747 195.487 78.0181 195.487 78.0622 195.487C83.0897 195.512 86.5869 197.546 88.4584 201.533C90.0096 204.838 90.2547 208.93 90.4918 212.885C90.7657 217.468 91.0245 221.795 93.3557 222.997C96.618 224.68 102.981 225.523 109.967 225.2C116.97 224.875 121.657 223.493 122.511 222.357C122.796 221.977 124.115 219.207 122.044 201.883C120.936 192.614 119.4 183.764 119.385 183.676C119.308 183.233 119.426 182.778 119.707 182.429C119.989 182.08 120.407 181.871 120.853 181.856C134.433 181.394 143.305 173.178 145.643 170.742C130.045 133.134 107.298 113.753 78.0217 113.138C56.9185 112.689 45.6498 120.302 45.5378 120.379C45.065 120.705 44.4528 120.741 43.946 120.473C43.4393 120.204 43.122 119.675 43.1212 119.099C43.1176 114.805 42.0225 108.523 40.0498 108.394C40.0151 108.392 39.979 108.39 39.9443 108.39C37.5277 108.39 35.263 113.727 34.5344 116.356C34.3688 116.953 33.8664 117.395 33.2556 117.478C21.4173 119.102 17.3498 127.856 16.1506 131.544C14.1186 137.794 15.0966 144.488 18.5295 147.823C25.6894 154.777 34.8474 150.834 35.2334 150.663C35.8059 150.41 36.4745 150.527 36.9256 150.963C37.3767 151.398 37.5241 152.064 37.2964 152.649C30.7928 169.363 34.5373 196.548 34.5756 196.821C34.6074 197.046 34.59 197.276 34.5243 197.493C31.8316 206.38 31.7449 213.765 34.2915 217.25C37.6101 221.791 51.7645 223.785 61.0243 222.233C65.1006 221.55 66.8318 220.393 67.0754 219.61C67.3718 218.66 65.4678 216.049 63.5681 214.35C63.3158 214.125 63.143 213.821 63.078 213.488C63.0151 213.166 61.5896 205.548 65.9369 200.258C68.5392 197.092 72.5735 195.487 77.9299 195.487Z" fill="#042F0C"/>
<path d="M142.543 141.882C137.69 141.741 139.292 130.423 153.142 115.941C153.142 115.941 153.519 142.203 142.543 141.882Z" fill="#14B82C"/>
<path d="M175.016 153.067C170.653 156.048 161.18 162.505 151.172 169.284C150.283 169.887 149.391 170.494 148.498 171.098C137.943 178.239 127.251 185.428 121.691 189.023L118.328 173.067V164.159C118.328 164.159 126.289 158.262 136.139 151.343C137.359 150.482 138.609 149.611 139.879 148.727C147.905 143.15 156.632 137.316 163.127 133.576C164.936 132.592 167.182 133.035 168.491 134.635C170.638 137.293 173.824 141.897 176.432 148.38C177.113 150.086 176.521 152.04 175.016 153.067Z" fill="#14B82C"/>
<g opacity="0.6">
<path d="M176.697 150.191C174.292 144.844 171.58 140.967 169.683 138.621C168.374 137.017 166.128 136.574 164.319 137.563C158.27 141.05 150.283 146.35 142.729 151.566C147.954 157.563 150.251 165.18 151.171 169.285C150.282 169.888 149.39 170.496 148.497 171.099C146.063 163.998 143.495 159.342 141.231 156.296C140.218 154.933 138.318 154.632 136.935 155.605C127.266 162.407 119.52 168.146 119.52 168.146V177.054L122.002 188.823C121.898 188.892 121.795 188.959 121.691 189.025L118.328 173.068V164.16C118.328 164.16 126.289 158.264 136.138 151.344C137.358 150.484 138.608 149.612 139.878 148.729C147.904 143.152 156.631 137.318 163.126 133.578C164.935 132.593 167.182 133.037 168.49 134.636C170.637 137.294 173.823 141.898 176.431 148.382C176.667 148.973 176.752 149.592 176.697 150.191Z" fill="white"/>
</g>
<g opacity="0.2">
<path d="M147.786 159.715C148.89 162.031 150.191 165.245 151.245 169.238C139.84 176.964 127.731 185.117 121.691 189.024L119.521 178.726C126.878 173.861 137.867 166.44 147.786 159.715Z" fill="#042F0C"/>
</g>
<g opacity="0.2">
<path d="M175.016 153.067C171.072 155.764 162.957 161.294 154.046 167.339C153.482 165.183 152.698 162.898 151.61 160.596C150.894 159.079 151.399 157.258 152.778 156.32C159.429 151.799 165.142 147.904 168.251 145.778C169.76 144.75 170.348 142.797 169.668 141.092C168.425 137.994 167.047 135.328 165.712 133.094C166.77 133.227 167.771 133.76 168.49 134.635C170.637 137.294 173.823 141.898 176.431 148.381C177.113 150.087 176.521 152.04 175.016 153.067Z" fill="#042F0C"/>
</g>
<path d="M121.692 190.578C121.491 190.578 121.289 190.539 121.098 190.458C120.63 190.261 120.287 189.846 120.182 189.347L116.818 173.391C116.794 173.276 116.782 173.159 116.784 173.041L116.958 163.255C116.967 162.762 117.207 162.302 117.607 162.017C117.896 161.81 146.685 141.263 162.36 132.232C164.842 130.876 167.91 131.481 169.683 133.652C171.948 136.457 175.2 141.182 177.86 147.801C178.808 150.171 177.975 152.925 175.881 154.355C174.231 155.481 135.325 182.053 122.525 190.332C122.275 190.494 121.984 190.578 121.692 190.578ZM119.874 172.919L122.736 186.496C137.052 177.121 172.574 152.86 174.149 151.784C175.05 151.17 175.407 149.983 174.999 148.962C172.484 142.703 169.42 138.25 167.294 135.616C166.462 134.598 165.017 134.313 163.863 134.942C149.637 143.139 124.354 161.022 120.03 164.095L119.874 172.919Z" fill="#042F0C"/>
<path d="M151.192 170.587C150.496 170.587 149.865 170.11 149.693 169.4C146.444 155.883 138.886 150.362 138.81 150.308C138.117 149.813 137.949 148.845 138.439 148.145C138.928 147.446 139.886 147.275 140.583 147.766C140.931 148.011 149.151 153.934 152.693 168.67C152.893 169.503 152.384 170.342 151.556 170.544C151.434 170.573 151.312 170.587 151.192 170.587Z" fill="#042F0C"/>
<path fill-rule="evenodd" clip-rule="evenodd" d="M141.138 149.588C141.138 149.588 143.474 142.741 146.269 135.41C147.485 132.221 148.784 128.944 150.018 126.1C150.212 125.683 150.037 125.185 149.625 124.988C149.213 124.791 148.721 124.969 148.526 125.386C147.121 128.179 145.626 131.402 144.22 134.543C140.994 141.746 138.258 148.488 138.258 148.488C137.958 149.292 138.36 150.191 139.155 150.495C139.95 150.797 140.838 150.391 141.138 149.588Z" fill="#042F0C"/>
<path d="M142.745 143.438C142.663 143.438 142.58 143.437 142.497 143.435C140.867 143.387 139.573 142.477 138.948 140.937C137.246 136.747 140.615 126.8 152.03 114.864C152.463 114.41 153.126 114.265 153.708 114.497C154.29 114.728 154.675 115.29 154.685 115.919C154.696 116.678 154.876 134.584 148.381 141.025C146.765 142.626 144.87 143.437 142.745 143.438ZM151.49 120.051C143.211 129.618 140.762 137.193 141.806 139.762C141.993 140.223 142.234 140.319 142.588 140.33C143.947 140.365 145.144 139.874 146.214 138.814C149.844 135.216 151.136 126.111 151.49 120.051Z" fill="#042F0C"/>
<path d="M149.271 178.309C143.23 189.868 131.295 189.023 127.943 184.552C126.3 182.36 125.823 179.392 126.554 176.543C127.308 173.577 129.37 170.74 132.784 169.035C139.474 165.7 147.447 170.931 147.447 170.931C147.447 170.931 152.456 165.918 154.611 168.436C154.753 168.6 154.884 168.798 155 169.035C156.863 172.838 149.271 178.309 149.271 178.309Z" fill="#5F5F82"/>
<g opacity="0.6">
<path d="M155.216 171.055C152.961 169.078 148.271 173.768 148.271 173.768C148.271 173.768 140.298 168.537 133.608 171.873C130.195 173.577 128.133 176.415 127.378 179.38C127.051 180.653 126.966 181.949 127.116 183.19C126.162 181.209 125.966 178.84 126.555 176.543C127.309 173.578 129.371 170.741 132.784 169.036C139.475 165.701 147.448 170.931 147.448 170.931C147.448 170.931 152.457 165.919 154.612 168.437C154.754 168.6 154.885 168.799 155.001 169.036C155.312 169.674 155.359 170.358 155.216 171.055Z" fill="white"/>
</g>
<path d="M135.449 189.171C131.778 189.171 128.433 187.784 126.711 185.485C124.848 182.997 124.225 179.678 125.001 176.378C125.882 172.636 128.469 169.452 132.098 167.643C138.063 164.671 144.704 167.632 147.239 169.013C148.657 167.786 151.339 165.832 153.686 166.228C154.513 166.367 155.652 166.848 156.386 168.35C158.581 172.839 152.127 178.099 150.467 179.352C147.348 185.105 142.327 188.659 136.642 189.123C136.243 189.154 135.844 189.171 135.449 189.171ZM137.725 169.478C136.301 169.478 134.844 169.739 133.468 170.425C130.665 171.823 128.673 174.253 128.005 177.093C127.44 179.491 127.867 181.868 129.176 183.616C130.442 185.307 133.342 186.274 136.394 186.027C141.108 185.643 145.304 182.566 147.906 177.586C148.019 177.372 148.178 177.187 148.373 177.046C151.003 175.145 154.489 171.5 153.618 169.72C153.428 169.333 153.267 169.305 153.179 169.291C152.123 169.113 149.802 170.769 148.533 172.033C148.017 172.546 147.214 172.631 146.605 172.232C146.55 172.196 142.311 169.478 137.725 169.478Z" fill="#042F0C"/>
<path fill-rule="evenodd" clip-rule="evenodd" d="M91.4749 221.689C91.4749 221.689 92.0416 219.523 94.9757 216.981C96.3094 215.825 98.0731 214.604 100.443 213.461C100.78 213.325 100.945 212.937 100.811 212.596C100.676 212.255 100.293 212.088 99.9548 212.224C96.5616 213.339 94.1827 214.739 92.4919 216.038C89.3121 218.481 88.5466 220.727 88.5466 220.727C88.2842 221.544 88.7273 222.423 89.5354 222.688C90.3436 222.954 91.2125 222.506 91.4749 221.689Z" fill="#042F0C"/>
<path fill-rule="evenodd" clip-rule="evenodd" d="M125.505 218.172C125.505 218.172 124.138 216.046 120.626 214.316C118.613 213.325 115.89 212.418 112.264 212.183C111.903 212.136 111.573 212.394 111.526 212.758C111.48 213.123 111.735 213.456 112.095 213.504C114.706 214.016 116.746 214.837 118.344 215.724C121.72 217.597 122.88 219.799 122.88 219.799C123.323 220.531 124.272 220.762 124.996 220.313C125.72 219.863 125.948 218.904 125.505 218.172Z" fill="#042F0C"/>
<path fill-rule="evenodd" clip-rule="evenodd" d="M65.6015 212.191C65.6015 212.191 62.7231 210.57 57.5069 209.792C55.2248 209.452 52.4975 209.258 49.3516 209.448C48.9887 209.45 48.6945 209.749 48.6967 210.117C48.6981 210.485 48.9945 210.782 49.3581 210.78C52.3645 210.934 54.9357 211.404 57.0674 211.97C61.5983 213.171 63.9989 214.848 63.9989 214.848C64.7239 215.296 65.6723 215.063 66.1147 214.33C66.5564 213.597 66.3265 212.638 65.6015 212.191Z" fill="#042F0C"/>
<path fill-rule="evenodd" clip-rule="evenodd" d="M118.409 141.009C118.409 141.009 117.899 138.159 116.954 135.356C116.508 134.033 115.993 132.734 115.379 131.739C115.217 131.411 114.821 131.277 114.496 131.441C114.171 131.606 114.039 132.006 114.201 132.335C114.58 133.326 114.813 134.574 114.987 135.83C115.369 138.579 115.342 141.293 115.342 141.293C115.42 142.149 116.169 142.78 117.015 142.701C117.862 142.623 118.486 141.865 118.409 141.009Z" fill="#042F0C"/>
<path d="M141.091 60.0331C141.068 60.0294 141.045 60.0294 141.022 60.0251C141.022 60.0251 142.922 67.7506 143.019 77.608C143.115 87.4624 145.905 89.1745 145.905 99.6471C145.905 105.964 141.022 135.674 89.1249 129.338C33.4212 122.536 30.0548 103.852 28.054 91.7986C25.7032 77.6094 32.8979 55.963 39.1311 48.8098C39.1311 48.8098 39.1116 48.7946 39.0769 48.7589C37.9376 47.7312 19.3305 30.3738 35.6989 11.2417C52.0399 -7.85907 75.1375 6.48581 77.3039 21.2518C77.3039 21.2518 77.4196 21.2365 77.635 21.2125C80.5821 20.8896 102.576 18.7956 117.259 26.6303C117.259 26.6303 117.27 26.6027 117.29 26.5488C117.709 25.5095 122.38 14.679 135.928 14.679C148.648 14.679 156.432 28.0551 158.456 35.6134C161.561 47.2141 153.342 61.4812 141.091 60.0331Z" fill="white"/>
<path d="M63.8695 73.9824C63.8695 73.9824 67.178 62.2915 76.1972 64.7396C84.7877 67.0707 80.9847 78.2437 80.9847 78.2437" fill="white"/>
<g opacity="0.2">
<path d="M41.5859 40.5286C41.5859 40.5286 41.5663 40.5133 41.5316 40.4777C40.691 39.7191 30.3381 30.0654 31.5504 17.3687C24.6348 31.0138 33.5252 42.8524 37.446 47.1166C38.7985 44.3761 40.2153 42.1018 41.5859 40.5286Z" fill="#042F0C"/>
</g>
<g opacity="0.2">
<path d="M143.545 51.7525C143.522 51.7489 143.499 51.7489 143.476 51.7445C143.476 51.7445 144.276 55.0007 144.865 59.9806C152.724 58.8017 158.259 50.9794 159.022 42.6829C155.965 48.4716 150.384 52.5613 143.545 51.7525Z" fill="#042F0C"/>
</g>
<g opacity="0.2">
<path d="M41.5859 40.5286C41.5859 40.5286 41.5663 40.5133 41.5316 40.4777C40.691 39.7191 30.3381 30.0654 31.5504 17.3687C24.6348 31.0138 33.5252 42.8524 37.446 47.1166C38.7985 44.3761 40.2153 42.1018 41.5859 40.5286Z" fill="#042F0C"/>
</g>
<g opacity="0.2">
<path d="M143.545 51.7525C143.522 51.7489 143.499 51.7489 143.476 51.7445C143.476 51.7445 144.276 55.0007 144.865 59.9806C152.724 58.8017 158.259 50.9794 159.022 42.6829C155.965 48.4716 150.384 52.5613 143.545 51.7525Z" fill="#042F0C"/>
</g>
<g opacity="0.2">
<path d="M31.1087 66.0356C29.0594 73.7619 28.0329 82.1421 29.1454 88.8559C31.1463 100.909 34.5127 119.594 90.2156 126.396C124.174 130.542 138 119.256 143.502 109.189C144.814 106.224 145.444 103.484 145.718 101.431C140.856 111.865 127.447 124.702 91.5797 120.323C35.8767 113.521 32.5103 94.8359 30.5095 82.7828C29.6832 77.8022 30.036 71.9036 31.1087 66.0356Z" fill="#042F0C"/>
</g>
<path d="M72.8468 85.6319C81.516 81.7742 93.3572 85.6319 94.5724 71.3233C95.4839 60.5932 83.1808 52.1622 69.2093 57.2127C52.2647 63.3381 47.7367 75.0327 51.1725 82.4564C54.7297 90.1419 65.7851 88.7739 72.8468 85.6319Z" fill="#5F5F82"/>
<path d="M106.892 71.9212C110.351 65.0859 119.87 60.3561 127.675 66.139C135.48 71.9212 140.068 81.9945 137.474 92.4948C134.88 102.995 126.715 99.2989 124.308 98.0457C121.9 96.7933 117.6 90.6773 111.101 87.6589C103.387 84.0769 104.233 77.1746 106.892 71.9212Z" fill="#5F5F82"/>
<path d="M102.812 131.779C98.4736 131.779 93.848 131.48 88.9384 130.88C64.0416 127.84 47.196 122.224 37.4403 113.711C28.8881 106.248 27.527 98.0449 26.5323 92.054C25.422 85.3554 26.2598 76.5432 28.8896 67.2401C31.001 59.7705 34.0551 52.9512 37.042 48.9437C35.323 47.1894 31.9314 43.3143 29.6702 38.0376C26.7882 31.3113 25.2919 21.0271 34.53 10.2286C44.2576 -1.14154 54.9827 -0.136391 60.5097 1.47534C69.3307 4.04714 76.6844 11.505 78.553 19.5572C83.8957 19.0553 102.679 17.8894 116.54 24.5291C118.37 21.086 123.902 13.1255 135.928 13.1255C141.963 13.1255 147.644 15.9453 152.356 21.2795C155.824 25.2048 158.661 30.4117 159.946 35.2083C161.801 42.1433 159.955 50.1736 155.242 55.6648C151.906 59.5516 147.603 61.6448 142.957 61.6877C143.537 64.6516 144.493 70.5625 144.562 77.5934C144.607 82.2177 145.256 84.9313 145.943 87.805C146.683 90.8968 147.447 94.0934 147.447 99.6486C147.447 100.914 147.158 112.267 137.129 121.207C129.239 128.241 117.73 131.779 102.812 131.779ZM53.8283 3.61802C48.9403 3.61802 42.7287 5.40504 36.8692 12.2542C30.2883 19.947 28.8202 28.2086 32.5046 36.8084C35.3006 43.3361 40.0982 47.5974 40.1459 47.6396C40.4546 47.9109 40.6433 48.2942 40.6707 48.7059C40.6982 49.1175 40.5616 49.5226 40.2912 49.8325C34.4426 56.5442 27.3152 77.9004 29.5756 91.5427C30.5435 97.375 31.7485 104.634 39.4614 111.364C48.7379 119.459 65.0435 124.834 89.3099 127.797C110.186 130.346 125.587 127.346 135.082 118.883C144.101 110.843 144.361 100.77 144.361 99.6479C144.361 94.4614 143.672 91.5805 142.943 88.5308C142.245 85.6157 141.524 82.601 141.475 77.6233C141.383 68.0801 139.542 60.4731 139.523 60.3975C139.399 59.8913 139.536 59.3567 139.886 58.9734C140.222 58.6061 140.712 58.4243 141.203 58.4832C141.231 58.4854 141.259 58.489 141.287 58.4926C145.652 59.0039 149.779 57.2788 152.906 53.6349C156.97 48.9001 158.563 41.984 156.965 36.0156C154.918 28.3664 147.394 16.2304 135.927 16.2304C123.578 16.2304 119.239 25.8594 118.73 27.1031C118.697 27.1955 118.676 27.2413 118.676 27.2413C118.501 27.6333 118.168 27.9468 117.764 28.0864C117.361 28.2261 116.912 28.2028 116.535 28.0021C101.376 19.915 77.7311 22.7625 77.494 22.7923C76.6627 22.897 75.8994 22.313 75.7772 21.478C74.6843 14.0223 67.9016 6.86404 59.6502 4.45807C58.1148 4.01077 56.1161 3.61802 53.8283 3.61802Z" fill="#042F0C"/>
<path fill-rule="evenodd" clip-rule="evenodd" d="M119.599 67.4001C123.422 67.4001 126.526 71.8564 126.526 77.3455C126.526 82.8345 123.422 87.2908 119.599 87.2908C115.775 87.2908 112.671 82.8345 112.671 77.3455C112.671 71.8564 115.775 67.4001 119.599 67.4001Z" fill="#042F0C"/>
<path fill-rule="evenodd" clip-rule="evenodd" d="M117.761 71.524C118.772 71.6418 119.514 73.1742 119.416 74.946C119.317 76.717 118.415 78.0596 117.403 77.9418C116.392 77.8247 115.65 76.2915 115.749 74.5198C115.848 72.7495 116.749 71.4069 117.761 71.524Z" fill="white"/>
<g opacity="0.35">
<path fill-rule="evenodd" clip-rule="evenodd" d="M123.657 78.3614C124.186 78.6371 124.254 79.7739 123.806 80.8998C123.358 82.0256 122.564 82.7151 122.034 82.4402C121.503 82.1646 121.436 81.0278 121.884 79.9019C122.332 78.776 123.126 78.0858 123.657 78.3614Z" fill="white"/>
</g>
<path d="M91.6318 86.9206C93.5488 84.3059 105.9 86.8188 107.05 89.9957C108.2 93.1733 101.218 96.599 98.3066 95.9182C95.3957 95.236 89.907 89.2735 91.6318 86.9206Z" fill="#042F0C"/>
<path d="M103.005 105.78C102.982 105.78 102.96 105.78 102.938 105.78C99.6656 105.759 97.1906 104.152 96.0419 103.234C85.9132 105.539 79.625 93.8038 79.3554 93.2896C78.9578 92.531 79.2463 91.592 80.0002 91.192C80.7534 90.7913 81.6866 91.0822 82.0842 91.8393C82.1666 91.9942 87.8353 102.476 95.9993 100.037C96.5472 99.8726 97.14 100.027 97.5404 100.438C98.1057 101.004 103.292 105.837 109.813 99.3227C110.417 98.719 111.395 98.7219 111.995 99.3307C112.596 99.9395 112.593 100.922 111.988 101.526C109.162 104.349 106.14 105.78 103.005 105.78Z" fill="#042F0C"/>
<path d="M96.4959 103.49C96.3557 103.49 96.2125 103.47 96.0716 103.429C95.2518 103.194 94.7776 102.334 95.0119 101.51L96.6961 95.5786C96.9303 94.7538 97.7862 94.2774 98.6037 94.5123C99.4235 94.748 99.8977 95.6077 99.6635 96.4317L97.9792 102.363C97.7855 103.045 97.1681 103.49 96.4959 103.49Z" fill="#042F0C"/>
<path d="M84.7826 97.8855C87.5244 100.579 91.5414 102.991 96.4402 101.526C96.4402 101.526 100.436 105.621 105.91 103.704C105.92 104.498 105.83 105.301 105.642 106.103C104.275 111.936 98.2271 115.487 92.1435 114.029C86.0606 112.571 82.2316 106.651 83.5978 100.819C83.8465 99.7591 84.2491 98.7757 84.7826 97.8855Z" fill="#042F0C"/>
<path d="M94.9193 115.914C93.8798 115.914 92.8295 115.79 91.7864 115.54C84.8831 113.885 80.5365 107.122 82.0965 100.463C82.3769 99.2638 82.8367 98.127 83.4612 97.084C83.7048 96.6782 84.119 96.4062 84.5867 96.3458C85.0544 96.284 85.5236 96.444 85.8611 96.7749C89.1198 99.9773 92.531 101.075 96 100.038C96.5465 99.8733 97.1407 100.027 97.5411 100.438C97.6734 100.571 100.952 103.796 105.402 102.239C105.87 102.074 106.39 102.147 106.796 102.434C107.202 102.721 107.446 103.187 107.453 103.687C107.464 104.605 107.36 105.538 107.144 106.461C106.411 109.59 104.478 112.261 101.704 113.983C99.6468 115.258 97.312 115.914 94.9193 115.914ZM85.3118 100.42C85.2308 100.668 85.16 100.919 85.1 101.174C83.9296 106.17 87.2498 111.259 92.5013 112.518C95.1434 113.152 97.8368 112.733 100.083 111.339C102.156 110.053 103.596 108.067 104.14 105.747C104.144 105.733 104.147 105.717 104.15 105.703C100.283 106.167 97.3272 104.267 96.0397 103.234C92.356 104.063 88.6933 103.099 85.3118 100.42Z" fill="#042F0C"/>
<path d="M84.7118 108.435C86.3758 107.006 88.694 106.121 91.2566 106.121C95.9631 106.121 99.8471 109.108 100.371 112.953C97.9842 114.274 95.0682 114.73 92.1442 114.029C88.8429 113.238 86.2059 111.134 84.7118 108.435Z" fill="#FFBF00"/>
<path d="M94.8961 115.909C93.861 115.909 92.8179 115.787 91.7857 115.54C88.1902 114.678 85.1202 112.364 83.3636 109.191C83.0058 108.545 83.1511 107.734 83.7099 107.254C85.7274 105.522 88.407 104.568 91.2558 104.568C96.6881 104.568 101.264 108.082 101.899 112.742C101.986 113.378 101.674 114.004 101.114 114.313C99.2066 115.369 97.0705 115.909 94.8961 115.909ZM86.8117 108.834C88.1923 110.653 90.2048 111.969 92.5006 112.519C94.5636 113.014 96.6809 112.86 98.5762 112.094C97.6379 109.512 94.6945 107.674 91.2558 107.674C89.6337 107.674 88.0976 108.08 86.8117 108.834Z" fill="#042F0C"/>
<path d="M77.635 21.2125C52.3175 27.2718 39.4079 48.2142 39.0776 48.7589C37.9383 47.7312 19.3312 30.3738 35.6996 11.2417C52.0406 -7.85907 75.1382 6.48581 77.3046 21.2518C77.3046 21.2518 77.4196 21.2358 77.635 21.2125Z" fill="#5F5F82"/>
<g opacity="0.6">
<path d="M77.2505 20.9048C71.61 8.1244 51.6171 -1.50819 37.0153 15.5576C30.4661 23.2126 29.5163 30.5839 30.8052 36.7407C28.0735 29.8872 27.5349 20.7841 35.6997 11.2417C51.9134 -7.71148 74.7761 6.26392 77.2505 20.9048Z" fill="white"/>
</g>
<path d="M77.635 21.2126C77.5584 21.2323 77.481 21.2519 77.4044 21.2708C77.4044 21.2592 77.4008 21.2512 77.3928 21.2396C77.4463 21.2323 77.5316 21.2243 77.635 21.2126Z" fill="#80729C"/>
<path d="M77.3928 21.2401C77.335 21.2481 77.3046 21.2517 77.3046 21.2517C77.2895 21.1346 77.2699 21.0219 77.2504 20.9055C77.3003 21.0139 77.3466 21.1266 77.3928 21.2401Z" fill="#80729C"/>
<path d="M39.0775 50.3118C38.7002 50.3118 38.3323 50.1721 38.0475 49.9154C37.1836 49.1364 17.0989 30.6036 34.5293 10.2293C44.2568 -1.14157 54.9827 -0.136415 60.5097 1.47532C69.5107 4.10021 76.9851 11.8119 78.6607 20.0525C78.9137 20.2786 79.0944 20.5892 79.1559 20.9485C79.2939 21.7566 78.785 22.5326 77.9928 22.7224C65.2097 25.7823 55.7373 32.8205 50.0419 38.1866C43.7176 44.1448 40.5283 49.3488 40.3953 49.5677C40.1568 49.9612 39.7563 50.2274 39.3024 50.295C39.2272 50.3059 39.152 50.3118 39.0775 50.3118ZM53.8282 3.618C48.9403 3.618 42.7287 5.40501 36.8692 12.2542C30.4473 19.7615 28.8946 27.8209 32.2552 36.2091C34.1498 40.9381 37.1208 44.5238 38.8282 46.3341C42.3644 41.2574 54.5518 25.8383 75.5228 20.1499C73.871 13.1866 67.4101 6.72073 59.6502 4.45805C58.1148 4.01075 56.1161 3.618 53.8282 3.618Z" fill="#042F0C"/>
<path d="M141.091 60.033C134.643 38.5306 119.533 28.015 117.29 26.548C117.709 25.5087 122.38 14.6782 135.928 14.6782C148.648 14.6782 156.432 28.0543 158.456 35.6126C161.561 47.214 153.342 61.4811 141.091 60.033Z" fill="#5F5F82"/>
<g opacity="0.6">
<path d="M158.275 46.6925C158.421 44.5055 158.233 42.2908 157.664 40.17C155.64 32.6117 147.856 19.2356 135.136 19.2356C126.201 19.2356 121.13 23.945 118.591 27.4514C117.998 27.0193 117.556 26.7197 117.29 26.5488C117.71 25.5094 122.381 14.679 135.929 14.679C148.649 14.679 156.433 28.055 158.457 35.6133C159.425 39.2317 159.291 43.112 158.275 46.6925Z" fill="white"/>
</g>
<path d="M142.813 61.6885C142.185 61.6885 141.55 61.6514 140.911 61.5757C140.301 61.5037 139.792 61.0739 139.614 60.4826C133.275 39.346 118.152 28.965 116.448 27.8508C115.829 27.4456 115.582 26.6543 115.86 25.9648C116.39 24.6506 121.458 13.1262 135.928 13.1262C141.963 13.1262 147.644 15.946 152.356 21.2802C155.824 25.2055 158.661 30.4124 159.946 35.209C161.802 42.1447 159.956 50.1743 155.242 55.6655C151.871 59.5923 147.514 61.6885 142.813 61.6885ZM142.256 58.5697C146.262 58.7392 150.011 57.0082 152.907 53.6356C156.97 48.9008 158.564 41.9847 156.966 36.0163C154.918 28.3672 147.395 16.2311 135.928 16.2311C125.463 16.2311 120.751 23.1443 119.247 26.0121C123.704 29.1948 136.214 39.5075 142.256 58.5697Z" fill="#042F0C"/>
<path d="M126.073 34.1086C127.935 31.4517 130.99 29.7236 134.439 29.7236C140.125 29.7236 144.741 34.4221 144.741 40.2094C144.741 44.99 141.592 49.0274 137.289 50.2791C134.028 43.5718 130.052 38.3569 126.487 34.5334L126.073 34.1086Z" fill="#FFBF00"/>
<path d="M48.31 37.7146C46.0799 35.7952 44.666 32.9259 44.666 29.7228C44.666 23.9355 49.2822 19.2371 54.9682 19.2371C59.3697 19.2371 63.1301 22.0525 64.5931 26.0127C58.0664 29.3148 52.7874 33.4394 48.761 37.2658L48.31 37.7146Z" fill="#FFBF00"/>
<path d="M137.289 51.832C136.712 51.832 136.167 51.5047 135.903 50.9614C133.167 45.3327 129.62 40.1629 125.362 35.5961L124.972 35.1961C124.45 34.6607 124.383 33.8272 124.812 33.2141C127.026 30.0561 130.624 28.1709 134.439 28.1709C140.971 28.1709 146.284 33.5712 146.284 40.2094C146.284 45.5487 142.762 50.3032 137.718 51.7709C137.575 51.8116 137.431 51.832 137.289 51.832ZM128.126 34.0294C132.064 38.3548 135.39 43.1551 138.05 48.343C141.134 46.9204 143.198 43.7377 143.198 40.2094C143.198 35.2833 139.268 31.2758 134.439 31.2758C132.043 31.2758 129.76 32.2868 128.126 34.0294Z" fill="#042F0C"/>
<path d="M48.3092 39.2675C47.9528 39.2675 47.5965 39.1438 47.3066 38.8943C44.6479 36.6062 43.1227 33.2627 43.1227 29.7229C43.1227 23.0847 48.4364 17.6843 54.9682 17.6843C59.8692 17.6843 64.3184 20.814 66.0395 25.4717C66.3135 26.2136 65.9889 27.0442 65.2863 27.3998C59.7579 30.1964 54.554 33.8962 49.82 38.3947L49.3942 38.8187C49.095 39.1169 48.7024 39.2675 48.3092 39.2675ZM54.9682 20.79C50.138 20.79 46.2093 24.7975 46.2093 29.7236C46.2093 31.8816 46.9697 33.9399 48.3316 35.5465C52.7469 31.4503 57.5235 28.0217 62.577 25.3146C61.0446 22.5624 58.1336 20.79 54.9682 20.79Z" fill="#042F0C"/>
<path d="M62.9204 74.5503C63.0787 73.0477 63.4915 71.6476 64.0835 70.2657C64.6827 68.8954 65.4815 67.5659 66.5759 66.4007C67.6551 65.2378 69.077 64.2413 70.7193 63.7264C72.3581 63.2042 74.1428 63.2005 75.7237 63.5817C75.9225 63.6289 76.1213 63.6726 76.3193 63.7249L76.907 63.9199C77.2988 64.0362 77.6841 64.2341 78.0679 64.397C78.8291 64.7839 79.5505 65.2821 80.1917 65.8836C80.8249 66.4953 81.3447 67.2182 81.743 67.9783C82.1319 68.7442 82.4123 69.5428 82.5656 70.3413C82.8815 71.9378 82.8179 73.4994 82.5598 74.9722C82.4232 75.7089 82.2591 76.4304 82.0249 77.1279C81.7979 77.8327 81.5398 78.4989 81.1936 79.179C81.0389 79.4823 80.6695 79.6023 80.3681 79.4466C80.1324 79.3252 80.0081 79.0713 80.0385 78.8211L80.0435 78.7819C80.3753 76.1308 80.4086 73.3423 79.6517 71.1123C79.2665 70.0039 78.6701 69.0998 77.8858 68.4467C77.4882 68.1208 77.035 67.8634 76.5514 67.6343C76.0483 67.4343 75.5206 67.2473 74.9539 67.1448C73.8363 66.8982 72.7593 66.928 71.735 67.1899C70.7179 67.4735 69.7203 67.9965 68.8088 68.7689C66.9605 70.2846 65.4316 72.5531 64.0885 74.8864L64.0647 74.9278C63.8941 75.2238 63.5175 75.3249 63.2233 75.1533C63.0071 75.0253 62.8951 74.7853 62.9204 74.5503Z" fill="#042F0C"/>
<path fill-rule="evenodd" clip-rule="evenodd" d="M48.8658 134.425C48.1234 142.181 38.273 148.311 27.5956 139.43L23.0633 139.609L15.1024 139.928C15.0142 137.535 15.1602 135.386 15.4913 133.464C18.1579 117.838 32.9101 116.912 32.9101 116.912C32.9101 116.912 35.0534 105.988 40.1517 106.844C40.8478 106.961 41.4406 107.276 41.9408 107.735H41.9444C42.3449 108.101 42.6911 108.56 42.9795 109.078C42.9831 109.081 42.9831 109.081 42.9831 109.081C44.9956 112.642 44.6645 119.099 44.6645 119.099C44.6645 119.099 49.6436 126.295 48.8658 134.425Z" fill="#5F5F82"/>
<g opacity="0.6">
<path fill-rule="evenodd" clip-rule="evenodd" d="M42.9789 109.078C42.7981 108.997 38.054 106.864 35.5066 117.913C35.5066 117.913 20.2427 119.287 15.4913 133.464C18.158 117.839 32.9101 116.913 32.9101 116.913C32.9101 116.913 35.0534 105.989 40.1517 106.845C40.8479 106.962 41.4406 107.277 41.9408 107.736H41.9444C42.3442 108.101 42.6904 108.56 42.9789 109.078Z" fill="white"/>
</g>
<path d="M27.9498 139.001C29.4845 139.922 31.0365 140.731 32.626 141.322C33.0207 141.479 33.4255 141.59 33.8209 141.726C34.0204 141.787 34.2243 141.831 34.4238 141.885C34.624 141.938 34.8242 141.99 35.0274 142.022C35.8305 142.204 36.6394 142.275 37.4352 142.306C39.0306 142.351 40.5855 142.047 41.9958 141.431C43.3981 140.798 44.627 139.807 45.537 138.58C46.4623 137.366 47.0608 135.905 47.2242 134.401C47.4187 132.789 47.3536 131.09 47.0999 129.426C46.8563 127.751 46.3994 126.092 45.8247 124.465C45.5313 123.654 45.2045 122.851 44.8489 122.061C44.6689 121.667 44.4795 121.277 44.2887 120.89C44.1 120.511 43.8846 120.107 43.6945 119.781L43.5889 119.599C43.4863 119.423 43.4545 119.224 43.4841 119.038C43.5326 118.015 43.5174 116.911 43.453 115.855C43.3865 114.789 43.2658 113.731 43.0627 112.708C42.8581 111.689 42.5711 110.694 42.141 109.84C41.7131 108.986 41.1298 108.313 40.4373 108.04C40.0968 107.902 39.6804 107.842 39.3024 107.874C38.9214 107.904 38.5499 108.031 38.187 108.245C37.4591 108.675 36.8092 109.437 36.2743 110.29C35.2095 112.012 34.4758 114.109 33.9987 116.134L33.9937 116.156C33.8961 116.57 33.552 116.859 33.1566 116.908C32.5429 116.981 31.8417 117.119 31.1875 117.275C30.5232 117.433 29.8632 117.62 29.212 117.833C27.9086 118.258 26.6393 118.789 25.4256 119.423C23.0011 120.691 20.7971 122.387 19.0579 124.493C17.3086 126.589 16.0414 129.079 15.2947 131.733C14.535 134.387 14.2827 137.191 14.3579 139.986V139.989C14.3687 140.385 14.0586 140.714 13.6654 140.724C13.2758 140.735 12.9512 140.428 12.9353 140.039C12.8146 137.13 13.0307 134.17 13.8006 131.315C14.5567 128.463 15.8903 125.732 17.7618 123.42C19.6232 121.098 21.992 119.22 24.5813 117.818C25.8774 117.116 27.2306 116.527 28.6214 116.049C29.3168 115.81 30.0216 115.599 30.7365 115.418C31.4608 115.237 32.1526 115.084 32.9477 114.976L32.1056 115.749C32.3506 114.58 32.6643 113.502 33.0561 112.403C33.4494 111.315 33.9192 110.24 34.5402 109.209C35.1669 108.19 35.9411 107.17 37.1092 106.439C37.6889 106.079 38.38 105.818 39.1 105.748C39.8199 105.679 40.5255 105.765 41.2158 106.023C41.8989 106.284 42.4974 106.718 42.9694 107.212C43.4444 107.708 43.8029 108.259 44.0993 108.816C44.6841 109.938 45.0238 111.094 45.2768 112.242C45.5248 113.393 45.6729 114.543 45.764 115.69C45.8515 116.847 45.8891 117.966 45.8529 119.16V119.162L45.6426 118.419C45.9585 118.845 46.2093 119.219 46.4717 119.626C46.7312 120.026 46.9698 120.436 47.2032 120.849C47.6688 121.676 48.0931 122.526 48.4683 123.402C49.2323 125.147 49.812 126.987 50.18 128.893C50.5364 130.805 50.6571 132.769 50.4662 134.769C50.2407 136.879 49.4137 138.9 48.1495 140.571C46.878 142.239 45.1691 143.549 43.2622 144.367C41.3531 145.186 39.2445 145.464 37.2408 145.251C35.2327 145.04 33.3308 144.368 31.6574 143.413C29.9789 142.46 28.497 141.248 27.2494 139.858C27.0426 139.628 27.0607 139.273 27.2891 139.065C27.4749 138.895 27.7431 138.876 27.9484 138.999L27.9498 139.001Z" fill="#042F0C"/>
<g opacity="0.2">
<path fill-rule="evenodd" clip-rule="evenodd" d="M48.8658 134.425C48.1234 142.181 38.273 148.311 27.5956 139.43L23.0633 139.609C27.5978 138.804 31.2837 141.943 38.3504 134.803C43.7241 129.373 40.0816 119.664 40.0816 119.664C43.9178 116.663 41.9401 107.735 41.9401 107.735H41.9437C45.099 110.615 44.6638 119.099 44.6638 119.099C44.6638 119.099 49.6436 126.295 48.8658 134.425Z" fill="#042F0C"/>
</g>
<g opacity="0.2">
<path fill-rule="evenodd" clip-rule="evenodd" d="M38.8469 143.684L37.5082 147.447C36.5041 150.031 35.8189 151.923 35.8189 151.923L35.4068 152.266C33.3293 153.048 24.4945 155.776 17.4611 148.942C15.8412 147.369 14.7063 145.194 14.0947 142.707C24.2986 147.903 30.8861 141.727 30.8861 141.727C34.1794 144.019 38.8469 143.684 38.8469 143.684Z" fill="#042F0C"/>
</g>
<g opacity="0.2">
<path d="M122.53 223.295C119.691 227.07 99.1907 228.374 91.4409 224.381C83.6918 220.385 93.4721 197.123 76.8427 197.041C60.2133 196.96 63.3794 213.189 63.3794 213.189C63.3794 213.189 68.1582 217.446 67.3385 220.073C65.4302 226.195 37.3803 225.751 31.8359 218.17C30.6468 216.543 30.0201 214.437 29.7852 212.103C35.3107 214.224 46.3611 218.003 53.714 217.47C63.8529 216.738 43.075 209.375 43.075 209.375C43.075 209.375 47.1851 209.107 50.1012 205.547C53.1422 201.836 52.3587 196.254 48.5232 193.393C42.0579 188.57 30.9837 177.354 32.8241 158.011V157.995C32.8241 157.995 45.991 189.025 79.2845 189.025C112.582 189.025 117.115 157.995 117.115 157.995C117.115 157.995 121.282 187.636 101.422 198.351C98.8487 199.739 97.2874 202.49 97.5035 205.432L98.1338 214.018C98.1338 214.018 86.61 219.59 101.2 220.54C115.795 221.494 119.696 217.89 115.852 215.076C115.852 215.076 122.597 214.013 122.624 203.984C123.589 212.671 124.061 221.256 122.53 223.295Z" fill="#042F0C"/>
</g>
<g opacity="0.2">
<path d="M149.271 178.309C143.23 189.868 131.295 189.023 127.943 184.552C126.3 182.361 125.823 179.392 126.554 176.543C128.57 178.652 132.106 181.403 136.466 180.878C143.399 180.042 145.95 175.041 145.95 175.041C145.95 175.041 152.056 174.017 154.612 168.437C154.754 168.6 154.885 168.799 155.001 169.036C156.863 172.838 149.271 178.309 149.271 178.309Z" fill="#042F0C"/>
</g>
<g opacity="0.5">
<path d="M101.666 88.9688C101.768 88.5253 100.677 87.8941 99.2296 87.5589C97.7823 87.2237 96.5269 87.3116 96.4254 87.7551C96.3239 88.1986 97.4149 88.8298 98.8622 89.165C100.309 89.5001 101.565 89.4123 101.666 88.9688Z" fill="white"/>
</g>
<path d="M9.2877 98.0005C9.2877 98.0005 7.98293 103.584 3.73468 103.82C7.98366 104.058 9.2877 109.64 9.2877 109.64C9.2877 109.64 10.5925 104.057 14.8407 103.82C10.5925 103.584 9.2877 98.0005 9.2877 98.0005Z" fill="#FFBF00"/>
<path d="M8.72313 98.0006L8.95228 94.4309C8.96457 94.2447 9.12432 94.1029 9.30937 94.1153C9.47997 94.1262 9.61225 94.2636 9.62309 94.4309L9.85224 98.0006C9.87248 98.3141 9.6361 98.5853 9.32455 98.6057C9.01227 98.6261 8.74337 98.3882 8.72313 98.074C8.72168 98.05 8.72168 98.0239 8.72313 98.0006Z" fill="#042F0C"/>
<path d="M8.98553 113.211L8.72313 109.641C8.7 109.328 8.93421 109.054 9.24576 109.031C9.55732 109.008 9.82911 109.244 9.85224 109.557C9.85441 109.585 9.85369 109.614 9.85224 109.641L9.58984 113.211C9.57756 113.379 9.43226 113.505 9.26528 113.492C9.11348 113.481 8.99638 113.359 8.98553 113.211Z" fill="#042F0C"/>
<path d="M3.73468 104.389L1.05793 104.159C0.872877 104.143 0.735533 103.979 0.751436 103.792C0.765893 103.626 0.898177 103.498 1.05793 103.484L3.73468 103.253C4.04624 103.226 4.32092 103.459 4.34767 103.773C4.37442 104.086 4.1431 104.362 3.83155 104.389C3.79974 104.392 3.76504 104.392 3.73468 104.389Z" fill="#042F0C"/>
<path d="M17.5175 104.158L14.8407 104.389C14.5285 104.416 14.2545 104.183 14.2278 103.869C14.201 103.556 14.4323 103.28 14.7439 103.253C14.7757 103.25 14.8097 103.25 14.8407 103.253L17.5175 103.483C17.7025 103.499 17.8399 103.663 17.824 103.85C17.8095 104.016 17.678 104.145 17.5175 104.158Z" fill="#042F0C"/>
<path d="M9.28768 110.209C9.026 110.209 8.7983 110.028 8.7383 109.772C8.72602 109.72 7.47474 104.598 3.70358 104.388C3.40431 104.371 3.1701 104.122 3.1701 103.821C3.1701 103.519 3.40431 103.27 3.70358 103.253C7.47474 103.043 8.72674 97.9214 8.7383 97.8697C8.7983 97.6137 9.026 97.4326 9.28768 97.4326C9.54935 97.4326 9.77705 97.6137 9.83705 97.8697C9.84934 97.9214 11.1006 103.043 14.8718 103.253C15.171 103.27 15.4053 103.519 15.4053 103.821C15.4053 104.122 15.171 104.371 14.8718 104.388C11.0883 104.599 9.84862 109.719 9.83705 109.771C9.77705 110.028 9.55008 110.209 9.28768 110.209ZM5.87722 103.821C7.66196 104.736 8.72096 106.555 9.28768 107.893C9.85512 106.555 10.9134 104.736 12.6989 103.821C10.9134 102.906 9.85512 101.086 9.28768 99.7484C8.72023 101.087 7.66196 102.906 5.87722 103.821Z" fill="#042F0C"/>
<path d="M160.777 72.9465C160.777 72.9465 159.197 79.7055 154.054 79.992C159.197 80.2786 160.777 87.0376 160.777 87.0376C160.777 87.0376 162.356 80.2786 167.5 79.992C162.356 79.7055 160.777 72.9465 160.777 72.9465Z" fill="#FFBF00"/>
<path d="M160.094 72.9466L160.371 68.6249C160.385 68.3994 160.579 68.2278 160.803 68.2423C161.01 68.2554 161.17 68.422 161.183 68.6249L161.461 72.9466C161.485 73.3263 161.199 73.6543 160.821 73.679C160.444 73.7037 160.118 73.4157 160.094 73.0353C160.092 73.007 160.092 72.975 160.094 72.9466Z" fill="#042F0C"/>
<path d="M160.411 91.36L160.094 87.0383C160.066 86.6586 160.349 86.3277 160.726 86.2993C161.104 86.2709 161.433 86.5561 161.461 86.9364C161.463 86.9699 161.463 87.0063 161.461 87.0383L161.143 91.36C161.128 91.5629 160.952 91.7156 160.75 91.7004C160.567 91.6865 160.424 91.5396 160.411 91.36Z" fill="#042F0C"/>
<path d="M154.054 80.6802L150.815 80.4009C150.59 80.382 150.424 80.1827 150.443 79.9572C150.46 79.755 150.62 79.6001 150.815 79.5834L154.054 79.3041C154.432 79.2714 154.764 79.5528 154.797 79.9332C154.829 80.3129 154.55 80.6475 154.171 80.6802C154.133 80.6838 154.092 80.6831 154.054 80.6802Z" fill="#042F0C"/>
<path d="M170.739 80.4008L167.5 80.6801C167.122 80.7128 166.79 80.4313 166.757 80.0509C166.725 79.6713 167.005 79.3367 167.382 79.304C167.421 79.3003 167.463 79.3011 167.5 79.304L170.739 79.5833C170.964 79.6022 171.131 79.8015 171.111 80.0269C171.094 80.2291 170.934 80.3848 170.739 80.4008Z" fill="#042F0C"/>
<path d="M160.777 87.7257C160.46 87.7257 160.184 87.506 160.112 87.1955C160.097 87.1336 158.582 80.934 154.017 80.6794C153.655 80.6591 153.371 80.358 153.371 79.9928C153.371 79.6277 153.655 79.3266 154.017 79.3063C158.582 79.0517 160.098 72.8513 160.112 72.7895C160.186 72.4797 160.46 72.26 160.777 72.26C160.777 72.26 160.777 72.26 160.778 72.26C161.094 72.26 161.37 72.4797 161.442 72.7895C161.462 72.8731 162.98 79.0524 167.537 79.3063C167.899 79.3266 168.183 79.6277 168.183 79.9928C168.183 80.358 167.899 80.6591 167.537 80.6794C162.972 80.934 161.457 87.1344 161.442 87.1969C161.369 87.5068 161.094 87.7257 160.777 87.7257ZM156.648 79.9928C158.809 81.1005 160.09 83.3036 160.777 84.9226C161.464 83.3036 162.745 81.1013 164.906 79.9928C162.745 78.8851 161.464 76.6821 160.777 75.0631C160.09 76.6821 158.809 78.8844 156.648 79.9928Z" fill="#042F0C"/>
</g>
<defs>
<clipPath id="clip0_1351_25724">
<rect width="177.5" height="232.5" fill="white" transform="translate(0.75 0.5)"/>
</clipPath>
</defs>
</svg>
