<svg width="64" height="64" viewBox="0 0 64 64" fill="none" xmlns="http://www.w3.org/2000/svg">
<path d="M42.6667 64H21.3333C13.9813 64 8 58.0187 8 50.6667V18.6667C8 11.3147 13.9813 5.33333 21.3333 5.33333H21.7893C22.8907 2.22933 25.856 0 29.3333 0H34.6667C38.144 0 41.1093 2.22933 42.2107 5.33333H42.6667C50.0187 5.33333 56 11.3147 56 18.6667V50.6667C56 58.0187 50.0187 64 42.6667 64ZM21.3333 10.6667C16.9227 10.6667 13.3333 14.256 13.3333 18.6667V50.6667C13.3333 55.0773 16.9227 58.6667 21.3333 58.6667H42.6667C47.0773 58.6667 50.6667 55.0773 50.6667 50.6667V18.6667C50.6667 14.256 47.0773 10.6667 42.6667 10.6667H40C38.528 10.6667 37.3333 9.472 37.3333 8C37.3333 6.528 36.136 5.33333 34.6667 5.33333H29.3333C27.864 5.33333 26.6667 6.53067 26.6667 8C26.6667 9.46933 25.472 10.6667 24 10.6667H21.3333ZM32 34.6667C35.6827 34.6667 38.6667 31.6827 38.6667 28C38.6667 24.3173 35.6827 21.3333 32 21.3333C28.3173 21.3333 25.3333 24.3173 25.3333 28C25.3333 31.6827 28.3173 34.6667 32 34.6667ZM43.3307 50.5813C44.7573 50.216 45.616 48.76 45.248 47.336C43.7573 41.5413 38.1867 37.3333 32 37.3333C25.8133 37.3333 20.2427 41.5413 18.752 47.336C18.384 48.7627 19.2427 50.216 20.6693 50.5813C22.1013 50.9493 23.5493 50.0907 23.9147 48.664C24.7947 45.2453 28.2693 42.6667 32 42.6667C35.7307 42.6667 39.2053 45.2453 40.0853 48.664C40.3947 49.8693 41.4773 50.6667 42.6667 50.6667C42.8853 50.6667 43.1067 50.64 43.3307 50.5813Z" fill="#14B82C"/>
</svg>
