<svg width="24" height="25" viewBox="0 0 24 25" fill="none" xmlns="http://www.w3.org/2000/svg">
<g clip-path="url(#clip0_3513_37854)">
<path fill-rule="evenodd" clip-rule="evenodd" d="M7.90152 0.5H16.0295L23.2043 7.67614V21.4565C23.2043 23.1298 21.8355 24.5 20.1608 24.5H7.90156C6.22822 24.5 4.85938 23.1298 4.85938 21.4565V3.54355C4.85938 1.8702 6.22822 0.5 7.90152 0.5Z" fill="#E5252A"/>
<path fill-rule="evenodd" clip-rule="evenodd" d="M16.0273 0.5L23.2021 7.67614H16.8009C16.3744 7.67614 16.0273 7.32777 16.0273 6.9012V0.5Z" fill="#B71D21"/>
<path fill-rule="evenodd" clip-rule="evenodd" d="M1.46094 10.7197H17.9899C18.3575 10.7197 18.6579 11.0201 18.6579 11.3877V17.4514C18.6579 17.819 18.3575 18.1194 17.9899 18.1194H1.46094C1.09334 18.1194 0.792969 17.819 0.792969 17.4514V11.3877C0.792969 11.0201 1.09339 10.7197 1.46094 10.7197Z" fill="#B71D21"/>
<path d="M5.51706 11.9561H4.27028C4.0563 11.9561 3.88281 12.1295 3.88281 12.3435V14.3872V14.8905V16.4939C3.88281 16.7079 4.0563 16.8814 4.27028 16.8814C4.48427 16.8814 4.65775 16.7079 4.65775 16.4939V15.278H5.51702C6.41814 15.278 7.15127 14.5449 7.15127 13.6438V13.5903C7.15131 12.6892 6.41819 11.9561 5.51706 11.9561ZM6.37638 13.6437C6.37638 14.1176 5.99088 14.503 5.51706 14.503H4.65775V14.3871V12.7309H5.51702C5.99083 12.7309 6.37633 13.1164 6.37633 13.5902V13.6437H6.37638ZM9.68669 11.9561H8.43995C8.22597 11.9561 8.05248 12.1295 8.05248 12.3435V16.4939C8.05248 16.7079 8.22597 16.8814 8.43995 16.8814H9.68669C10.5878 16.8814 11.3209 16.1483 11.3209 15.2472V13.5903C11.3209 12.6892 10.5878 11.9561 9.68669 11.9561ZM10.546 15.2471C10.546 15.721 10.1605 16.1064 9.68669 16.1064H8.82742V12.7309H9.68669C10.1605 12.7309 10.546 13.1164 10.546 13.5902V15.2471ZM13.0724 12.731V13.8036H14.8685C15.0825 13.8036 15.256 13.9771 15.256 14.1911C15.256 14.405 15.0825 14.5785 14.8685 14.5785H13.0724V16.4939C13.0724 16.7079 12.8989 16.8814 12.685 16.8814C12.471 16.8814 12.2975 16.7079 12.2975 16.4939V12.3435C12.2975 12.1295 12.471 11.9561 12.685 11.9561H15.1785C15.3925 11.9561 15.5659 12.1295 15.5659 12.3435C15.5659 12.5575 15.3925 12.731 15.1785 12.731H13.0724Z" fill="white"/>
</g>
<defs>
<clipPath id="clip0_3513_37854">
<rect width="24" height="24" fill="white" transform="translate(0 0.5)"/>
</clipPath>
</defs>
</svg>
