<svg width="64" height="64" viewBox="0 0 64 64" fill="none" xmlns="http://www.w3.org/2000/svg">
<path d="M48.4444 50.2222H15.5556C13.5911 50.2222 12 48.6311 12 46.6667V20H52V46.6667C52 48.6311 50.4089 50.2222 48.4444 50.2222Z" fill="#FFBF00"/>
<path d="M52 19.9996H12V17.3329C12 15.3685 13.5911 13.7773 15.5556 13.7773H48.4444C50.4089 13.7773 52 15.3685 52 17.3329V19.9996Z" fill="#14B82C"/>
<path d="M16.4444 46.6667V20H12V46.6667C12 48.6311 13.5911 50.2222 15.5556 50.2222H20C18.0356 50.2222 16.4444 48.6311 16.4444 46.6667Z" fill="#E29300"/>
<path d="M19.5556 13.7773H15.5556C13.5911 13.7773 12 15.3685 12 17.3329V19.9996H16V17.3329C16 15.3685 17.5911 13.7773 19.5556 13.7773Z" fill="#128323"/>
<path d="M24.8889 37.3331H22.2222V29.3331C22.2222 28.3518 21.4258 27.5553 20.4444 27.5553C19.4631 27.5553 18.6667 28.3518 18.6667 29.3331V37.3331H16V29.3331C16 26.8816 17.9929 24.8887 20.4444 24.8887C22.896 24.8887 24.8889 26.8816 24.8889 29.3331V37.3331Z" fill="black"/>
<path d="M17.3334 31.1113H23.5556V33.778H17.3334V31.1113Z" fill="black"/>
<path d="M37.3334 35.5625H48V38.2292H37.3334V35.5625Z" fill="black"/>
<path d="M39.5556 46.2221H37.3334V43.5554H39.5556C41.76 43.5554 43.5556 41.7598 43.5556 39.5554V35.5625H46.2223V39.5554C46.2223 43.2301 43.2303 46.2221 39.5556 46.2221Z" fill="black"/>
<path d="M48 46.2216H46.6667C43.8667 46.2216 41.2818 44.5824 39.9183 41.946L39.3049 40.7602L41.6747 39.5371L42.2863 40.7211C43.1912 42.4687 44.8676 43.5567 46.6667 43.5567H48V46.2216Z" fill="black"/>
<path d="M41.3334 33.334H44V37.7855H41.3334V33.334Z" fill="black"/>
<path d="M21.7178 43.9453L40.3813 25.2818L42.2667 27.1671L23.6031 45.8306L21.7178 43.9453Z" fill="black"/>
<path d="M48.4444 51.5564H15.5555C12.8586 51.5564 10.6666 49.3644 10.6666 46.6675V17.3342C10.6666 14.6373 12.8586 12.4453 15.5555 12.4453H48.4444C51.1413 12.4453 53.3333 14.6373 53.3333 17.3342V46.6675C53.3333 49.3644 51.1413 51.5564 48.4444 51.5564ZM15.5555 15.112C14.3306 15.112 13.3333 16.1093 13.3333 17.3342V46.6675C13.3333 47.8924 14.3306 48.8898 15.5555 48.8898H48.4444C49.6693 48.8898 50.6666 47.8924 50.6666 46.6675V17.3342C50.6666 16.1093 49.6693 15.112 48.4444 15.112H15.5555Z" fill="black"/>
<path d="M12 18.666H52V21.3327H12V18.666Z" fill="black"/>
<path d="M3.55554 48.8887H60.4444V51.5553H3.55554V48.8887Z" fill="black"/>
</svg>
