<svg width="120" height="120" viewBox="0 0 120 120" fill="none" xmlns="http://www.w3.org/2000/svg">
<path d="M116.347 67.85C103.74 48.5467 105.08 28.76 99.0033 19.4567C92.9266 10.1534 74.8166 -5.88662 32.0266 22.0634C-10.7634 50.0134 0.119935 80.3967 6.8066 90.6267C38.0999 138.533 138.677 102.037 116.347 67.85Z" fill="#FFFBC5"/>
<path d="M49.9999 54.1667C57.824 54.1667 64.1666 47.8241 64.1666 40C64.1666 32.176 57.824 25.8334 49.9999 25.8334C42.1759 25.8334 35.8333 32.176 35.8333 40C35.8333 47.8241 42.1759 54.1667 49.9999 54.1667Z" fill="#FFBF00"/>
<path d="M35.8333 65.8334H64.1667C71.53 65.8334 77.5 71.8034 77.5 79.1667V90.8334H22.5V79.1667C22.5 71.8034 28.47 65.8334 35.8333 65.8334Z" fill="#FFBF00"/>
<path d="M43.3333 40C43.3333 33.4834 47.7599 28.05 53.7499 26.4C52.5466 26.0667 51.3066 25.8334 49.9999 25.8334C42.1766 25.8334 35.8333 32.1767 35.8333 40C35.8333 47.8234 42.1766 54.1667 49.9999 54.1667C51.3066 54.1667 52.5466 53.9334 53.7499 53.6C47.7599 51.95 43.3333 46.5167 43.3333 40Z" fill="#E29300"/>
<path d="M43.3333 65.8334H35.8333C28.47 65.8334 22.5 71.8034 22.5 79.1667V90.8334H30V79.1667C30 71.8034 35.97 65.8334 43.3333 65.8334Z" fill="#E29300"/>
<path d="M73.509 13.0164L75.8661 10.6593L80.5801 15.3734L78.2231 17.7304L73.509 13.0164Z" fill="#14B82C"/>
<path d="M87.0669 26.583L89.4239 24.226L94.138 28.94L91.7809 31.2971L87.0669 26.583Z" fill="#14B82C"/>
<path d="M72.9265 28.9366L77.6406 24.2226L79.9976 26.5796L75.2835 31.2937L72.9265 28.9366Z" fill="#14B82C"/>
<path d="M86.4775 15.3879L91.1916 10.6739L93.5486 13.0309L88.8346 17.745L86.4775 15.3879Z" fill="#14B82C"/>
<path d="M49.9999 56.6667C40.8099 56.6667 33.3333 49.19 33.3333 40C33.3333 30.81 40.8099 23.3334 49.9999 23.3334C59.1899 23.3334 66.6666 30.81 66.6666 40C66.6666 49.19 59.1899 56.6667 49.9999 56.6667ZM49.9999 28.3334C43.5666 28.3334 38.3333 33.5667 38.3333 40C38.3333 46.4334 43.5666 51.6667 49.9999 51.6667C56.4333 51.6667 61.6666 46.4334 61.6666 40C61.6666 33.5667 56.4333 28.3334 49.9999 28.3334Z" fill="#482200"/>
<path d="M77.5 93.3334H22.5C21.12 93.3334 20 92.2134 20 90.8334V79.1667C20 70.4367 27.1033 63.3334 35.8333 63.3334H64.1667C72.8967 63.3334 80 70.4367 80 79.1667V90.8334C80 92.2134 78.88 93.3334 77.5 93.3334ZM25 88.3334H75V79.1667C75 73.1934 70.14 68.3334 64.1667 68.3334H35.8333C29.86 68.3334 25 73.1934 25 79.1667V88.3334Z" fill="#482200"/>
<path d="M69.1667 52.5H97.5001V57.5H69.1667V52.5Z" fill="#482200"/>
<path d="M85.9332 70.0999L82.3999 66.5666L93.9666 54.9999L82.3999 43.4333L85.9366 39.8966L99.2699 53.2299C100.247 54.2066 100.247 55.7899 99.2699 56.7666L85.9332 70.0999Z" fill="#482200"/>
</svg>
