<svg width="20" height="20" viewBox="0 0 20 20" fill="none" xmlns="http://www.w3.org/2000/svg">
<path opacity="0.4" d="M4.13649 16.177L4.1414 16.1822L4.14645 16.1872C4.17155 16.2123 4.1875 16.249 4.1875 16.292C4.1875 16.335 4.17155 16.3717 4.14645 16.3968C4.12134 16.4219 4.08465 16.4378 4.04167 16.4378C3.99868 16.4378 3.96199 16.4219 3.93689 16.3968C2.36505 14.8249 1.5 12.7026 1.5 10.5003C1.5 5.77347 5.36246 1.91699 10 1.91699C14.6435 1.91699 18.5 5.69614 18.5 10.417C18.5 12.6192 17.6349 14.7416 16.0631 16.3134C16.0082 16.3684 15.9675 16.395 15.9431 16.4073C15.9313 16.4132 15.9238 16.4154 15.9204 16.4163L15.9171 16.4169L15.9167 16.417L15.9167 16.417H15.9167C15.9163 16.417 15.9117 16.4169 15.9031 16.4149C15.8945 16.413 15.8845 16.4098 15.874 16.4053C15.8635 16.4008 15.8552 16.3961 15.85 16.3927C15.8497 16.3926 15.8495 16.3924 15.8492 16.3922C15.8266 16.3674 15.8125 16.3325 15.8125 16.292C15.8125 16.249 15.8285 16.2123 15.8536 16.1872C17.3711 14.6697 18.1667 12.6225 18.1667 10.417C18.1667 5.89085 14.5261 2.25033 10 2.25033C5.47386 2.25033 1.83333 5.89085 1.83333 10.417C1.83333 12.5448 2.63223 14.5842 4.13649 16.177Z" fill="#14B82C" stroke="#14B82C"/>
<path d="M12.75 15.083C12.75 16.6018 11.5188 17.833 10 17.833C8.48122 17.833 7.25 16.6018 7.25 15.083C7.25 13.5642 8.48122 12.333 10 12.333C11.5188 12.333 12.75 13.5642 12.75 15.083Z" fill="#14B82C" stroke="#14B82C"/>
<path d="M12.1667 8.74967C12.1667 8.10915 12.6928 7.58301 13.3333 7.58301C13.9738 7.58301 14.5 8.10915 14.5 8.74967C14.5 9.3902 13.9738 9.91634 13.3333 9.91634H12.6667C12.4155 9.91634 12.1667 9.69699 12.1667 9.41634V8.74967Z" fill="#14B82C" stroke="#14B82C"/>
</svg>
