<svg width="120" height="120" viewBox="0 0 120 120" fill="none" xmlns="http://www.w3.org/2000/svg">
<path d="M116.428 68.9132C104.118 49.4199 105.765 29.6532 99.8318 20.2599C93.8985 10.8665 76.0385 -5.45347 32.8218 21.8365C-10.3949 49.1265 0.0218159 79.6699 6.54848 90.0032C37.1018 138.39 138.229 103.44 116.428 68.9132Z" fill="#FFFBC5"/>
<path d="M91.9009 73.7671L85.2009 64.4004L84.6009 62.7338C84.5676 62.0004 84.7676 61.2338 85.2009 60.6004L91.9009 51.2338C93.3009 49.3004 92.1342 46.5338 89.7676 46.1338L78.6676 44.3004L78.4342 44.2671C78.3009 44.2338 78.2009 44.2004 78.0676 44.1671C76.8676 43.8338 75.9342 42.8004 75.7342 41.5671L74.5009 34.0338L73.8676 30.2338C73.4676 27.8338 70.7009 26.7004 68.7676 28.1004L59.4009 34.8004C59.1342 35.0004 58.8009 35.1338 58.5009 35.2671C57.8342 35.4671 57.1676 35.4671 56.5009 35.2671C56.2009 35.1338 55.8676 35.0004 55.6009 34.8004L46.2342 28.1004C44.3009 26.7004 41.5342 27.8338 41.1342 30.2338L39.2676 41.5671C39.1676 42.0671 38.9676 42.5671 38.6676 42.9671C38.5009 43.2338 38.2342 43.5004 37.9676 43.6671C37.5676 43.9671 37.0676 44.1671 36.5676 44.2671L25.2342 46.1338C24.4009 46.2671 23.7342 46.7004 23.2342 47.3004C23.0009 47.5671 22.8342 47.9004 22.7009 48.2671C22.5009 48.8004 22.4342 49.3338 22.5342 49.8671C22.6009 50.2004 22.7009 50.5004 22.8342 50.8004C22.9009 50.9338 23.0009 51.1004 23.1009 51.2338L25.4676 54.5338L29.8009 60.6004C30.6009 61.7338 30.6009 63.2671 29.8009 64.4004L23.1009 73.7671C21.7009 75.7004 22.8342 78.4671 25.2342 78.8671L36.5676 80.7338H36.6009L38.2342 81.5338C38.7676 82.0004 39.1342 82.6671 39.2676 83.4004L41.1342 94.7671C41.5342 97.1671 44.2676 98.3004 46.2676 96.9004L55.6009 90.2004C55.7009 90.1338 55.8342 90.0671 55.9342 90.0004C57.0342 89.4004 58.3676 89.4671 59.4009 90.2004L65.5342 94.6004L65.6009 94.6338L68.7676 96.9004C68.9009 97.0005 69.0676 97.1004 69.2009 97.1671C69.5009 97.3004 69.8009 97.4004 70.1342 97.4671C70.6676 97.5671 71.2009 97.5005 71.7342 97.3005C72.1009 97.1671 72.4342 97.0005 72.7009 96.7671C73.3009 96.2671 73.7342 95.6004 73.8676 94.7671L75.7342 83.4338C75.9676 82.0338 77.0342 80.9671 78.4342 80.7338L89.7676 78.8671C92.1676 78.4671 93.3009 75.7004 91.9009 73.7671Z" fill="#FFBF00"/>
<path d="M48.6342 94.7671L46.7676 83.4004C46.6342 82.6671 46.2676 82.0004 45.7342 81.5338L44.1009 80.7338H44.0676L32.7342 78.8671C30.3342 78.4671 29.2009 75.7004 30.6009 73.7671L37.3009 64.4004C38.1009 63.2671 38.1009 61.7338 37.3009 60.6004L32.9676 54.5338L30.6009 51.2338C30.5009 51.1004 30.4009 50.9338 30.3342 50.8004C30.2009 50.5004 30.1009 50.2004 30.0342 49.8671C29.9342 49.3338 30.0009 48.8004 30.2009 48.2671C30.3342 47.9004 30.5009 47.5671 30.7342 47.3004C31.2342 46.7004 31.9009 46.2671 32.7342 46.1338L44.0676 44.2671C44.5676 44.1671 45.0676 43.9671 45.4676 43.6671C45.7342 43.5004 46.0009 43.2338 46.1676 42.9671C46.4676 42.5671 46.6676 42.0671 46.7676 41.5671L48.6342 30.2338C48.6542 30.1104 48.7042 30.0071 48.7376 29.8904L46.2342 28.1004C44.3009 26.7004 41.5342 27.8338 41.1342 30.2338L39.2676 41.5671C39.1676 42.0671 38.9676 42.5671 38.6676 42.9671C38.5009 43.2338 38.2342 43.5004 37.9676 43.6671C37.5676 43.9671 37.0676 44.1671 36.5676 44.2671L25.2342 46.1338C24.4009 46.2671 23.7342 46.7004 23.2342 47.3004C23.0009 47.5671 22.8342 47.9004 22.7009 48.2671C22.5009 48.8004 22.4342 49.3338 22.5342 49.8671C22.6009 50.2004 22.7009 50.5004 22.8342 50.8004C22.9009 50.9338 23.0009 51.1004 23.1009 51.2338L25.4676 54.5338L29.8009 60.6004C30.6009 61.7338 30.6009 63.2671 29.8009 64.4004L23.1009 73.7671C21.7009 75.7004 22.8342 78.4671 25.2342 78.8671L36.5676 80.7338H36.6009L38.2342 81.5338C38.7676 82.0004 39.1342 82.6671 39.2676 83.4004L41.1342 94.7671C41.5342 97.1671 44.2676 98.3004 46.2676 96.9004L48.7409 95.1238C48.7076 95.0038 48.6542 94.8938 48.6342 94.7671Z" fill="#E29300"/>
<path d="M73.1 94.634L73.0333 94.6007L66.9 90.2007C65.8667 89.4674 64.5333 89.4007 63.4333 90.0007C63.3333 90.0674 63.2 90.134 63.1 90.2007L61.25 91.5274L65.5333 94.6007L65.6 94.634L68.7667 96.9007C68.9 97.0007 69.0667 97.1007 69.2 97.1674C69.5 97.3007 69.8 97.4007 70.1333 97.4674C70.6667 97.5674 71.2 97.5007 71.7333 97.3007C72.1 97.1674 72.4333 97.0007 72.7 96.7674C73.2133 96.3407 73.56 95.7674 73.7467 95.0974L73.1 94.634Z" fill="#E29300"/>
<path d="M100 25C97.2433 25 95 22.7567 95 20C95 17.2433 97.2433 15 100 15C102.757 15 105 17.2433 105 20C105 22.7567 102.757 25 100 25ZM100 18.3333C99.08 18.3333 98.3333 19.0833 98.3333 20C98.3333 20.9167 99.08 21.6667 100 21.6667C100.92 21.6667 101.667 20.9167 101.667 20C101.667 19.0833 100.92 18.3333 100 18.3333Z" fill="#14B82C"/>
<path d="M70.6302 100.004C69.4502 100.004 68.2869 99.6374 67.2902 98.9241L57.9469 92.2174C57.7035 92.0508 57.2969 92.0574 57.0102 92.2474L47.7102 98.9241C46.0435 100.094 43.9635 100.327 42.1202 99.5508C40.2869 98.7841 38.9969 97.1474 38.6735 95.1808L36.7869 83.8241C36.7335 83.5108 36.4869 83.2641 36.1702 83.2108L24.8102 81.3241C22.8469 81.0008 21.2135 79.7141 20.4435 77.8774C19.6702 76.0308 19.9002 73.9508 21.0602 72.3074L27.7769 62.9441C27.9435 62.7008 27.9435 62.2974 27.7469 62.0074L21.0735 52.7108C19.9035 51.0841 19.6702 49.0041 20.4369 47.1508C21.2035 45.2974 22.8402 44.0008 24.8135 43.6741L36.1702 41.7874C36.4835 41.7341 36.7302 41.4874 36.7835 41.1741L38.6702 29.8141C38.9935 27.8508 40.2802 26.2174 42.1169 25.4474C43.9602 24.6741 46.0435 24.9041 47.6869 26.0641L57.0469 32.7841C57.3135 32.9774 57.6769 32.9774 57.9435 32.7808L67.2802 26.0774C68.9102 24.9108 70.9902 24.6708 72.8402 25.4441C74.6935 26.2108 75.9902 27.8474 76.3169 29.8174L76.9502 33.6341L72.0202 34.4541L71.3869 30.6341C71.3335 30.2774 71.0802 30.1208 70.9335 30.0641C70.7869 30.0074 70.4969 29.9308 70.2035 30.1408L60.8635 36.8474C58.8502 38.2874 56.1535 38.2841 54.1435 36.8508L44.7969 30.1408C44.5002 29.9274 44.2035 29.9974 44.0569 30.0641C43.8835 30.1341 43.6669 30.2908 43.6102 30.6308L41.7202 41.9941C41.3169 44.4174 39.4202 46.3174 36.9969 46.7208L25.6335 48.6108C25.2735 48.6708 25.1202 48.9208 25.0602 49.0674C24.9969 49.2141 24.9269 49.5041 25.1369 49.8008L31.7102 58.9441C33.2335 61.1674 33.2335 63.8374 31.8735 65.8174L25.1369 75.2041C24.9269 75.5041 24.9969 75.7974 25.0569 75.9441C25.1302 76.1174 25.2869 76.3341 25.6269 76.3908L36.9935 78.2774C39.4169 78.6808 41.3135 80.5808 41.7169 83.0041L43.6035 94.3641C43.6602 94.7108 43.8802 94.8641 44.0502 94.9374C44.1935 94.9974 44.4869 95.0708 44.8069 94.8474L54.1302 88.1541C56.1602 86.7641 58.8269 86.7641 60.8102 88.1241L70.1969 94.8608C70.4869 95.0708 70.7769 95.0008 70.9269 94.9374C71.0702 94.8774 71.3269 94.7241 71.3835 94.3674L73.2735 83.0041C73.6769 80.5808 75.5735 78.6808 77.9969 78.2774L89.3602 76.3908C89.7035 76.3341 89.8602 76.1174 89.9335 75.9441C89.9935 75.7974 90.0669 75.5041 89.8435 75.1841L83.1502 65.8608L87.2135 62.9441L93.9202 72.2874C95.0902 73.9508 95.3202 76.0308 94.5469 77.8774C93.7769 79.7141 92.1435 81.0041 90.1769 81.3241L78.8202 83.2108C78.5069 83.2641 78.2602 83.5108 78.2069 83.8241L76.3202 95.1841C75.9969 97.1541 74.6969 98.7874 72.8469 99.5574C72.1302 99.8574 71.3769 100.004 70.6302 100.004Z" fill="#482200"/>
<path d="M60.8331 71.6677C60.1931 71.6677 59.5531 71.4244 59.0664 70.9344L44.0664 55.9344L47.6031 52.3977L60.8364 65.631L95.7331 30.7344L99.2697 34.271L62.6031 70.9377C62.1131 71.4244 61.4731 71.6677 60.8331 71.6677Z" fill="#482200"/>
</svg>
