<svg width="24" height="24" viewBox="0 0 24 24" fill="none" xmlns="http://www.w3.org/2000/svg">
<path d="M7.16 15.6302L7.15999 15.6302L7.16 15.6302ZM7.16 15.6302L9.22 16.9702C10.01 17.5002 11.01 17.7602 12.01 17.7602C13.01 17.7602 14.01 17.5002 14.8 16.9702L7.16 15.6302ZM17.104 16.0584L17.1045 16.0581C17.4387 15.8386 17.88 16.0741 17.88 16.4802V17.7702C17.88 18.2801 17.6784 18.8374 17.3309 19.3187C16.9834 19.7999 16.5188 20.1653 16.0415 20.3259C16.0412 20.326 16.041 20.3261 16.0407 20.3262L12.8523 21.3857L12.8523 21.3857L12.8493 21.3867C12.6369 21.4588 12.3275 21.5027 11.9962 21.5027C11.6646 21.5027 11.359 21.4586 11.1533 21.3876L11.1533 21.3875L11.1477 21.3857L7.95811 20.3258C7.95809 20.3258 7.95807 20.3258 7.95805 20.3258C7.47603 20.1651 7.01174 19.7999 6.6658 19.3193C6.31989 18.8388 6.12 18.2813 6.12 17.7702V16.4702C6.12 16.0734 6.56278 15.8378 6.88705 16.0491L6.88736 16.0493L8.94447 17.3874C9.83031 17.9807 10.9303 18.2602 12.01 18.2602C13.09 18.2602 14.1903 17.9805 15.0762 17.3869L17.104 16.0584Z" fill="white" stroke="white"/>
<path d="M13.7154 2.94737L13.7157 2.94762L19.705 6.87712C19.7052 6.87724 19.7053 6.87737 19.7055 6.8775C20.7609 7.57307 21.1132 8.8326 20.7725 9.93149L20.75 10.0038V10.0796V14.9996C20.75 15.1334 20.6339 15.2496 20.5 15.2496C20.3662 15.2496 20.25 15.1334 20.25 14.9996V11.9396V11.0129L19.4755 11.5217L18.1058 12.4215L18.1055 12.4217L13.7158 15.3015L13.7154 15.3018C13.2747 15.5915 12.6611 15.7521 12.02 15.7521C11.379 15.7521 10.7654 15.5915 10.3247 15.3018L10.323 15.3007L5.90298 12.4207L5.90251 12.4203L4.30335 11.3809C4.30317 11.3808 4.30299 11.3807 4.3028 11.3805C2.67437 10.3169 2.67747 7.93128 4.30183 6.87924L4.30334 6.87825L10.3233 2.94825L10.3247 2.94737C10.7654 2.65766 11.379 2.49707 12.02 2.49707C12.6611 2.49707 13.2747 2.65766 13.7154 2.94737Z" fill="white" stroke="white"/>
</svg>
