<svg width="32" height="33" viewBox="0 0 32 33" fill="none" xmlns="http://www.w3.org/2000/svg">
<path d="M32 12.8494L21.0647 11.1658L16 1.03638L10.9353 11.1658L0 12.8494L7.80875 20.7843L5.95119 31.9638L16 26.748L26.0488 31.9638L24.1912 20.7834L32 12.8494Z" fill="#FFDF1B"/>
<path d="M24.1912 20.7834L32 12.8494L21.0647 11.1658L16 1.03638V26.748L26.0488 31.9638L24.1912 20.7834Z" fill="#FFBF00"/>
<path d="M18.8126 14.9321L16.0001 17.7446L15.0626 18.6821L13.1876 16.8071L11.8619 18.1328L15.0626 21.3334L16.0001 20.3959L20.1383 16.2578L18.8126 14.9321Z" fill="#46E25C"/>
<path d="M18.8125 14.9324L16 17.7449V20.3962L20.1382 16.258L18.8125 14.9324Z" fill="#14B82C"/>
</svg>
