<svg width="20" height="20" viewBox="0 0 20 20" fill="none" xmlns="http://www.w3.org/2000/svg">
<path d="M15.8833 15.5583L14.1 12L12.3167 15.5583" stroke="#454545" stroke-width="1.2" stroke-linecap="round" stroke-linejoin="round"/>
<path d="M12.6416 14.9248H15.5749" stroke="#454545" stroke-width="1.2" stroke-linecap="round" stroke-linejoin="round"/>
<path d="M14.1 18.3329C11.7667 18.3329 9.8667 16.4412 9.8667 14.0995C9.8667 11.7662 11.7584 9.86621 14.1 9.86621C16.4334 9.86621 18.3334 11.7578 18.3334 14.0995C18.3334 16.4412 16.4417 18.3329 14.1 18.3329Z" stroke="#454545" stroke-width="1.2" stroke-linecap="round" stroke-linejoin="round"/>
<path d="M4.18342 1.66699H7.45008C9.17508 1.66699 10.0084 2.50034 9.96675 4.18368V7.45033C10.0084 9.17533 9.17508 10.0087 7.45008 9.96701H4.18342C2.50008 10.0003 1.66675 9.16699 1.66675 7.44199V4.17533C1.66675 2.50033 2.50008 1.66699 4.18342 1.66699Z" stroke="#454545" stroke-width="1.2" stroke-linecap="round" stroke-linejoin="round"/>
<path d="M7.50833 4.875H4.125" stroke="#292D32" stroke-width="1.2" stroke-linecap="round" stroke-linejoin="round"/>
<path d="M5.80835 4.30859V4.87525" stroke="#292D32" stroke-width="1.2" stroke-linecap="round" stroke-linejoin="round"/>
<path d="M6.65837 4.86719C6.65837 6.32552 5.5167 7.50884 4.1167 7.50884" stroke="#292D32" stroke-width="1.2" stroke-linecap="round" stroke-linejoin="round"/>
<path d="M7.50846 7.50867C6.90012 7.50867 6.35013 7.18366 5.9668 6.66699" stroke="#292D32" stroke-width="1.2" stroke-linecap="round" stroke-linejoin="round"/>
<path opacity="0.4" d="M1.66675 12.5C1.66675 15.725 4.27508 18.3333 7.50008 18.3333L6.62508 16.875" stroke="#292D32" stroke-width="1.2" stroke-linecap="round" stroke-linejoin="round"/>
<path opacity="0.4" d="M18.3333 7.50033C18.3333 4.27533 15.725 1.66699 12.5 1.66699L13.375 3.12533" stroke="#292D32" stroke-width="1.2" stroke-linecap="round" stroke-linejoin="round"/>
</svg>
