<svg width="16" height="16" viewBox="0 0 16 16" fill="none" xmlns="http://www.w3.org/2000/svg">
<path d="M14 3.98763C11.78 3.76763 9.54667 3.6543 7.32 3.6543C6 3.6543 4.68 3.72096 3.36 3.8543L2 3.98763" stroke="#F04438" stroke-linecap="round" stroke-linejoin="round"/>
<path d="M5.6665 3.31398L5.81317 2.44065C5.91984 1.80732 5.99984 1.33398 7.1265 1.33398H8.87317C9.99984 1.33398 10.0865 1.83398 10.1865 2.44732L10.3332 3.31398" stroke="#F04438" stroke-linecap="round" stroke-linejoin="round"/>
<path d="M12.5664 6.09375L12.1331 12.8071C12.0598 13.8537 11.9998 14.6671 10.1398 14.6671H5.85977C3.99977 14.6671 3.93977 13.8537 3.86644 12.8071L3.43311 6.09375" stroke="#F04438" stroke-linecap="round" stroke-linejoin="round"/>
<path d="M6.88672 11H9.10672" stroke="#F04438" stroke-linecap="round" stroke-linejoin="round"/>
<path d="M6.3335 8.33398H9.66683" stroke="#F04438" stroke-linecap="round" stroke-linejoin="round"/>
</svg>
