<svg width="120" height="121" viewBox="0 0 120 121" fill="none" xmlns="http://www.w3.org/2000/svg">
<path d="M27.0466 19.0465C21.03 41.3032 5.36664 53.4698 2.46664 64.1965C-0.433365 74.9232 -0.3567 99.1132 48.9833 112.453C98.3233 125.793 113.757 97.4499 116.943 85.6498C131.88 30.4098 37.7033 -20.3735 27.0466 19.0465Z" fill="#FFFBC5"/>
<path d="M49.9999 54.6663C57.824 54.6663 64.1666 48.3237 64.1666 40.4997C64.1666 32.6756 57.824 26.333 49.9999 26.333C42.1759 26.333 35.8333 32.6756 35.8333 40.4997C35.8333 48.3237 42.1759 54.6663 49.9999 54.6663Z" fill="#FFBF00"/>
<path d="M71.6533 68.1697L71.6733 68.1263C71.2833 67.8997 70.87 67.7063 70.4533 67.5197C70.3333 67.4663 70.22 67.3997 70.0967 67.3497C69.4267 67.0697 68.7167 66.8663 67.9967 66.6963C67.7933 66.6497 67.59 66.6097 67.3833 66.573C66.6133 66.433 65.83 66.3363 65.0167 66.333C65.0133 66.333 65.01 66.333 65.0067 66.333H65H35.8367H35.8333C35.83 66.333 35.8267 66.333 35.8233 66.333C35.01 66.333 34.2267 66.433 33.4567 66.573C33.25 66.6097 33.0467 66.6497 32.8433 66.6963C32.12 66.863 31.4133 67.0697 30.7433 67.3497C30.62 67.3997 30.5067 67.4663 30.3867 67.5197C29.97 67.7063 29.56 67.8997 29.1667 68.1263L29.1867 68.1697C25.2067 70.4763 22.5 74.733 22.5 79.6663V91.333H39.17H61.6667H78.3367V79.6663C78.3367 74.733 75.6333 70.4763 71.6533 68.1697Z" fill="#FFBF00"/>
<path d="M43.3333 40.4997C43.3333 33.983 47.7599 28.5497 53.7499 26.8997C52.5466 26.5663 51.3066 26.333 49.9999 26.333C42.1766 26.333 35.8333 32.6763 35.8333 40.4997C35.8333 48.323 42.1766 54.6663 49.9999 54.6663C51.3066 54.6663 52.5466 54.433 53.7499 54.0997C47.7599 52.4497 43.3333 47.0163 43.3333 40.4997Z" fill="#E29300"/>
<path d="M36.6867 68.1697L36.6667 68.1263C37.0567 67.8997 37.47 67.7063 37.8867 67.5197C38.0067 67.4663 38.12 67.3997 38.2433 67.3497C38.9133 67.0697 39.6233 66.8663 40.3433 66.6963C40.5467 66.6497 40.75 66.6097 40.9567 66.573C41.7267 66.433 42.51 66.3363 43.3233 66.333H43.3333H35.8367H35.8333C35.83 66.333 35.8267 66.333 35.8233 66.333C35.01 66.333 34.2267 66.433 33.4567 66.573C33.25 66.6097 33.0467 66.6497 32.8433 66.6963C32.12 66.863 31.4133 67.0697 30.7433 67.3497C30.62 67.3997 30.5067 67.4663 30.3867 67.5197C29.97 67.7063 29.56 67.8997 29.1667 68.1263L29.1867 68.1697C25.2067 70.4763 22.5 74.733 22.5 79.6663V91.333H30V79.6663C30 74.733 32.7067 70.4763 36.6867 68.1697Z" fill="#E29300"/>
<path d="M94.1667 98.0003H75.8333C73.9933 98.0003 72.5 96.507 72.5 94.667V83.0003C72.5 81.1603 73.9933 79.667 75.8333 79.667H94.1667C96.0067 79.667 97.5 81.1603 97.5 83.0003V94.667C97.5 96.507 96.0067 98.0003 94.1667 98.0003Z" fill="#FFFFEA"/>
<path d="M80 94.667V83.0003C80 81.1603 81.4933 79.667 83.3333 79.667H75.8333C73.9933 79.667 72.5 81.1603 72.5 83.0003V94.667C72.5 96.507 73.9933 98.0003 75.8333 98.0003H83.3333C81.4933 98.0003 80 96.507 80 94.667Z" fill="#FFF885"/>
<path d="M87.4651 15.873L89.8221 13.516L94.5362 18.2301L92.1791 20.5871L87.4651 15.873Z" fill="#14B82C"/>
<path d="M101.011 29.4248L103.368 27.0678L108.082 31.7818L105.725 34.1389L101.011 29.4248Z" fill="#14B82C"/>
<path d="M86.8835 31.7949L91.5976 27.0809L93.9546 29.4379L89.2406 34.1519L86.8835 31.7949Z" fill="#14B82C"/>
<path d="M100.431 18.2471L105.145 13.533L107.502 15.89L102.788 20.6041L100.431 18.2471Z" fill="#14B82C"/>
<path d="M49.9999 57.1663C40.8099 57.1663 33.3333 49.6897 33.3333 40.4997C33.3333 31.3097 40.8099 23.833 49.9999 23.833C59.1899 23.833 66.6666 31.3097 66.6666 40.4997C66.6666 49.6897 59.1899 57.1663 49.9999 57.1663ZM49.9999 28.833C43.5666 28.833 38.3333 34.0663 38.3333 40.4997C38.3333 46.933 43.5666 52.1663 49.9999 52.1663C56.4333 52.1663 61.6666 46.933 61.6666 40.4997C61.6666 34.0663 56.4333 28.833 49.9999 28.833Z" fill="#482200"/>
<path d="M94.1667 100.5H75.8333C72.6167 100.5 70 97.8837 70 94.667V83.0003C70 79.7837 72.6167 77.167 75.8333 77.167H94.1667C97.3833 77.167 100 79.7837 100 83.0003V94.667C100 97.8837 97.3833 100.5 94.1667 100.5ZM75.8333 82.167C75.3733 82.167 75 82.5403 75 83.0003V94.667C75 95.127 75.3733 95.5003 75.8333 95.5003H94.1667C94.6267 95.5003 95 95.127 95 94.667V83.0003C95 82.5403 94.6267 82.167 94.1667 82.167H75.8333Z" fill="#482200"/>
<path d="M90.8334 82.1663H79.1667C77.7867 82.1663 76.6667 81.0463 76.6667 79.6663V72.1663C76.6667 67.573 80.4034 63.833 85.0001 63.833C89.5967 63.833 93.3334 67.573 93.3334 72.1663V79.6663C93.3334 81.0463 92.2134 82.1663 90.8334 82.1663ZM81.6667 77.1663H88.3334V72.1663C88.3334 70.3297 86.8401 68.833 85.0001 68.833C83.1601 68.833 81.6667 70.3297 81.6667 72.1663V77.1663Z" fill="#482200"/>
<path d="M61.6667 93.833H22.5C21.12 93.833 20 92.713 20 91.333V79.6663C20 70.9363 27.1033 63.833 35.8333 63.833H65C67.79 63.833 70.53 64.573 72.9267 65.9697L70.4133 70.2897C68.7767 69.3363 66.9033 68.833 65 68.833H35.8333C29.86 68.833 25 73.693 25 79.6663V88.833H61.6667V93.833Z" fill="#482200"/>
</svg>
