<svg width="16" height="17" viewBox="0 0 16 17" fill="none" xmlns="http://www.w3.org/2000/svg">
<path d="M6.10664 7.74634C6.03998 7.73967 5.95998 7.73967 5.88664 7.74634C4.29998 7.69301 3.03998 6.39301 3.03998 4.79301C3.03998 3.15967 4.35998 1.83301 5.99998 1.83301C7.63331 1.83301 8.95998 3.15967 8.95998 4.79301C8.95331 6.39301 7.69331 7.69301 6.10664 7.74634Z" stroke="#3D3D3D" stroke-linecap="round" stroke-linejoin="round"/>
<path d="M10.94 3.16699C12.2333 3.16699 13.2733 4.21366 13.2733 5.50033C13.2733 6.76033 12.2733 7.78699 11.0267 7.83366C10.9733 7.82699 10.9133 7.82699 10.8533 7.83366" stroke="#3D3D3D" stroke-linecap="round" stroke-linejoin="round"/>
<path d="M2.77335 10.207C1.16002 11.287 1.16002 13.047 2.77335 14.1203C4.60669 15.347 7.61335 15.347 9.44669 14.1203C11.06 13.0403 11.06 11.2803 9.44669 10.207C7.62002 8.98699 4.61335 8.98699 2.77335 10.207Z" stroke="#3D3D3D" stroke-linecap="round" stroke-linejoin="round"/>
<path d="M12.2267 13.833C12.7067 13.733 13.16 13.5397 13.5334 13.253C14.5734 12.473 14.5734 11.1863 13.5334 10.4063C13.1667 10.1263 12.72 9.93967 12.2467 9.83301" stroke="#3D3D3D" stroke-linecap="round" stroke-linejoin="round"/>
</svg>
