<svg width="24" height="24" viewBox="0 0 24 24" fill="none" xmlns="http://www.w3.org/2000/svg">
<g clip-path="url(#clip0_1851_13096)">
<path fill-rule="evenodd" clip-rule="evenodd" d="M7.90213 0H16.0292L23.2058 7.17516V20.9563C23.2058 22.6311 21.8355 24 20.1621 24H7.90213C6.22869 24 4.8584 22.6311 4.8584 20.9563V3.04373C4.85845 1.36889 6.22874 0 7.90213 0Z" fill="#008BF5"/>
<path fill-rule="evenodd" clip-rule="evenodd" d="M16.0293 0L23.2059 7.17516H16.8043C16.3777 7.17516 16.0293 6.82814 16.0293 6.40153V0Z" fill="#006FC4"/>
<path fill-rule="evenodd" clip-rule="evenodd" d="M1.46196 10.219H17.9919C18.3581 10.219 18.6599 10.5194 18.6599 10.887V16.9511C18.6599 17.3187 18.3581 17.6205 17.9919 17.6205H1.46196C1.09437 17.6205 0.793945 17.3187 0.793945 16.9511V10.887C0.793992 10.5194 1.09437 10.219 1.46196 10.219Z" fill="#006FC4"/>
<path d="M7.9582 11.4569C7.05703 11.4569 6.32391 12.19 6.32391 13.0912V14.7481C6.32391 15.6493 7.05708 16.3824 7.9582 16.3824C8.85942 16.3824 9.59255 15.6492 9.59255 14.7481V13.0912C9.59255 12.19 8.85942 11.4569 7.9582 11.4569ZM8.81756 14.7481C8.81756 15.2219 8.43206 15.6074 7.9582 15.6074C7.48439 15.6074 7.09889 15.2219 7.09889 14.7481V13.0912C7.09889 12.6173 7.48439 12.2318 7.9582 12.2318C8.43206 12.2318 8.81756 12.6173 8.81756 13.0912V14.7481ZM10.8901 13.0912V14.7481C10.8901 15.2219 11.2756 15.6074 11.7495 15.6074C12.2233 15.6074 12.6088 15.2219 12.6088 14.7481C12.6088 14.5341 12.7823 14.3606 12.9963 14.3606C13.2104 14.3606 13.3838 14.5341 13.3838 14.7481C13.3838 15.6493 12.6506 16.3824 11.7495 16.3824C10.8483 16.3824 10.1152 15.6492 10.1152 14.7481V13.0912C10.1152 12.19 10.8483 11.4569 11.7495 11.4569C12.6507 11.4569 13.3838 12.19 13.3838 13.0912C13.3838 13.3052 13.2103 13.4787 12.9963 13.4787C12.7823 13.4787 12.6088 13.3052 12.6088 13.0912C12.6088 12.6173 12.2233 12.2318 11.7495 12.2318C11.2756 12.2318 10.8901 12.6173 10.8901 13.0912ZM4.10109 11.4569H2.85427C2.64023 11.4569 2.4668 11.6303 2.4668 11.8443V15.9949C2.4668 16.209 2.64028 16.3824 2.85427 16.3824H4.10109C5.00227 16.3824 5.73539 15.6492 5.73539 14.7481V13.0912C5.73544 12.19 5.00227 11.4569 4.10109 11.4569ZM4.96045 14.7481C4.96045 15.2219 4.57495 15.6074 4.10114 15.6074H3.24178V12.2318H4.10109C4.57491 12.2318 4.96041 12.6173 4.96041 13.0911V14.7481H4.96045ZM16.9305 15.7954C17.0407 15.9788 16.9814 16.2169 16.7979 16.3271C16.7354 16.3646 16.6666 16.3824 16.5987 16.3824C16.4671 16.3824 16.3388 16.3154 16.2662 16.1945L15.3515 14.672L14.4368 16.1945C14.3642 16.3155 14.2358 16.3824 14.1043 16.3824C14.0363 16.3824 13.9676 16.3646 13.9051 16.3271C13.7217 16.2169 13.6623 15.9788 13.7725 15.7954L14.8995 13.9196L13.7725 12.0439C13.6623 11.8605 13.7217 11.6224 13.9051 11.5122C14.0887 11.402 14.3266 11.4614 14.4368 11.6448L15.3515 13.1672L16.2662 11.6448C16.3764 11.4614 16.6144 11.402 16.7979 11.5122C16.9813 11.6224 17.0407 11.8605 16.9305 12.0439L15.8035 13.9196L16.9305 15.7954Z" fill="white"/>
</g>
<defs>
<clipPath id="clip0_1851_13096">
<rect width="24" height="24" fill="white"/>
</clipPath>
</defs>
</svg>
